Cormorant Upright-Bold.ufo
<glyph name="numbersign" format="1">
  <advance width="450"/>
  <unicode hex="0023"/>
  <outline>
    <contour>
      <point x="212" y="403" type="line" smooth="yes"/>
      <point x="213" y="408"/>
      <point x="169" y="417"/>
      <point x="169" y="412" type="curve" smooth="yes"/>
      <point x="85" y="-64" type="line" smooth="yes"/>
      <point x="83" y="-68"/>
      <point x="128" y="-76"/>
      <point x="128" y="-71" type="curve" smooth="yes"/>
    </contour>
    <contour>
      <point x="372" y="403" type="line" smooth="yes"/>
      <point x="373" y="408"/>
      <point x="329" y="417"/>
      <point x="329" y="412" type="curve" smooth="yes"/>
      <point x="245" y="-64" type="line" smooth="yes"/>
      <point x="243" y="-68"/>
      <point x="288" y="-76"/>
      <point x="288" y="-71" type="curve" smooth="yes"/>
    </contour>
    <contour>
      <point x="366" y="63" type="line" smooth="yes"/>
      <point x="371" y="63"/>
      <point x="371" y="104"/>
      <point x="366" y="104" type="curve" smooth="yes"/>
      <point x="53" y="104" type="line" smooth="yes"/>
      <point x="49" y="104"/>
      <point x="49" y="63"/>
      <point x="54" y="63" type="curve" smooth="yes"/>
    </contour>
    <contour>
      <point x="396" y="233" type="line" smooth="yes"/>
      <point x="401" y="233"/>
      <point x="401" y="274"/>
      <point x="396" y="274" type="curve" smooth="yes"/>
      <point x="83" y="274" type="line" smooth="yes"/>
      <point x="79" y="274"/>
      <point x="79" y="233"/>
      <point x="84" y="233" type="curve" smooth="yes"/>
    </contour>
  </outline>
</glyph>
<glyph name="dollar" format="1">
  <advance width="361"/>
  <unicode hex="0024"/>
  <outline>
    <contour>
      <point x="175" y="-95"/>
      <point x="200" y="-95"/>
      <point x="200" y="-87" type="curve" smooth="yes"/>
      <point x="200" y="480" type="line" smooth="yes"/>
      <point x="200" y="488"/>
      <point x="175" y="488"/>
      <point x="175" y="480" type="curve" smooth="yes"/>
      <point x="175" y="-87" type="line" smooth="yes"/>
    </contour>
    <contour>
      <point x="117" y="366"/>
      <point x="135" y="391"/>
      <point x="180" y="391" type="curve" smooth="yes"/>
      <point x="256" y="391"/>
      <point x="295" y="306"/>
      <point x="303" y="290" type="curve" smooth="yes"/>
      <point x="305" y="286"/>
      <point x="313" y="289"/>
      <point x="313" y="292" type="curve" smooth="yes"/>
      <point x="313" y="374" type="line" smooth="yes"/>
      <point x="313" y="381"/>
      <point x="311" y="387"/>
      <point x="300" y="391" type="curve" smooth="yes"/>
      <point x="278" y="400"/>
      <point x="234" y="410"/>
      <point x="195" y="410" type="curve" smooth="yes"/>
      <point x="117" y="410"/>
      <point x="46" y="371"/>
      <point x="46" y="302" type="curve" smooth="yes"/>
      <point x="46" y="244"/>
      <point x="98" y="215"/>
      <point x="150" y="187" type="curve" smooth="yes"/>
      <point x="203" y="159"/>
      <point x="258" y="130"/>
      <point x="258" y="73" type="curve" smooth="yes"/>
      <point x="258" y="28"/>
      <point x="227" y="9"/>
      <point x="193" y="9" type="curve" smooth="yes"/>
      <point x="128" y="9"/>
      <point x="82" y="84"/>
      <point x="51" y="138" type="curve" smooth="yes"/>
      <point x="49" y="142"/>
      <point x="41" y="141"/>
      <point x="41" y="136" type="curve" smooth="yes"/>
      <point x="45" y="39" type="line" smooth="yes"/>
      <point x="45" y="29"/>
      <point x="48" y="24"/>
      <point x="52" y="21" type="curve" smooth="yes"/>
      <point x="70" y="6"/>
      <point x="126" y="-10"/>
      <point x="180" y="-10" type="curve" smooth="yes"/>
      <point x="269" y="-10"/>
      <point x="334" y="43"/>
      <point x="334" y="112" type="curve" smooth="yes"/>
      <point x="334" y="177"/>
      <point x="276" y="206"/>
      <point x="221" y="235" type="curve" smooth="yes"/>
      <point x="168" y="261"/>
      <point x="117" y="285"/>
      <point x="117" y="335" type="curve" smooth="yes"/>
    </contour>
    <contour>
      <point x="197" y="400" type="move" name="top"/>
    </contour>
    <contour>
      <point x="192" y="0" type="move" name="bottom"/>
    </contour>
  </outline>
</glyph>
<glyph name="ampersand" format="1">
  <advance width="664"/>
  <unicode hex="0026"/>
  <outline>
    <contour>
      <point x="396" y="-10"/>
      <point x="495" y="82"/>
      <point x="507" y="259" type="curve"/>
      <point x="488" y="264" type="line"/>
      <point x="482" y="124"/>
      <point x="398" y="39"/>
      <point x="302" y="39" type="curve" smooth="yes"/>
      <point x="205" y="39"/>
      <point x="123" y="124"/>
      <point x="143" y="265" type="curve" smooth="yes"/>
      <point x="151" y="321"/>
      <point x="173" y="372"/>
      <point x="214" y="372" type="curve" smooth="yes"/>
      <point x="233" y="372"/>
      <point x="257" y="361"/>
      <point x="271" y="310" type="curve"/>
      <point x="342" y="377" type="line"/>
      <point x="319" y="392"/>
      <point x="289" y="398"/>
      <point x="260" y="398" type="curve" smooth="yes"/>
      <point x="165" y="398"/>
      <point x="83" y="332"/>
      <point x="63" y="238" type="curve" smooth="yes"/>
      <point x="36" y="114"/>
      <point x="124" y="-10"/>
      <point x="270" y="-10" type="curve" smooth="yes"/>
    </contour>
    <contour>
      <point x="250" y="278"/>
      <point x="417" y="381"/>
      <point x="417" y="517" type="curve" smooth="yes"/>
      <point x="417" y="557"/>
      <point x="402" y="588"/>
      <point x="367" y="588" type="curve" smooth="yes"/>
      <point x="341" y="588"/>
      <point x="324" y="571"/>
      <point x="324" y="545" type="curve" smooth="yes"/>
      <point x="324" y="496"/>
      <point x="374" y="514"/>
      <point x="374" y="465" type="curve" smooth="yes"/>
      <point x="374" y="385"/>
      <point x="185" y="251"/>
      <point x="96" y="175" type="curve"/>
      <point x="108" y="163" type="line"/>
    </contour>
    <contour>
      <point x="353" y="180"/>
      <point x="361" y="196"/>
      <point x="361" y="207" type="curve" smooth="yes"/>
      <point x="361" y="226"/>
      <point x="339" y="236"/>
      <point x="339" y="254" type="curve" smooth="yes"/>
      <point x="339" y="264"/>
      <point x="347" y="272"/>
      <point x="367" y="272" type="curve" smooth="yes"/>
      <point x="424" y="272"/>
      <point x="499" y="201"/>
      <point x="560" y="201" type="curve" smooth="yes"/>
      <point x="615" y="201"/>
      <point x="664" y="259"/>
      <point x="664" y="308" type="curve" smooth="yes"/>
      <point x="664" y="334"/>
      <point x="650" y="341"/>
      <point x="634" y="341" type="curve" smooth="yes"/>
      <point x="615" y="341"/>
      <point x="604" y="331"/>
      <point x="604" y="316" type="curve" smooth="yes"/>
      <point x="604" y="292"/>
      <point x="631" y="285"/>
      <point x="631" y="270" type="curve" smooth="yes"/>
      <point x="631" y="260"/>
      <point x="620" y="254"/>
      <point x="605" y="254" type="curve" smooth="yes"/>
      <point x="556" y="254"/>
      <point x="482" y="320"/>
      <point x="419" y="320" type="curve" smooth="yes"/>
      <point x="362" y="320"/>
      <point x="301" y="265"/>
      <point x="301" y="214" type="curve" smooth="yes"/>
      <point x="301" y="189"/>
      <point x="316" y="180"/>
      <point x="332" y="180" type="curve" smooth="yes"/>
    </contour>
  </outline>
</glyph>
<glyph name="quotesingle" format="1">
  <advance width="128"/>
  <unicode hex="0027"/>
  <outline>
    <contour>
      <point x="49" y="309"/>
      <point x="61" y="310"/>
      <point x="62" y="313" type="curve" smooth="yes"/>
      <point x="116" y="540" type="line" smooth="yes"/>
      <point x="121" y="559"/>
      <point x="22" y="538"/>
      <point x="24" y="518" type="curve" smooth="yes"/>
      <point x="49" y="312" type="line" smooth="yes"/>
    </contour>
  </outline>
</glyph>
<glyph name="zero" format="1">
  <advance width="411"/>
  <unicode hex="0030"/>
  <outline>
    <contour>
      <point x="310" y="-11"/>
      <point x="388" y="60"/>
      <point x="389" y="165" type="curve" smooth="yes"/>
      <point x="390" y="271"/>
      <point x="313" y="341"/>
      <point x="208" y="341" type="curve" smooth="yes"/>
      <point x="102" y="341"/>
      <point x="24" y="269"/>
      <point x="21" y="168" type="curve" smooth="yes"/>
      <point x="20" y="62"/>
      <point x="102" y="-11"/>
      <point x="206" y="-11" type="curve" smooth="yes"/>
    </contour>
    <contour>
      <point x="156" y="6"/>
      <point x="118" y="85"/>
      <point x="115" y="174" type="curve" smooth="yes"/>
      <point x="113" y="267"/>
      <point x="147" y="324"/>
      <point x="197" y="324" type="curve" smooth="yes"/>
      <point x="250" y="324"/>
      <point x="291" y="262"/>
      <point x="295" y="155" type="curve" smooth="yes"/>
      <point x="298" y="72"/>
      <point x="276" y="6"/>
      <point x="218" y="6" type="curve" smooth="yes"/>
    </contour>
    <contour>
      <point x="215" y="330" type="move" name="top"/>
    </contour>
  </outline>
</glyph>
<glyph name="one" format="1">
  <advance width="264"/>
  <unicode hex="0031"/>
  <outline>
    <contour>
      <point x="61" y="0"/>
      <point x="102" y="2"/>
      <point x="146" y="2" type="curve" smooth="yes"/>
      <point x="190" y="2"/>
      <point x="230" y="0"/>
      <point x="261" y="0" type="curve" smooth="yes"/>
      <point x="266" y="0"/>
      <point x="266" y="10"/>
      <point x="261" y="10" type="curve" smooth="yes"/>
      <point x="196" y="10"/>
      <point x="185" y="20"/>
      <point x="185" y="69" type="curve" smooth="yes"/>
      <point x="186" y="337" type="line" smooth="yes"/>
      <point x="186" y="340"/>
      <point x="182" y="343"/>
      <point x="179" y="341" type="curve" smooth="yes"/>
      <point x="20" y="263" type="line" smooth="yes"/>
      <point x="15" y="261"/>
      <point x="19" y="250"/>
      <point x="25" y="252" type="curve" smooth="yes"/>
      <point x="102" y="288"/>
      <point x="105" y="270"/>
      <point x="105" y="233" type="curve" smooth="yes"/>
      <point x="104" y="69" type="line" smooth="yes"/>
      <point x="104" y="20"/>
      <point x="92" y="10"/>
      <point x="29" y="10" type="curve" smooth="yes"/>
      <point x="24" y="10"/>
      <point x="24" y="0"/>
      <point x="29" y="0" type="curve" smooth="yes"/>
    </contour>
    <contour>
      <point x="197" y="566" type="move" name="top"/>
    </contour>
    <contour>
      <point x="103" y="0" type="move" name="bottom"/>
    </contour>
    <contour>
      <point x="234" y="330" type="move" name="topright"/>
    </contour>
  </outline>
</glyph>
<glyph name="two" format="1">
  <advance width="344"/>
  <unicode hex="0032"/>
  <outline>
    <contour>
      <point x="26" y="18"/>
      <point x="31" y="0"/>
      <point x="37" y="0" type="curve" smooth="yes"/>
      <point x="120" y="0"/>
      <point x="219" y="0"/>
      <point x="298" y="0" type="curve" smooth="yes"/>
      <point x="303" y="0"/>
      <point x="306" y="5"/>
      <point x="306" y="9" type="curve" smooth="yes"/>
      <point x="324" y="111" type="line" smooth="yes"/>
      <point x="324" y="114"/>
      <point x="315" y="115"/>
      <point x="314" y="111" type="curve" smooth="yes"/>
      <point x="302" y="70"/>
      <point x="247" y="68"/>
      <point x="130" y="68" type="curve" smooth="yes"/>
      <point x="125" y="68"/>
      <point x="122" y="71"/>
      <point x="126" y="74" type="curve" smooth="yes"/>
      <point x="184" y="120"/>
      <point x="290" y="178"/>
      <point x="290" y="260" type="curve" smooth="yes"/>
      <point x="290" y="308"/>
      <point x="254" y="341"/>
      <point x="190" y="341" type="curve" smooth="yes"/>
      <point x="142" y="341"/>
      <point x="115" y="322"/>
      <point x="97" y="322" type="curve" smooth="yes"/>
      <point x="89" y="322"/>
      <point x="80" y="325"/>
      <point x="85" y="347" type="curve" smooth="yes"/>
      <point x="86" y="350"/>
      <point x="76" y="352"/>
      <point x="75" y="349" type="curve" smooth="yes"/>
      <point x="38" y="203" type="line" smooth="yes"/>
      <point x="37" y="200"/>
      <point x="47" y="198"/>
      <point x="48" y="201" type="curve" smooth="yes"/>
      <point x="72" y="269"/>
      <point x="94" y="315"/>
      <point x="140" y="315" type="curve" smooth="yes"/>
      <point x="182" y="315"/>
      <point x="203" y="275"/>
      <point x="203" y="236" type="curve" smooth="yes"/>
      <point x="203" y="185"/>
      <point x="168" y="148"/>
      <point x="32" y="23" type="curve" smooth="yes"/>
    </contour>
  </outline>
</glyph>
<glyph name="three" format="1">
  <advance width="320"/>
  <unicode hex="0033"/>
  <outline>
    <contour>
      <point x="213" y="-160"/>
      <point x="293" y="-89"/>
      <point x="293" y="-6" type="curve" smooth="yes"/>
      <point x="293" y="64"/>
      <point x="240" y="117"/>
      <point x="148" y="117" type="curve" smooth="yes"/>
      <point x="113" y="117"/>
      <point x="87" y="109"/>
      <point x="73" y="101" type="curve" smooth="yes"/>
      <point x="70" y="99"/>
      <point x="73" y="90"/>
      <point x="78" y="92" type="curve" smooth="yes"/>
      <point x="85" y="95"/>
      <point x="98" y="98"/>
      <point x="114" y="98" type="curve" smooth="yes"/>
      <point x="168" y="98"/>
      <point x="197" y="42"/>
      <point x="197" y="-16" type="curve" smooth="yes"/>
      <point x="197" y="-84"/>
      <point x="166" y="-151"/>
      <point x="35" y="-226" type="curve" smooth="yes"/>
      <point x="30" y="-229"/>
      <point x="35" y="-237"/>
      <point x="39" y="-235" type="curve" smooth="yes"/>
    </contour>
    <contour>
      <point x="223" y="139"/>
      <point x="268" y="189"/>
      <point x="269" y="244" type="curve" smooth="yes"/>
      <point x="270" y="294"/>
      <point x="233" y="341"/>
      <point x="160" y="341" type="curve" smooth="yes"/>
      <point x="119" y="341"/>
      <point x="90" y="323"/>
      <point x="72" y="323" type="curve" smooth="yes"/>
      <point x="64" y="323"/>
      <point x="55" y="328"/>
      <point x="59" y="347" type="curve" smooth="yes"/>
      <point x="60" y="351"/>
      <point x="51" y="353"/>
      <point x="50" y="349" type="curve" smooth="yes"/>
      <point x="18" y="224" type="line" smooth="yes"/>
      <point x="17" y="219"/>
      <point x="27" y="217"/>
      <point x="28" y="221" type="curve" smooth="yes"/>
      <point x="44" y="285"/>
      <point x="72" y="312"/>
      <point x="113" y="312" type="curve" smooth="yes"/>
      <point x="159" y="312"/>
      <point x="179" y="278"/>
      <point x="179" y="229" type="curve" smooth="yes"/>
      <point x="179" y="179"/>
      <point x="172" y="140"/>
      <point x="149" y="110" type="curve"/>
      <point x="152" y="106" type="line"/>
    </contour>
  </outline>
</glyph>
<glyph name="four" format="1">
  <advance width="397"/>
  <unicode hex="0034"/>
  <outline>
    <contour>
      <point x="302" y="-147" type="line" smooth="yes"/>
      <point x="307" y="-146"/>
      <point x="309" y="-142"/>
      <point x="309" y="-135" type="curve" smooth="yes"/>
      <point x="307" y="342" type="line" smooth="yes"/>
      <point x="307" y="347"/>
      <point x="297" y="350"/>
      <point x="294" y="346" type="curve" smooth="yes"/>
      <point x="15" y="20" type="line" smooth="yes"/>
      <point x="11" y="15"/>
      <point x="13" y="10"/>
      <point x="19" y="10" type="curve" smooth="yes"/>
      <point x="183" y="10"/>
      <point x="273" y="9"/>
      <point x="364" y="4" type="curve" smooth="yes"/>
      <point x="371" y="4"/>
      <point x="370" y="57"/>
      <point x="361" y="57" type="curve" smooth="yes"/>
      <point x="271" y="54"/>
      <point x="201" y="53"/>
      <point x="80" y="53" type="curve" smooth="yes"/>
      <point x="75" y="53"/>
      <point x="73" y="56"/>
      <point x="77" y="61" type="curve" smooth="yes"/>
      <point x="274" y="293" type="line"/>
      <point x="226" y="251" type="line"/>
      <point x="227" y="-154" type="line" smooth="yes"/>
      <point x="227" y="-161"/>
      <point x="229" y="-162"/>
      <point x="235" y="-161" type="curve" smooth="yes"/>
    </contour>
  </outline>
</glyph>
<glyph name="five" format="1">
  <advance width="342"/>
  <unicode hex="0035"/>
  <outline>
    <contour>
      <point x="224" y="-156"/>
      <point x="305" y="-88"/>
      <point x="305" y="8" type="curve" smooth="yes"/>
      <point x="305" y="99"/>
      <point x="235" y="168"/>
      <point x="59" y="168" type="curve"/>
      <point x="65" y="154" type="line"/>
      <point x="80" y="244" type="line" smooth="yes"/>
      <point x="82" y="254"/>
      <point x="85" y="256"/>
      <point x="93" y="256" type="curve" smooth="yes"/>
      <point x="259" y="260" type="line" smooth="yes"/>
      <point x="274" y="260"/>
      <point x="281" y="262"/>
      <point x="284" y="275" type="curve" smooth="yes"/>
      <point x="301" y="359" type="line" smooth="yes"/>
      <point x="302" y="363"/>
      <point x="292" y="365"/>
      <point x="291" y="362" type="curve" smooth="yes"/>
      <point x="284" y="339"/>
      <point x="281" y="338"/>
      <point x="81" y="315" type="curve" smooth="yes"/>
      <point x="71" y="314"/>
      <point x="70" y="311"/>
      <point x="69" y="305" type="curve" smooth="yes"/>
      <point x="42" y="153" type="line" smooth="yes"/>
      <point x="41" y="148"/>
      <point x="45" y="143"/>
      <point x="50" y="143" type="curve" smooth="yes"/>
      <point x="155" y="143"/>
      <point x="212" y="81"/>
      <point x="212" y="-7" type="curve" smooth="yes"/>
      <point x="212" y="-84"/>
      <point x="174" y="-153"/>
      <point x="45" y="-226" type="curve" smooth="yes"/>
      <point x="40" y="-229"/>
      <point x="45" y="-237"/>
      <point x="49" y="-235" type="curve" smooth="yes"/>
    </contour>
  </outline>
</glyph>
<glyph name="six" format="1">
  <advance width="389"/>
  <unicode hex="0036"/>
  <outline>
    <contour>
      <point x="309" y="-11"/>
      <point x="379" y="46"/>
      <point x="379" y="122" type="curve" smooth="yes"/>
      <point x="379" y="176"/>
      <point x="344" y="241"/>
      <point x="253" y="241" type="curve" smooth="yes"/>
      <point x="212" y="241"/>
      <point x="180" y="228"/>
      <point x="157" y="203" type="curve" smooth="yes"/>
      <point x="154" y="200"/>
      <point x="160" y="193"/>
      <point x="164" y="196" type="curve" smooth="yes"/>
      <point x="181" y="207"/>
      <point x="196" y="212"/>
      <point x="212" y="212" type="curve" smooth="yes"/>
      <point x="263" y="212"/>
      <point x="291" y="164"/>
      <point x="291" y="94" type="curve" smooth="yes"/>
      <point x="291" y="36"/>
      <point x="272" y="9"/>
      <point x="234" y="9" type="curve" smooth="yes"/>
      <point x="169" y="9"/>
      <point x="117" y="87"/>
      <point x="117" y="196" type="curve" smooth="yes"/>
      <point x="117" y="320"/>
      <point x="185" y="476"/>
      <point x="343" y="555" type="curve" smooth="yes"/>
      <point x="347" y="557"/>
      <point x="343" y="567"/>
      <point x="338" y="565" type="curve" smooth="yes"/>
      <point x="147" y="499"/>
      <point x="28" y="333"/>
      <point x="28" y="177" type="curve" smooth="yes"/>
      <point x="28" y="56"/>
      <point x="100" y="-11"/>
      <point x="209" y="-11" type="curve" smooth="yes"/>
    </contour>
  </outline>
</glyph>
<glyph name="seven" format="1">
  <advance width="359"/>
  <unicode hex="0037"/>
  <outline>
    <contour>
      <point x="137" y="-209" type="line" smooth="yes"/>
      <point x="148" y="-205"/>
      <point x="150" y="-202"/>
      <point x="155" y="-188" type="curve" smooth="yes"/>
      <point x="332" y="319" type="line" smooth="yes"/>
      <point x="333" y="323"/>
      <point x="329" y="330"/>
      <point x="324" y="330" type="curve" smooth="yes"/>
      <point x="254" y="330"/>
      <point x="134" y="330"/>
      <point x="100" y="330" type="curve" smooth="yes"/>
      <point x="62" y="330"/>
      <point x="56" y="333"/>
      <point x="60" y="352" type="curve" smooth="yes"/>
      <point x="61" y="357"/>
      <point x="49" y="359"/>
      <point x="48" y="355" type="curve" smooth="yes"/>
      <point x="15" y="209" type="line" smooth="yes"/>
      <point x="14" y="204"/>
      <point x="26" y="201"/>
      <point x="27" y="206" type="curve" smooth="yes"/>
      <point x="41" y="259"/>
      <point x="50" y="265"/>
      <point x="281" y="265" type="curve" smooth="yes"/>
      <point x="286" y="265"/>
      <point x="287" y="263"/>
      <point x="285" y="259" type="curve" smooth="yes"/>
      <point x="53" y="-228" type="line" smooth="yes"/>
      <point x="51" y="-232"/>
      <point x="57" y="-236"/>
      <point x="60" y="-235" type="curve" smooth="yes"/>
    </contour>
    <contour>
      <point x="179" y="330" type="move" name="top"/>
    </contour>
  </outline>
</glyph>
<glyph name="eight" format="1">
  <advance width="414"/>
  <unicode hex="0038"/>
  <outline>
    <contour>
      <point x="303" y="-11"/>
      <point x="390" y="43"/>
      <point x="390" y="135" type="curve" smooth="yes"/>
      <point x="390" y="289"/>
      <point x="148" y="290"/>
      <point x="148" y="415" type="curve" smooth="yes"/>
      <point x="148" y="455"/>
      <point x="172" y="474"/>
      <point x="196" y="474" type="curve" smooth="yes"/>
      <point x="229" y="474"/>
      <point x="262" y="439"/>
      <point x="262" y="381" type="curve" smooth="yes"/>
      <point x="262" y="345"/>
      <point x="249" y="316"/>
      <point x="226" y="290" type="curve"/>
      <point x="230" y="285" type="line"/>
      <point x="302" y="320"/>
      <point x="338" y="355"/>
      <point x="338" y="401" type="curve" smooth="yes"/>
      <point x="338" y="452"/>
      <point x="293" y="491"/>
      <point x="213" y="491" type="curve" smooth="yes"/>
      <point x="141" y="491"/>
      <point x="72" y="460"/>
      <point x="72" y="387" type="curve" smooth="yes"/>
      <point x="72" y="250"/>
      <point x="316" y="240"/>
      <point x="316" y="99" type="curve" smooth="yes"/>
      <point x="316" y="43"/>
      <point x="278" y="9"/>
      <point x="229" y="9" type="curve" smooth="yes"/>
      <point x="161" y="9"/>
      <point x="115" y="77"/>
      <point x="113" y="150" type="curve" smooth="yes"/>
      <point x="111" y="210"/>
      <point x="136" y="263"/>
      <point x="190" y="291" type="curve"/>
      <point x="184" y="298" type="line"/>
      <point x="111" y="275"/>
      <point x="23" y="206"/>
      <point x="24" y="127" type="curve" smooth="yes"/>
      <point x="25" y="56"/>
      <point x="98" y="-11"/>
      <point x="206" y="-11" type="curve" smooth="yes"/>
    </contour>
  </outline>
</glyph>
<glyph name="nine" format="1">
  <advance width="390"/>
  <unicode hex="0039"/>
  <outline>
    <contour>
      <point x="242" y="-170"/>
      <point x="362" y="-3"/>
      <point x="362" y="151" type="curve" smooth="yes"/>
      <point x="362" y="274"/>
      <point x="286" y="341"/>
      <point x="179" y="341" type="curve" smooth="yes"/>
      <point x="86" y="341"/>
      <point x="10" y="291"/>
      <point x="10" y="214" type="curve" smooth="yes"/>
      <point x="10" y="156"/>
      <point x="53" y="89"/>
      <point x="141" y="89" type="curve" smooth="yes"/>
      <point x="181" y="89"/>
      <point x="215" y="103"/>
      <point x="238" y="131" type="curve" smooth="yes"/>
      <point x="240" y="134"/>
      <point x="234" y="140"/>
      <point x="230" y="137" type="curve" smooth="yes"/>
      <point x="216" y="126"/>
      <point x="194" y="119"/>
      <point x="178" y="119" type="curve" smooth="yes"/>
      <point x="131" y="119"/>
      <point x="101" y="175"/>
      <point x="101" y="243" type="curve" smooth="yes"/>
      <point x="101" y="299"/>
      <point x="122" y="320"/>
      <point x="156" y="320" type="curve" smooth="yes"/>
      <point x="227" y="320"/>
      <point x="274" y="230"/>
      <point x="274" y="135" type="curve" smooth="yes"/>
      <point x="274" y="17"/>
      <point x="201" y="-149"/>
      <point x="48" y="-225" type="curve" smooth="yes"/>
      <point x="43" y="-227"/>
      <point x="48" y="-236"/>
      <point x="52" y="-235" type="curve" smooth="yes"/>
    </contour>
  </outline>
</glyph>
<glyph name="equal" format="1">
  <advance width="400"/>
  <unicode hex="003D"/>
  <outline>
    <contour>
      <point x="371" y="82" type="line" smooth="yes"/>
      <point x="376" y="82"/>
      <point x="376" y="122"/>
      <point x="371" y="122" type="curve" smooth="yes"/>
      <point x="28" y="122" type="line" smooth="yes"/>
      <point x="24" y="122"/>
      <point x="24" y="82"/>
      <point x="29" y="82" type="curve" smooth="yes"/>
    </contour>
    <contour>
      <point x="371" y="202" type="line" smooth="yes"/>
      <point x="376" y="202"/>
      <point x="376" y="242"/>
      <point x="371" y="242" type="curve" smooth="yes"/>
      <point x="28" y="242" type="line" smooth="yes"/>
      <point x="24" y="242"/>
      <point x="24" y="202"/>
      <point x="29" y="202" type="curve" smooth="yes"/>
    </contour>
  </outline>
</glyph>
<glyph name="question" format="1">
  <advance width="290"/>
  <unicode hex="003F"/>
  <outline>
    <contour>
      <point x="165" y="518"/>
      <point x="178" y="486"/>
      <point x="178" y="444" type="curve" smooth="yes"/>
      <point x="178" y="348"/>
      <point x="108" y="347"/>
      <point x="108" y="267" type="curve" smooth="yes"/>
      <point x="108" y="240"/>
      <point x="116" y="195"/>
      <point x="130" y="163" type="curve" smooth="yes"/>
      <point x="132" y="160"/>
      <point x="145" y="163"/>
      <point x="144" y="167" type="curve" smooth="yes"/>
      <point x="141" y="186"/>
      <point x="139" y="198"/>
      <point x="139" y="212" type="curve" smooth="yes"/>
      <point x="139" y="254"/>
      <point x="155" y="286"/>
      <point x="190" y="317" type="curve" smooth="yes"/>
      <point x="227" y="349"/>
      <point x="273" y="374"/>
      <point x="273" y="433" type="curve" smooth="yes"/>
      <point x="273" y="501"/>
      <point x="210" y="534"/>
      <point x="141" y="534" type="curve" smooth="yes"/>
      <point x="75" y="534"/>
      <point x="26" y="504"/>
      <point x="26" y="464" type="curve" smooth="yes"/>
      <point x="26" y="446"/>
      <point x="36" y="424"/>
      <point x="68" y="424" type="curve" smooth="yes"/>
      <point x="110" y="424"/>
      <point x="115" y="462"/>
      <point x="117" y="483" type="curve" smooth="yes"/>
      <point x="119" y="500"/>
      <point x="123" y="518"/>
      <point x="141" y="518" type="curve" smooth="yes"/>
    </contour>
    <component base="period" xOffset="48"/>
  </outline>
</glyph>
<glyph name="A" format="1">
  <advance width="559"/>
  <unicode hex="0041"/>
  <outline>
    <contour>
      <point x="25" y="0"/>
      <point x="43" y="3"/>
      <point x="80" y="3" type="curve" smooth="yes"/>
      <point x="120" y="3"/>
      <point x="165" y="0"/>
      <point x="194" y="0" type="curve" smooth="yes"/>
      <point x="200" y="0"/>
      <point x="200" y="10"/>
      <point x="195" y="10" type="curve" smooth="yes"/>
      <point x="118" y="10"/>
      <point x="98" y="39"/>
      <point x="128" y="110" type="curve" smooth="yes"/>
      <point x="287" y="498" type="line"/>
      <point x="247" y="432" type="line"/>
      <point x="397" y="72" type="line" smooth="yes"/>
      <point x="417" y="24"/>
      <point x="406" y="10"/>
      <point x="359" y="10" type="curve" smooth="yes"/>
      <point x="355" y="10"/>
      <point x="355" y="0"/>
      <point x="359" y="0" type="curve" smooth="yes"/>
      <point x="392" y="0"/>
      <point x="420" y="3"/>
      <point x="459" y="3" type="curve" smooth="yes"/>
      <point x="499" y="3"/>
      <point x="531" y="0"/>
      <point x="564" y="0" type="curve" smooth="yes"/>
      <point x="568" y="0"/>
      <point x="568" y="10"/>
      <point x="564" y="10" type="curve" smooth="yes"/>
      <point x="515" y="10"/>
      <point x="511" y="25"/>
      <point x="491" y="72" type="curve" smooth="yes"/>
      <point x="299" y="541" type="line" smooth="yes"/>
      <point x="296" y="545"/>
      <point x="283" y="546"/>
      <point x="282" y="542" type="curve" smooth="yes"/>
      <point x="102" y="116" type="line" smooth="yes"/>
      <point x="70" y="45"/>
      <point x="25" y="10"/>
      <point x="-7" y="10" type="curve" smooth="yes"/>
      <point x="-12" y="10"/>
      <point x="-11" y="0"/>
      <point x="-7" y="0" type="curve" smooth="yes"/>
    </contour>
    <contour>
      <point x="361" y="252" type="line"/>
      <point x="354" y="276" type="line"/>
      <point x="178" y="276" type="line"/>
      <point x="169" y="252" type="line"/>
    </contour>
    <contour>
      <point x="415" y="10" type="move" name="ogonek"/>
    </contour>
    <contour>
      <point x="282" y="0" type="move" name="bottom"/>
    </contour>
    <contour>
      <point x="287" y="534" type="move" name="top"/>
    </contour>
  </outline>
</glyph>
<glyph name="B" format="1">
  <advance width="516"/>
  <unicode hex="0042"/>
  <outline>
    <contour>
      <point x="371" y="307"/>
      <point x="423" y="363"/>
      <point x="423" y="427" type="curve" smooth="yes"/>
      <point x="423" y="499"/>
      <point x="360" y="537"/>
      <point x="255" y="537" type="curve" smooth="yes"/>
      <point x="218" y="537"/>
      <point x="182" y="532"/>
      <point x="150" y="532" type="curve" smooth="yes"/>
      <point x="109" y="532"/>
      <point x="74" y="534"/>
      <point x="44" y="534" type="curve" smooth="yes"/>
      <point x="41" y="534"/>
      <point x="41" y="524"/>
      <point x="44" y="524" type="curve" smooth="yes"/>
      <point x="92" y="524"/>
      <point x="103" y="514"/>
      <point x="103" y="465" type="curve" smooth="yes"/>
      <point x="103" y="69" type="line" smooth="yes"/>
      <point x="103" y="20"/>
      <point x="91" y="10"/>
      <point x="43" y="10" type="curve" smooth="yes"/>
      <point x="40" y="10"/>
      <point x="40" y="0"/>
      <point x="43" y="0" type="curve" smooth="yes"/>
      <point x="73" y="0"/>
      <point x="109" y="2"/>
      <point x="150" y="2" type="curve" smooth="yes"/>
      <point x="188" y="2"/>
      <point x="242" y="-3"/>
      <point x="273" y="-3" type="curve" smooth="yes"/>
      <point x="389" y="-3"/>
      <point x="475" y="65"/>
      <point x="475" y="155" type="curve" smooth="yes"/>
      <point x="475" y="241"/>
      <point x="397" y="302"/>
      <point x="277" y="302" type="curve"/>
      <point x="268" y="286" type="line"/>
    </contour>
    <contour>
      <point x="298" y="520"/>
      <point x="330" y="485"/>
      <point x="330" y="419" type="curve" smooth="yes"/>
      <point x="330" y="353"/>
      <point x="297" y="300"/>
      <point x="233" y="300" type="curve" smooth="yes"/>
      <point x="230" y="300"/>
      <point x="204" y="300"/>
      <point x="167" y="302" type="curve"/>
      <point x="198" y="296" type="line"/>
      <point x="198" y="463" type="line" smooth="yes"/>
      <point x="198" y="507"/>
      <point x="209" y="520"/>
      <point x="242" y="520" type="curve" smooth="yes"/>
    </contour>
    <contour>
      <point x="205" y="15"/>
      <point x="198" y="33"/>
      <point x="198" y="69" type="curve" smooth="yes"/>
      <point x="198" y="282" type="line"/>
      <point x="170" y="272" type="line"/>
      <point x="201" y="277"/>
      <point x="231" y="277"/>
      <point x="243" y="277" type="curve" smooth="yes"/>
      <point x="336" y="277"/>
      <point x="375" y="218"/>
      <point x="375" y="134" type="curve" smooth="yes"/>
      <point x="375" y="58"/>
      <point x="341" y="15"/>
      <point x="258" y="15" type="curve" smooth="yes"/>
    </contour>
    <contour>
      <point x="167" y="302" type="move"/>
    </contour>
  </outline>
</glyph>
<glyph name="C" format="1">
  <advance width="543"/>
  <unicode hex="0043"/>
  <outline>
    <contour>
      <point x="376" y="-10"/>
      <point x="433" y="-3"/>
      <point x="488" y="16" type="curve" smooth="yes"/>
      <point x="499" y="20"/>
      <point x="499" y="22"/>
      <point x="501" y="36" type="curve" smooth="yes"/>
      <point x="506" y="134" type="line" smooth="yes"/>
      <point x="506" y="140"/>
      <point x="499" y="141"/>
      <point x="497" y="137" type="curve" smooth="yes"/>
      <point x="445" y="48"/>
      <point x="391" y="7"/>
      <point x="333" y="7" type="curve" smooth="yes"/>
      <point x="219" y="7"/>
      <point x="131" y="140"/>
      <point x="131" y="296" type="curve" smooth="yes"/>
      <point x="131" y="437"/>
      <point x="189" y="521"/>
      <point x="298" y="521" type="curve" smooth="yes"/>
      <point x="383" y="521"/>
      <point x="450" y="469"/>
      <point x="491" y="385" type="curve" smooth="yes"/>
      <point x="493" y="381"/>
      <point x="500" y="381"/>
      <point x="500" y="385" type="curve" smooth="yes"/>
      <point x="494" y="499" type="line" smooth="yes"/>
      <point x="494" y="511"/>
      <point x="492" y="514"/>
      <point x="483" y="519" type="curve" smooth="yes"/>
      <point x="449" y="533"/>
      <point x="385" y="544"/>
      <point x="332" y="544" type="curve" smooth="yes"/>
      <point x="174" y="544"/>
      <point x="31" y="444"/>
      <point x="31" y="268" type="curve" smooth="yes"/>
      <point x="31" y="140"/>
      <point x="107" y="-10"/>
      <point x="331" y="-10" type="curve" smooth="yes"/>
    </contour>
    <contour>
      <point x="320" y="534" type="move" name="top"/>
    </contour>
    <contour>
      <point x="317" y="0" type="move" name="bottom"/>
    </contour>
  </outline>
</glyph>
<glyph name="D" format="1">
  <advance width="588"/>
  <unicode hex="0044"/>
  <outline>
    <contour>
      <point x="417" y="-3"/>
      <point x="557" y="107"/>
      <point x="557" y="276" type="curve" smooth="yes"/>
      <point x="557" y="429"/>
      <point x="433" y="536"/>
      <point x="251" y="536" type="curve" smooth="yes"/>
      <point x="217" y="536"/>
      <point x="178" y="532"/>
      <point x="142" y="532" type="curve" smooth="yes"/>
      <point x="102" y="532"/>
      <point x="65" y="534"/>
      <point x="37" y="534" type="curve" smooth="yes"/>
      <point x="34" y="534"/>
      <point x="34" y="524"/>
      <point x="37" y="524" type="curve" smooth="yes"/>
      <point x="84" y="524"/>
      <point x="93" y="514"/>
      <point x="96" y="465" type="curve" smooth="yes"/>
      <point x="96" y="69" type="line" smooth="yes"/>
      <point x="97" y="20"/>
      <point x="87" y="10"/>
      <point x="37" y="10" type="curve" smooth="yes"/>
      <point x="34" y="10"/>
      <point x="34" y="0"/>
      <point x="37" y="0" type="curve" smooth="yes"/>
      <point x="66" y="0"/>
      <point x="102" y="2"/>
      <point x="144" y="2" type="curve" smooth="yes"/>
      <point x="182" y="2"/>
      <point x="234" y="-3"/>
      <point x="265" y="-3" type="curve" smooth="yes"/>
    </contour>
    <contour>
      <point x="203" y="14"/>
      <point x="190" y="34"/>
      <point x="189" y="79" type="curve" smooth="yes"/>
      <point x="189" y="463" type="line" smooth="yes"/>
      <point x="189" y="502"/>
      <point x="199" y="519"/>
      <point x="247" y="519" type="curve" smooth="yes"/>
      <point x="399" y="519"/>
      <point x="455" y="379"/>
      <point x="455" y="257" type="curve" smooth="yes"/>
      <point x="455" y="102"/>
      <point x="376" y="14"/>
      <point x="257" y="14" type="curve" smooth="yes"/>
    </contour>
    <contour>
      <point x="294" y="267" type="move" name="center"/>
    </contour>
    <contour>
      <point x="294" y="0" type="move" name="bottom"/>
    </contour>
    <contour>
      <point x="243" y="534" type="move" name="top"/>
    </contour>
  </outline>
</glyph>
<glyph name="E" format="1">
  <advance width="489"/>
  <unicode hex="0045"/>
  <outline>
    <contour>
      <point x="436" y="0" type="line" smooth="yes"/>
      <point x="446" y="0"/>
      <point x="449" y="3"/>
      <point x="449" y="13" type="curve" smooth="yes"/>
      <point x="449" y="51"/>
      <point x="452" y="101"/>
      <point x="457" y="134" type="curve" smooth="yes"/>
      <point x="458" y="137"/>
      <point x="448" y="139"/>
      <point x="446" y="136" type="curve" smooth="yes"/>
      <point x="414" y="64"/>
      <point x="348" y="18"/>
      <point x="274" y="18" type="curve" smooth="yes"/>
      <point x="250" y="18" type="line" smooth="yes"/>
      <point x="204" y="18"/>
      <point x="194" y="27"/>
      <point x="194" y="73" type="curve" smooth="yes"/>
      <point x="194" y="464" type="line" smooth="yes"/>
      <point x="196" y="508"/>
      <point x="199" y="516"/>
      <point x="251" y="516" type="curve" smooth="yes"/>
      <point x="268" y="516" type="line" smooth="yes"/>
      <point x="337" y="516"/>
      <point x="392" y="476"/>
      <point x="410" y="413" type="curve" smooth="yes"/>
      <point x="411" y="410"/>
      <point x="421" y="410"/>
      <point x="421" y="414" type="curve" smooth="yes"/>
      <point x="421" y="440"/>
      <point x="420" y="493"/>
      <point x="419" y="527" type="curve" smooth="yes"/>
      <point x="419" y="532"/>
      <point x="417" y="534"/>
      <point x="412" y="534" type="curve" smooth="yes"/>
      <point x="44" y="534" type="line" smooth="yes"/>
      <point x="41" y="534"/>
      <point x="41" y="524"/>
      <point x="45" y="524" type="curve" smooth="yes"/>
      <point x="92" y="524"/>
      <point x="102" y="514"/>
      <point x="102" y="465" type="curve" smooth="yes"/>
      <point x="102" y="69" type="line" smooth="yes"/>
      <point x="102" y="20"/>
      <point x="96" y="10"/>
      <point x="45" y="10" type="curve" smooth="yes"/>
      <point x="42" y="10"/>
      <point x="42" y="0"/>
      <point x="46" y="0" type="curve" smooth="yes"/>
    </contour>
    <contour>
      <point x="398" y="223"/>
      <point x="396" y="249"/>
      <point x="396" y="278" type="curve" smooth="yes"/>
      <point x="396" y="301"/>
      <point x="398" y="317"/>
      <point x="398" y="354" type="curve" smooth="yes"/>
      <point x="398" y="360"/>
      <point x="386" y="360"/>
      <point x="386" y="355" type="curve" smooth="yes"/>
      <point x="386" y="308"/>
      <point x="357" y="290"/>
      <point x="301" y="290" type="curve" smooth="yes"/>
      <point x="150" y="290" type="line"/>
      <point x="151" y="266" type="line" smooth="yes"/>
      <point x="299" y="266" type="line" smooth="yes"/>
      <point x="353" y="266"/>
      <point x="386" y="240"/>
      <point x="386" y="191" type="curve" smooth="yes"/>
      <point x="386" y="186"/>
      <point x="398" y="185"/>
      <point x="398" y="191" type="curve" smooth="yes"/>
    </contour>
    <contour>
      <point x="420" y="10" type="move" name="ogonek"/>
    </contour>
    <contour>
      <point x="265" y="0" type="move" name="bottom"/>
    </contour>
    <contour>
      <point x="252" y="534" type="move" name="top"/>
    </contour>
  </outline>
</glyph>
<glyph name="F" format="1">
  <advance width="447"/>
  <unicode hex="0046"/>
  <outline>
    <contour>
      <point x="69" y="0"/>
      <point x="105" y="2"/>
      <point x="144" y="2" type="curve" smooth="yes"/>
      <point x="216" y="2"/>
      <point x="260" y="0"/>
      <point x="283" y="0" type="curve" smooth="yes"/>
      <point x="287" y="0"/>
      <point x="287" y="10"/>
      <point x="283" y="10" type="curve" smooth="yes"/>
      <point x="209" y="10"/>
      <point x="191" y="21"/>
      <point x="191" y="73" type="curve" smooth="yes"/>
      <point x="191" y="464" type="line" smooth="yes"/>
      <point x="192" y="508"/>
      <point x="195" y="516"/>
      <point x="248" y="516" type="curve" smooth="yes"/>
      <point x="265" y="516" type="line" smooth="yes"/>
      <point x="334" y="516"/>
      <point x="389" y="476"/>
      <point x="406" y="413" type="curve" smooth="yes"/>
      <point x="408" y="410"/>
      <point x="417" y="410"/>
      <point x="417" y="414" type="curve" smooth="yes"/>
      <point x="417" y="440"/>
      <point x="416" y="493"/>
      <point x="415" y="527" type="curve" smooth="yes"/>
      <point x="415" y="532"/>
      <point x="414" y="534"/>
      <point x="409" y="534" type="curve" smooth="yes"/>
      <point x="41" y="534" type="line" smooth="yes"/>
      <point x="38" y="534"/>
      <point x="38" y="524"/>
      <point x="41" y="524" type="curve" smooth="yes"/>
      <point x="89" y="524"/>
      <point x="98" y="514"/>
      <point x="98" y="465" type="curve" smooth="yes"/>
      <point x="98" y="69" type="line" smooth="yes"/>
      <point x="98" y="20"/>
      <point x="92" y="10"/>
      <point x="41" y="10" type="curve" smooth="yes"/>
      <point x="38" y="10"/>
      <point x="38" y="0"/>
      <point x="41" y="0" type="curve" smooth="yes"/>
    </contour>
    <contour>
      <point x="374" y="213"/>
      <point x="372" y="238"/>
      <point x="372" y="267" type="curve" smooth="yes"/>
      <point x="372" y="290"/>
      <point x="373" y="309"/>
      <point x="373" y="345" type="curve" smooth="yes"/>
      <point x="373" y="350"/>
      <point x="362" y="350"/>
      <point x="362" y="345" type="curve" smooth="yes"/>
      <point x="361" y="298"/>
      <point x="334" y="280"/>
      <point x="278" y="280" type="curve" smooth="yes"/>
      <point x="149" y="280" type="line"/>
      <point x="150" y="256" type="line"/>
      <point x="276" y="256" type="line" smooth="yes"/>
      <point x="329" y="256"/>
      <point x="363" y="230"/>
      <point x="363" y="181" type="curve" smooth="yes"/>
      <point x="363" y="176"/>
      <point x="374" y="175"/>
      <point x="374" y="180" type="curve" smooth="yes"/>
    </contour>
  </outline>
</glyph>
<glyph name="H" format="1">
  <advance width="625"/>
  <unicode hex="0048"/>
  <outline>
    <contour>
      <point x="67" y="0"/>
      <point x="103" y="2"/>
      <point x="141" y="2" type="curve" smooth="yes"/>
      <point x="183" y="2"/>
      <point x="219" y="0"/>
      <point x="248" y="0" type="curve" smooth="yes"/>
      <point x="251" y="0"/>
      <point x="251" y="10"/>
      <point x="248" y="10" type="curve" smooth="yes"/>
      <point x="199" y="10"/>
      <point x="189" y="20"/>
      <point x="189" y="69" type="curve" smooth="yes"/>
      <point x="189" y="463" type="line" smooth="yes"/>
      <point x="190" y="511"/>
      <point x="196" y="524"/>
      <point x="247" y="524" type="curve" smooth="yes"/>
      <point x="250" y="524"/>
      <point x="250" y="534"/>
      <point x="247" y="534" type="curve" smooth="yes"/>
      <point x="219" y="534"/>
      <point x="181" y="532"/>
      <point x="141" y="532" type="curve" smooth="yes"/>
      <point x="102" y="532"/>
      <point x="66" y="534"/>
      <point x="39" y="534" type="curve" smooth="yes"/>
      <point x="36" y="534"/>
      <point x="36" y="524"/>
      <point x="39" y="524" type="curve" smooth="yes"/>
      <point x="86" y="524"/>
      <point x="97" y="513"/>
      <point x="96" y="465" type="curve" smooth="yes"/>
      <point x="96" y="69" type="line" smooth="yes"/>
      <point x="96" y="20"/>
      <point x="89" y="10"/>
      <point x="39" y="10" type="curve" smooth="yes"/>
      <point x="36" y="10"/>
      <point x="36" y="0"/>
      <point x="39" y="0" type="curve" smooth="yes"/>
    </contour>
    <contour>
      <point x="490" y="266" type="line"/>
      <point x="488" y="290" type="line"/>
      <point x="128" y="290" type="line"/>
      <point x="129" y="266" type="line"/>
    </contour>
    <contour>
      <point x="408" y="0"/>
      <point x="445" y="2"/>
      <point x="485" y="2" type="curve" smooth="yes"/>
      <point x="524" y="2"/>
      <point x="564" y="0"/>
      <point x="588" y="0" type="curve" smooth="yes"/>
      <point x="591" y="0"/>
      <point x="591" y="10"/>
      <point x="588" y="10" type="curve" smooth="yes"/>
      <point x="540" y="10"/>
      <point x="527" y="20"/>
      <point x="527" y="69" type="curve" smooth="yes"/>
      <point x="527" y="465" type="line" smooth="yes"/>
      <point x="529" y="513"/>
      <point x="536" y="524"/>
      <point x="586" y="524" type="curve" smooth="yes"/>
      <point x="589" y="524"/>
      <point x="589" y="534"/>
      <point x="586" y="534" type="curve" smooth="yes"/>
      <point x="558" y="534"/>
      <point x="520" y="532"/>
      <point x="481" y="532" type="curve" smooth="yes"/>
      <point x="441" y="532"/>
      <point x="405" y="534"/>
      <point x="378" y="534" type="curve" smooth="yes"/>
      <point x="374" y="534"/>
      <point x="375" y="524"/>
      <point x="378" y="524" type="curve" smooth="yes"/>
      <point x="425" y="524"/>
      <point x="434" y="511"/>
      <point x="434" y="463" type="curve" smooth="yes"/>
      <point x="435" y="69" type="line" smooth="yes"/>
      <point x="435" y="20"/>
      <point x="430" y="10"/>
      <point x="379" y="10" type="curve" smooth="yes"/>
      <point x="375" y="10"/>
      <point x="376" y="0"/>
      <point x="379" y="0" type="curve" smooth="yes"/>
    </contour>
    <contour>
      <point x="283" y="267" type="move" name="center"/>
    </contour>
    <contour>
      <point x="323" y="0" type="move" name="bottom"/>
    </contour>
    <contour>
      <point x="313" y="534" type="move" name="top"/>
    </contour>
  </outline>
</glyph>
<glyph name="I" format="1">
  <advance width="306"/>
  <unicode hex="0049"/>
  <outline>
    <contour>
      <point x="77" y="0"/>
      <point x="113" y="2"/>
      <point x="153" y="2" type="curve" smooth="yes"/>
      <point x="195" y="2"/>
      <point x="230" y="0"/>
      <point x="258" y="0" type="curve" smooth="yes"/>
      <point x="261" y="0"/>
      <point x="261" y="10"/>
      <point x="258" y="10" type="curve" smooth="yes"/>
      <point x="210" y="10"/>
      <point x="200" y="20"/>
      <point x="200" y="69" type="curve" smooth="yes"/>
      <point x="200" y="463" type="line" smooth="yes"/>
      <point x="201" y="512"/>
      <point x="207" y="524"/>
      <point x="258" y="524" type="curve" smooth="yes"/>
      <point x="261" y="524"/>
      <point x="261" y="534"/>
      <point x="258" y="534" type="curve" smooth="yes"/>
      <point x="230" y="534"/>
      <point x="195" y="532"/>
      <point x="151" y="532" type="curve" smooth="yes"/>
      <point x="111" y="532"/>
      <point x="76" y="534"/>
      <point x="48" y="534" type="curve" smooth="yes"/>
      <point x="44" y="534"/>
      <point x="45" y="524"/>
      <point x="48" y="524" type="curve" smooth="yes"/>
      <point x="95" y="524"/>
      <point x="106" y="514"/>
      <point x="106" y="465" type="curve" smooth="yes"/>
      <point x="106" y="69" type="line" smooth="yes"/>
      <point x="106" y="20"/>
      <point x="98" y="10"/>
      <point x="48" y="10" type="curve" smooth="yes"/>
      <point x="45" y="10"/>
      <point x="45" y="0"/>
      <point x="48" y="0" type="curve" smooth="yes"/>
    </contour>
    <contour>
      <point x="161" y="10" type="move" name="ogonek"/>
    </contour>
    <contour>
      <point x="153" y="0" type="move" name="bottom"/>
    </contour>
    <contour>
      <point x="150" y="534" type="move" name="top"/>
    </contour>
  </outline>
</glyph>
<glyph name="J" format="1">
  <advance width="288"/>
  <unicode hex="004A"/>
  <outline>
    <contour>
      <point x="146" y="-125"/>
      <point x="192" y="-77"/>
      <point x="192" y="57" type="curve" smooth="yes"/>
      <point x="192" y="463" type="line" smooth="yes"/>
      <point x="193" y="512"/>
      <point x="200" y="524"/>
      <point x="250" y="524" type="curve" smooth="yes"/>
      <point x="254" y="524"/>
      <point x="253" y="534"/>
      <point x="250" y="534" type="curve" smooth="yes"/>
      <point x="223" y="534"/>
      <point x="187" y="532"/>
      <point x="143" y="532" type="curve" smooth="yes"/>
      <point x="104" y="532"/>
      <point x="69" y="534"/>
      <point x="40" y="534" type="curve" smooth="yes"/>
      <point x="37" y="534"/>
      <point x="37" y="524"/>
      <point x="40" y="524" type="curve" smooth="yes"/>
      <point x="87" y="524"/>
      <point x="98" y="514"/>
      <point x="98" y="465" type="curve" smooth="yes"/>
      <point x="98" y="34" type="line" smooth="yes"/>
      <point x="100" y="-60"/>
      <point x="82" y="-124"/>
      <point x="30" y="-156" type="curve" smooth="yes"/>
      <point x="27" y="-158"/>
      <point x="32" y="-166"/>
      <point x="36" y="-165" type="curve" smooth="yes"/>
    </contour>
    <contour>
      <point x="139" y="534" type="move" name="top"/>
    </contour>
    <contour>
      <point x="108" y="0" type="move" name="bottom"/>
    </contour>
  </outline>
</glyph>
<glyph name="K" format="1">
  <advance width="577"/>
  <unicode hex="004B"/>
  <outline>
    <contour>
      <point x="65" y="0"/>
      <point x="101" y="2"/>
      <point x="139" y="2" type="curve" smooth="yes"/>
      <point x="187" y="2"/>
      <point x="214" y="0"/>
      <point x="246" y="0" type="curve" smooth="yes"/>
      <point x="249" y="0"/>
      <point x="249" y="10"/>
      <point x="246" y="10" type="curve" smooth="yes"/>
      <point x="188" y="10"/>
      <point x="189" y="20"/>
      <point x="189" y="69" type="curve" smooth="yes"/>
      <point x="189" y="463" type="line" smooth="yes"/>
      <point x="190" y="512"/>
      <point x="196" y="524"/>
      <point x="247" y="524" type="curve" smooth="yes"/>
      <point x="250" y="524"/>
      <point x="250" y="534"/>
      <point x="247" y="534" type="curve" smooth="yes"/>
      <point x="219" y="534"/>
      <point x="181" y="532"/>
      <point x="141" y="532" type="curve" smooth="yes"/>
      <point x="102" y="532"/>
      <point x="66" y="534"/>
      <point x="39" y="534" type="curve" smooth="yes"/>
      <point x="36" y="534"/>
      <point x="36" y="524"/>
      <point x="39" y="524" type="curve" smooth="yes"/>
      <point x="86" y="524"/>
      <point x="96" y="514"/>
      <point x="96" y="465" type="curve" smooth="yes"/>
      <point x="96" y="69" type="line" smooth="yes"/>
      <point x="96" y="20"/>
      <point x="87" y="10"/>
      <point x="37" y="10" type="curve" smooth="yes"/>
      <point x="34" y="10"/>
      <point x="34" y="0"/>
      <point x="37" y="0" type="curve" smooth="yes"/>
    </contour>
    <contour>
      <point x="507" y="0"/>
      <point x="532" y="0"/>
      <point x="579" y="0" type="curve" smooth="yes"/>
      <point x="583" y="0"/>
      <point x="582" y="10"/>
      <point x="579" y="10" type="curve" smooth="yes"/>
      <point x="534" y="10"/>
      <point x="520" y="27"/>
      <point x="402" y="185" type="curve" smooth="yes"/>
      <point x="279" y="351" type="line"/>
      <point x="218" y="292" type="line"/>
      <point x="333" y="137" type="line" smooth="yes"/>
      <point x="435" y="-2"/>
      <point x="394" y="0"/>
      <point x="492" y="0" type="curve" smooth="yes"/>
    </contour>
    <contour>
      <point x="158" y="222" type="line"/>
      <point x="378" y="443" type="line" smooth="yes"/>
      <point x="430" y="494"/>
      <point x="496" y="524"/>
      <point x="545" y="524" type="curve" smooth="yes"/>
      <point x="548" y="524"/>
      <point x="548" y="534"/>
      <point x="545" y="534" type="curve" smooth="yes"/>
      <point x="520" y="534"/>
      <point x="498" y="532"/>
      <point x="452" y="532" type="curve" smooth="yes"/>
      <point x="410" y="532"/>
      <point x="356" y="534"/>
      <point x="330" y="534" type="curve" smooth="yes"/>
      <point x="327" y="534"/>
      <point x="327" y="524"/>
      <point x="331" y="524" type="curve" smooth="yes"/>
      <point x="379" y="524"/>
      <point x="390" y="485"/>
      <point x="353" y="448" type="curve" smooth="yes"/>
      <point x="135" y="224" type="line"/>
    </contour>
    <contour>
      <point x="293" y="534" type="move" name="top"/>
    </contour>
    <contour>
      <point x="313" y="0" type="move" name="bottom"/>
    </contour>
  </outline>
</glyph>
<glyph name="L" format="1">
  <advance width="465"/>
  <unicode hex="004C"/>
  <outline>
    <contour>
      <point x="441" y="0" type="line" smooth="yes"/>
      <point x="450" y="0"/>
      <point x="454" y="3"/>
      <point x="454" y="13" type="curve" smooth="yes"/>
      <point x="454" y="54"/>
      <point x="457" y="109"/>
      <point x="461" y="144" type="curve" smooth="yes"/>
      <point x="461" y="147"/>
      <point x="451" y="150"/>
      <point x="449" y="146" type="curve" smooth="yes"/>
      <point x="411" y="58"/>
      <point x="350" y="18"/>
      <point x="258" y="18" type="curve" smooth="yes"/>
      <point x="234" y="18" type="line" smooth="yes"/>
      <point x="199" y="18"/>
      <point x="189" y="27"/>
      <point x="189" y="73" type="curve" smooth="yes"/>
      <point x="189" y="464" type="line" smooth="yes"/>
      <point x="190" y="513"/>
      <point x="196" y="524"/>
      <point x="247" y="524" type="curve" smooth="yes"/>
      <point x="250" y="524"/>
      <point x="250" y="534"/>
      <point x="247" y="534" type="curve" smooth="yes"/>
      <point x="219" y="534"/>
      <point x="181" y="532"/>
      <point x="141" y="532" type="curve" smooth="yes"/>
      <point x="102" y="532"/>
      <point x="66" y="534"/>
      <point x="39" y="534" type="curve" smooth="yes"/>
      <point x="36" y="534"/>
      <point x="36" y="524"/>
      <point x="39" y="524" type="curve" smooth="yes"/>
      <point x="86" y="524"/>
      <point x="96" y="514"/>
      <point x="96" y="465" type="curve" smooth="yes"/>
      <point x="96" y="69" type="line" smooth="yes"/>
      <point x="96" y="20"/>
      <point x="89" y="10"/>
      <point x="38" y="10" type="curve" smooth="yes"/>
      <point x="35" y="10"/>
      <point x="35" y="0"/>
      <point x="38" y="0" type="curve" smooth="yes"/>
    </contour>
    <contour>
      <point x="140" y="534" type="move" name="top"/>
    </contour>
    <contour>
      <point x="272" y="0" type="move" name="bottom"/>
    </contour>
    <contour>
      <point x="420" y="534" type="move" name="topright"/>
    </contour>
  </outline>
</glyph>
<glyph name="M" format="1">
  <advance width="687"/>
  <unicode hex="004D"/>
  <outline>
    <contour>
      <point x="487" y="0"/>
      <point x="522" y="2"/>
      <point x="563" y="2" type="curve" smooth="yes"/>
      <point x="604" y="2"/>
      <point x="640" y="0"/>
      <point x="667" y="0" type="curve" smooth="yes"/>
      <point x="671" y="0"/>
      <point x="670" y="10"/>
      <point x="667" y="10" type="curve" smooth="yes"/>
      <point x="620" y="10"/>
      <point x="611" y="20"/>
      <point x="609" y="69" type="curve" smooth="yes"/>
      <point x="597" y="467" type="line" smooth="yes"/>
      <point x="591" y="515"/>
      <point x="612" y="524"/>
      <point x="650" y="524" type="curve" smooth="yes"/>
      <point x="652" y="524"/>
      <point x="652" y="534"/>
      <point x="649" y="534" type="curve" smooth="yes"/>
      <point x="631" y="534"/>
      <point x="613" y="533"/>
      <point x="586" y="533" type="curve" smooth="yes"/>
      <point x="565" y="533"/>
      <point x="536" y="534"/>
      <point x="524" y="534" type="curve" smooth="yes"/>
      <point x="510" y="534"/>
      <point x="498" y="526"/>
      <point x="494" y="513" type="curve" smooth="yes"/>
      <point x="329" y="33" type="line"/>
      <point x="376" y="113" type="line"/>
      <point x="215" y="490" type="line" smooth="yes"/>
      <point x="199" y="527"/>
      <point x="192" y="534"/>
      <point x="178" y="534" type="curve" smooth="yes"/>
      <point x="163" y="534"/>
      <point x="134" y="533"/>
      <point x="98" y="533" type="curve" smooth="yes"/>
      <point x="73" y="533"/>
      <point x="55" y="534"/>
      <point x="40" y="534" type="curve" smooth="yes"/>
      <point x="37" y="534"/>
      <point x="37" y="524"/>
      <point x="40" y="524" type="curve" smooth="yes"/>
      <point x="68" y="524"/>
      <point x="108" y="517"/>
      <point x="133" y="463" type="curve" smooth="yes"/>
      <point x="327" y="7" type="line" smooth="yes"/>
      <point x="329" y="2"/>
      <point x="339" y="2"/>
      <point x="340" y="6" type="curve" smooth="yes"/>
      <point x="521" y="524" type="line"/>
      <point x="504" y="496" type="line"/>
      <point x="516" y="69" type="line" smooth="yes"/>
      <point x="519" y="20"/>
      <point x="510" y="10"/>
      <point x="458" y="10" type="curve" smooth="yes"/>
      <point x="455" y="10"/>
      <point x="455" y="0"/>
      <point x="458" y="0" type="curve" smooth="yes"/>
    </contour>
    <contour>
      <point x="61" y="0"/>
      <point x="89" y="2"/>
      <point x="118" y="2" type="curve" smooth="yes"/>
      <point x="151" y="2"/>
      <point x="180" y="0"/>
      <point x="203" y="0" type="curve" smooth="yes"/>
      <point x="206" y="0"/>
      <point x="206" y="10"/>
      <point x="203" y="10" type="curve" smooth="yes"/>
      <point x="159" y="10"/>
      <point x="133" y="49"/>
      <point x="135" y="111" type="curve" smooth="yes"/>
      <point x="137" y="513" type="line"/>
      <point x="112" y="515" type="line"/>
      <point x="108" y="109" type="line" smooth="yes"/>
      <point x="108" y="48"/>
      <point x="80" y="10"/>
      <point x="37" y="10" type="curve" smooth="yes"/>
      <point x="34" y="10"/>
      <point x="34" y="0"/>
      <point x="37" y="0" type="curve" smooth="yes"/>
    </contour>
    <contour>
      <point x="354" y="534" type="move" name="top"/>
    </contour>
    <contour>
      <point x="344" y="0" type="move" name="bottom"/>
    </contour>
  </outline>
</glyph>
<glyph name="N" format="1">
  <advance width="606"/>
  <unicode hex="004E"/>
  <outline>
    <contour>
      <point x="492" y="-16"/>
      <point x="514" y="-12"/>
      <point x="513" y="-6" type="curve" smooth="yes"/>
      <point x="496" y="122" type="line"/>
      <point x="202" y="490" type="line" smooth="yes"/>
      <point x="175" y="522"/>
      <point x="177" y="534"/>
      <point x="162" y="534" type="curve" smooth="yes"/>
      <point x="156" y="534"/>
      <point x="122" y="533"/>
      <point x="102" y="533" type="curve" smooth="yes"/>
      <point x="80" y="533"/>
      <point x="45" y="534"/>
      <point x="19" y="534" type="curve" smooth="yes"/>
      <point x="16" y="534"/>
      <point x="16" y="524"/>
      <point x="19" y="524" type="curve" smooth="yes"/>
      <point x="46" y="524"/>
      <point x="73" y="511"/>
      <point x="111" y="464" type="curve" smooth="yes"/>
      <point x="487" y="-8" type="line" smooth="yes"/>
    </contour>
    <contour>
      <point x="50" y="0"/>
      <point x="82" y="2"/>
      <point x="115" y="2" type="curve" smooth="yes"/>
      <point x="153" y="2"/>
      <point x="180" y="0"/>
      <point x="206" y="0" type="curve" smooth="yes"/>
      <point x="210" y="0"/>
      <point x="210" y="10"/>
      <point x="206" y="10" type="curve" smooth="yes"/>
      <point x="158" y="10"/>
      <point x="127" y="44"/>
      <point x="128" y="99" type="curve" smooth="yes"/>
      <point x="129" y="513" type="line"/>
      <point x="103" y="515" type="line"/>
      <point x="102" y="99" type="line" smooth="yes"/>
      <point x="101" y="44"/>
      <point x="70" y="10"/>
      <point x="23" y="10" type="curve" smooth="yes"/>
      <point x="19" y="10"/>
      <point x="19" y="0"/>
      <point x="23" y="0" type="curve" smooth="yes"/>
    </contour>
    <contour>
      <point x="514" y="435" type="line" smooth="yes"/>
      <point x="515" y="490"/>
      <point x="546" y="524"/>
      <point x="593" y="524" type="curve" smooth="yes"/>
      <point x="597" y="524"/>
      <point x="597" y="534"/>
      <point x="593" y="534" type="curve" smooth="yes"/>
      <point x="566" y="534"/>
      <point x="534" y="532"/>
      <point x="501" y="532" type="curve" smooth="yes"/>
      <point x="463" y="532"/>
      <point x="433" y="534"/>
      <point x="410" y="534" type="curve" smooth="yes"/>
      <point x="406" y="534"/>
      <point x="406" y="524"/>
      <point x="410" y="524" type="curve" smooth="yes"/>
      <point x="459" y="524"/>
      <point x="489" y="490"/>
      <point x="488" y="435" type="curve" smooth="yes"/>
      <point x="486" y="46" type="line"/>
      <point x="513" y="-6" type="line"/>
    </contour>
    <contour>
      <point x="301" y="534" type="move" name="top"/>
    </contour>
    <contour>
      <point x="323" y="0" type="move" name="bottom"/>
    </contour>
  </outline>
</glyph>
<glyph name="O" format="1">
  <advance width="628"/>
  <unicode hex="004F"/>
  <outline>
    <contour>
      <point x="458" y="-10"/>
      <point x="595" y="95"/>
      <point x="597" y="268" type="curve" smooth="yes"/>
      <point x="599" y="422"/>
      <point x="489" y="544"/>
      <point x="318" y="544" type="curve" smooth="yes"/>
      <point x="152" y="544"/>
      <point x="32" y="427"/>
      <point x="31" y="268" type="curve" smooth="yes"/>
      <point x="30" y="114"/>
      <point x="137" y="-10"/>
      <point x="304" y="-10" type="curve" smooth="yes"/>
    </contour>
    <contour>
      <point x="212" y="12"/>
      <point x="129" y="160"/>
      <point x="129" y="313" type="curve" smooth="yes"/>
      <point x="129" y="443"/>
      <point x="192" y="523"/>
      <point x="287" y="523" type="curve" smooth="yes"/>
      <point x="414" y="523"/>
      <point x="498" y="379"/>
      <point x="498" y="222" type="curve" smooth="yes"/>
      <point x="498" y="93"/>
      <point x="435" y="12"/>
      <point x="340" y="12" type="curve" smooth="yes"/>
    </contour>
    <contour>
      <point x="327" y="0" type="move" name="bottom"/>
    </contour>
    <contour>
      <point x="316" y="534" type="move" name="top"/>
    </contour>
    <contour>
      <point x="529" y="496" type="move" name="topright"/>
    </contour>
    <contour>
      <point x="309" y="267" type="move" name="center"/>
    </contour>
  </outline>
</glyph>
<glyph name="P" format="1">
  <advance width="491"/>
  <unicode hex="0050"/>
  <outline>
    <contour>
      <point x="67" y="0"/>
      <point x="105" y="2"/>
      <point x="144" y="2" type="curve" smooth="yes"/>
      <point x="185" y="2"/>
      <point x="220" y="0"/>
      <point x="248" y="0" type="curve" smooth="yes"/>
      <point x="252" y="0"/>
      <point x="251" y="10"/>
      <point x="248" y="10" type="curve" smooth="yes"/>
      <point x="201" y="10"/>
      <point x="191" y="20"/>
      <point x="191" y="69" type="curve" smooth="yes"/>
      <point x="190" y="463" type="line" smooth="yes"/>
      <point x="191" y="509"/>
      <point x="200" y="519"/>
      <point x="240" y="519" type="curve" smooth="yes"/>
      <point x="298" y="519"/>
      <point x="358" y="468"/>
      <point x="358" y="377" type="curve" smooth="yes"/>
      <point x="358" y="282"/>
      <point x="307" y="242"/>
      <point x="248" y="242" type="curve" smooth="yes"/>
      <point x="239" y="242"/>
      <point x="229" y="243"/>
      <point x="221" y="245" type="curve" smooth="yes"/>
      <point x="216" y="246"/>
      <point x="215" y="229"/>
      <point x="218" y="228" type="curve" smooth="yes"/>
      <point x="230" y="225"/>
      <point x="244" y="224"/>
      <point x="258" y="224" type="curve" smooth="yes"/>
      <point x="343" y="224"/>
      <point x="458" y="274"/>
      <point x="458" y="394" type="curve" smooth="yes"/>
      <point x="458" y="490"/>
      <point x="369" y="537"/>
      <point x="254" y="537" type="curve" smooth="yes"/>
      <point x="228" y="537"/>
      <point x="191" y="532"/>
      <point x="141" y="532" type="curve" smooth="yes"/>
      <point x="102" y="532"/>
      <point x="67" y="534"/>
      <point x="39" y="534" type="curve" smooth="yes"/>
      <point x="36" y="534"/>
      <point x="36" y="524"/>
      <point x="39" y="524" type="curve" smooth="yes"/>
      <point x="87" y="524"/>
      <point x="98" y="515"/>
      <point x="98" y="465" type="curve" smooth="yes"/>
      <point x="98" y="69" type="line" smooth="yes"/>
      <point x="98" y="20"/>
      <point x="90" y="10"/>
      <point x="39" y="10" type="curve" smooth="yes"/>
      <point x="36" y="10"/>
      <point x="36" y="0"/>
      <point x="39" y="0" type="curve" smooth="yes"/>
    </contour>
  </outline>
</glyph>
<glyph name="Q" format="1">
  <advance width="628"/>
  <unicode hex="0051"/>
  <outline>
    <contour>
      <point x="653" y="-171"/>
      <point x="675" y="-166"/>
      <point x="696" y="-158" type="curve" smooth="yes"/>
      <point x="699" y="-157"/>
      <point x="694" y="-148"/>
      <point x="691" y="-149" type="curve" smooth="yes"/>
      <point x="683" y="-151"/>
      <point x="675" y="-152"/>
      <point x="665" y="-152" type="curve" smooth="yes"/>
      <point x="618" y="-152"/>
      <point x="510" y="-72"/>
      <point x="451" y="41" type="curve"/>
      <point x="379" y="1" type="line"/>
      <point x="459" y="-111"/>
      <point x="552" y="-171"/>
      <point x="635" y="-171" type="curve" smooth="yes"/>
    </contour>
    <component base="O"/>
  </outline>
</glyph>
<glyph name="S" format="1">
  <advance width="432"/>
  <unicode hex="0053"/>
  <outline>
    <contour>
      <point x="144" y="495"/>
      <point x="176" y="525"/>
      <point x="222" y="525" type="curve" smooth="yes"/>
      <point x="313" y="525"/>
      <point x="349" y="408"/>
      <point x="362" y="380" type="curve" smooth="yes"/>
      <point x="364" y="376"/>
      <point x="372" y="379"/>
      <point x="372" y="382" type="curve" smooth="yes"/>
      <point x="372" y="508" type="line" smooth="yes"/>
      <point x="372" y="515"/>
      <point x="369" y="519"/>
      <point x="359" y="525" type="curve" smooth="yes"/>
      <point x="335" y="535"/>
      <point x="286" y="544"/>
      <point x="245" y="544" type="curve" smooth="yes"/>
      <point x="158" y="544"/>
      <point x="65" y="502"/>
      <point x="65" y="405" type="curve" smooth="yes"/>
      <point x="65" y="260"/>
      <point x="309" y="257"/>
      <point x="309" y="93" type="curve" smooth="yes"/>
      <point x="309" y="28"/>
      <point x="273" y="11"/>
      <point x="233" y="11" type="curve" smooth="yes"/>
      <point x="152" y="11"/>
      <point x="105" y="106"/>
      <point x="70" y="178" type="curve" smooth="yes"/>
      <point x="68" y="182"/>
      <point x="59" y="181"/>
      <point x="60" y="176" type="curve" smooth="yes"/>
      <point x="63" y="40" type="line" smooth="yes"/>
      <point x="64" y="30"/>
      <point x="66" y="27"/>
      <point x="71" y="24" type="curve" smooth="yes"/>
      <point x="91" y="7"/>
      <point x="160" y="-10"/>
      <point x="211" y="-10" type="curve" smooth="yes"/>
      <point x="316" y="-10"/>
      <point x="393" y="48"/>
      <point x="393" y="147" type="curve" smooth="yes"/>
      <point x="393" y="301"/>
      <point x="144" y="316"/>
      <point x="144" y="453" type="curve" smooth="yes"/>
    </contour>
    <contour>
      <point x="224" y="534" type="move" name="top"/>
    </contour>
    <contour>
      <point x="240" y="0" type="move" name="bottom"/>
    </contour>
  </outline>
</glyph>
<glyph name="T" format="1">
  <advance width="510"/>
  <unicode hex="0054"/>
  <outline>
    <contour>
      <point x="166" y="0"/>
      <point x="211" y="2"/>
      <point x="258" y="2" type="curve" smooth="yes"/>
      <point x="310" y="2"/>
      <point x="352" y="0"/>
      <point x="386" y="0" type="curve" smooth="yes"/>
      <point x="389" y="0"/>
      <point x="389" y="10"/>
      <point x="386" y="10" type="curve" smooth="yes"/>
      <point x="315" y="10"/>
      <point x="305" y="20"/>
      <point x="305" y="69" type="curve" smooth="yes"/>
      <point x="304" y="463" type="line" smooth="yes"/>
      <point x="305" y="504"/>
      <point x="306" y="515"/>
      <point x="340" y="515" type="curve" smooth="yes"/>
      <point x="351" y="515" type="line" smooth="yes"/>
      <point x="417" y="515"/>
      <point x="472" y="455"/>
      <point x="471" y="384" type="curve" smooth="yes"/>
      <point x="471" y="380"/>
      <point x="482" y="379"/>
      <point x="483" y="383" type="curve" smooth="yes"/>
      <point x="481" y="412"/>
      <point x="487" y="518"/>
      <point x="490" y="554" type="curve" smooth="yes"/>
      <point x="491" y="558"/>
      <point x="481" y="559"/>
      <point x="480" y="556" type="curve" smooth="yes"/>
      <point x="475" y="538"/>
      <point x="457" y="534"/>
      <point x="422" y="534" type="curve" smooth="yes"/>
      <point x="380" y="534"/>
      <point x="332" y="532"/>
      <point x="257" y="532" type="curve" smooth="yes"/>
      <point x="197" y="532"/>
      <point x="130" y="533"/>
      <point x="84" y="534" type="curve" smooth="yes"/>
      <point x="70" y="534"/>
      <point x="45" y="535"/>
      <point x="45" y="552" type="curve" smooth="yes"/>
      <point x="45" y="556"/>
      <point x="34" y="557"/>
      <point x="34" y="553" type="curve" smooth="yes"/>
      <point x="32" y="511"/>
      <point x="26" y="415"/>
      <point x="21" y="383" type="curve" smooth="yes"/>
      <point x="20" y="380"/>
      <point x="31" y="378"/>
      <point x="32" y="381" type="curve" smooth="yes"/>
      <point x="41" y="454"/>
      <point x="101" y="515"/>
      <point x="161" y="515" type="curve" smooth="yes"/>
      <point x="172" y="515" type="line" smooth="yes"/>
      <point x="203" y="515"/>
      <point x="213" y="505"/>
      <point x="212" y="465" type="curve" smooth="yes"/>
      <point x="212" y="69" type="line" smooth="yes"/>
      <point x="212" y="20"/>
      <point x="199" y="10"/>
      <point x="131" y="10" type="curve" smooth="yes"/>
      <point x="128" y="10"/>
      <point x="128" y="0"/>
      <point x="132" y="0" type="curve" smooth="yes"/>
    </contour>
    <contour>
      <point x="234" y="267" type="move" name="center"/>
    </contour>
    <contour>
      <point x="258" y="0" type="move" name="bottom"/>
    </contour>
    <contour>
      <point x="256" y="534" type="move" name="top"/>
    </contour>
  </outline>
</glyph>
<glyph name="U" format="1">
  <advance width="663"/>
  <unicode hex="0055"/>
  <outline>
    <contour>
      <point x="379" y="-10"/>
      <point x="442" y="22"/>
      <point x="520" y="105" type="curve"/>
      <point x="505" y="115" type="line"/>
      <point x="435" y="45"/>
      <point x="386" y="21"/>
      <point x="326" y="21" type="curve" smooth="yes"/>
      <point x="230" y="21"/>
      <point x="173" y="83"/>
      <point x="174" y="189" type="curve" smooth="yes"/>
      <point x="174" y="463" type="line" smooth="yes"/>
      <point x="175" y="512"/>
      <point x="182" y="524"/>
      <point x="233" y="524" type="curve" smooth="yes"/>
      <point x="236" y="524"/>
      <point x="236" y="534"/>
      <point x="232" y="534" type="curve" smooth="yes"/>
      <point x="205" y="534"/>
      <point x="166" y="532"/>
      <point x="127" y="532" type="curve" smooth="yes"/>
      <point x="87" y="532"/>
      <point x="52" y="534"/>
      <point x="25" y="534" type="curve" smooth="yes"/>
      <point x="21" y="534"/>
      <point x="21" y="524"/>
      <point x="25" y="524" type="curve" smooth="yes"/>
      <point x="72" y="524"/>
      <point x="82" y="514"/>
      <point x="82" y="465" type="curve" smooth="yes"/>
      <point x="82" y="159" type="line" smooth="yes"/>
      <point x="82" y="55"/>
      <point x="172" y="-10"/>
      <point x="293" y="-10" type="curve" smooth="yes"/>
    </contour>
    <contour>
      <point x="501" y="0"/>
      <point x="521" y="1"/>
      <point x="545" y="1" type="curve" smooth="yes"/>
      <point x="576" y="1"/>
      <point x="600" y="0"/>
      <point x="628" y="0" type="curve" smooth="yes"/>
      <point x="632" y="0"/>
      <point x="632" y="10"/>
      <point x="628" y="10" type="curve" smooth="yes"/>
      <point x="569" y="10"/>
      <point x="558" y="20"/>
      <point x="558" y="69" type="curve" smooth="yes"/>
      <point x="558" y="465" type="line" smooth="yes"/>
      <point x="558" y="514"/>
      <point x="567" y="524"/>
      <point x="617" y="524" type="curve" smooth="yes"/>
      <point x="620" y="524"/>
      <point x="620" y="534"/>
      <point x="616" y="534" type="curve" smooth="yes"/>
      <point x="589" y="534"/>
      <point x="550" y="532"/>
      <point x="512" y="532" type="curve" smooth="yes"/>
      <point x="472" y="532"/>
      <point x="436" y="534"/>
      <point x="408" y="534" type="curve" smooth="yes"/>
      <point x="405" y="534"/>
      <point x="405" y="524"/>
      <point x="409" y="524" type="curve" smooth="yes"/>
      <point x="456" y="524"/>
      <point x="466" y="512"/>
      <point x="465" y="463" type="curve" smooth="yes"/>
      <point x="466" y="16" type="line" smooth="yes"/>
      <point x="466" y="2"/>
      <point x="468" y="0"/>
      <point x="480" y="0" type="curve" smooth="yes"/>
    </contour>
    <contour>
      <point x="500" y="10" type="move" name="ogonek"/>
    </contour>
    <contour>
      <point x="320" y="534" type="move" name="top"/>
    </contour>
    <contour>
      <point x="646" y="534" type="move" name="topright"/>
    </contour>
    <contour>
      <point x="332" y="0" type="move" name="bottom"/>
    </contour>
  </outline>
</glyph>
<glyph name="V" format="1">
  <advance width="553"/>
  <unicode hex="0056"/>
  <outline>
    <contour>
      <point x="274" y="-3"/>
      <point x="295" y="-5"/>
      <point x="298" y="1" type="curve" smooth="yes"/>
      <point x="461" y="433" type="line" smooth="yes"/>
      <point x="491" y="514"/>
      <point x="524" y="524"/>
      <point x="560" y="524" type="curve" smooth="yes"/>
      <point x="565" y="524"/>
      <point x="565" y="534"/>
      <point x="560" y="534" type="curve" smooth="yes"/>
      <point x="528" y="534"/>
      <point x="512" y="532"/>
      <point x="478" y="532" type="curve" smooth="yes"/>
      <point x="426" y="532"/>
      <point x="400" y="534"/>
      <point x="366" y="534" type="curve" smooth="yes"/>
      <point x="362" y="534"/>
      <point x="362" y="524"/>
      <point x="366" y="524" type="curve" smooth="yes"/>
      <point x="420" y="524"/>
      <point x="452" y="492"/>
      <point x="431" y="435" type="curve" smooth="yes"/>
      <point x="277" y="13" type="line"/>
      <point x="326" y="97" type="line"/>
      <point x="155" y="472" type="line" smooth="yes"/>
      <point x="136" y="513"/>
      <point x="158" y="524"/>
      <point x="196" y="524" type="curve" smooth="yes"/>
      <point x="201" y="524"/>
      <point x="201" y="534"/>
      <point x="196" y="534" type="curve" smooth="yes"/>
      <point x="166" y="534"/>
      <point x="132" y="532"/>
      <point x="80" y="532" type="curve" smooth="yes"/>
      <point x="52" y="532"/>
      <point x="18" y="534"/>
      <point x="-10" y="534" type="curve" smooth="yes"/>
      <point x="-13" y="534"/>
      <point x="-13" y="524"/>
      <point x="-9" y="524" type="curve" smooth="yes"/>
      <point x="23" y="524"/>
      <point x="39" y="508"/>
      <point x="59" y="463" type="curve" smooth="yes"/>
      <point x="272" y="1" type="line" smooth="yes"/>
    </contour>
  </outline>
</glyph>
<glyph name="W" format="1">
  <advance width="773"/>
  <unicode hex="0057"/>
  <outline>
    <contour>
      <point x="494" y="-3"/>
      <point x="515" y="-5"/>
      <point x="518" y="1" type="curve" smooth="yes"/>
      <point x="681" y="433" type="line" smooth="yes"/>
      <point x="711" y="514"/>
      <point x="744" y="524"/>
      <point x="780" y="524" type="curve" smooth="yes"/>
      <point x="785" y="524"/>
      <point x="785" y="534"/>
      <point x="780" y="534" type="curve" smooth="yes"/>
      <point x="748" y="534"/>
      <point x="732" y="532"/>
      <point x="698" y="532" type="curve" smooth="yes"/>
      <point x="655" y="532"/>
      <point x="633" y="534"/>
      <point x="604" y="534" type="curve" smooth="yes"/>
      <point x="601" y="534"/>
      <point x="601" y="524"/>
      <point x="604" y="524" type="curve" smooth="yes"/>
      <point x="651" y="524"/>
      <point x="668" y="484"/>
      <point x="651" y="435" type="curve" smooth="yes"/>
      <point x="497" y="13" type="line"/>
      <point x="543" y="97" type="line"/>
      <point x="371" y="472" type="line" smooth="yes"/>
      <point x="350" y="519"/>
      <point x="353" y="524"/>
      <point x="372" y="524" type="curve" smooth="yes"/>
      <point x="377" y="524"/>
      <point x="377" y="534"/>
      <point x="372" y="534" type="curve" smooth="yes"/>
      <point x="353" y="534"/>
      <point x="333" y="532"/>
      <point x="300" y="532" type="curve" smooth="yes"/>
      <point x="275" y="532"/>
      <point x="246" y="534"/>
      <point x="221" y="534" type="curve" smooth="yes"/>
      <point x="218" y="534"/>
      <point x="218" y="524"/>
      <point x="222" y="524" type="curve" smooth="yes"/>
      <point x="247" y="524"/>
      <point x="259" y="508"/>
      <point x="279" y="463" type="curve" smooth="yes"/>
      <point x="492" y="1" type="line" smooth="yes"/>
    </contour>
    <contour>
      <point x="274" y="-3"/>
      <point x="295" y="-5"/>
      <point x="298" y="1" type="curve" smooth="yes"/>
      <point x="406" y="290" type="line"/>
      <point x="387" y="313" type="line"/>
      <point x="277" y="13" type="line"/>
      <point x="323" y="97" type="line"/>
      <point x="151" y="472" type="line" smooth="yes"/>
      <point x="133" y="512"/>
      <point x="152" y="524"/>
      <point x="174" y="524" type="curve" smooth="yes"/>
      <point x="179" y="524"/>
      <point x="179" y="534"/>
      <point x="174" y="534" type="curve" smooth="yes"/>
      <point x="150" y="534"/>
      <point x="122" y="532"/>
      <point x="80" y="532" type="curve" smooth="yes"/>
      <point x="52" y="532"/>
      <point x="18" y="534"/>
      <point x="-10" y="534" type="curve" smooth="yes"/>
      <point x="-13" y="534"/>
      <point x="-13" y="524"/>
      <point x="-9" y="524" type="curve" smooth="yes"/>
      <point x="23" y="524"/>
      <point x="39" y="508"/>
      <point x="59" y="463" type="curve" smooth="yes"/>
      <point x="272" y="1" type="line" smooth="yes"/>
    </contour>
    <contour>
      <point x="478" y="433" type="line" smooth="yes"/>
      <point x="509" y="513"/>
      <point x="531" y="524"/>
      <point x="563" y="524" type="curve" smooth="yes"/>
      <point x="567" y="524"/>
      <point x="567" y="534"/>
      <point x="562" y="534" type="curve" smooth="yes"/>
      <point x="536" y="534"/>
      <point x="523" y="532"/>
      <point x="494" y="532" type="curve" smooth="yes"/>
      <point x="462" y="532"/>
      <point x="447" y="534"/>
      <point x="426" y="534" type="curve" smooth="yes"/>
      <point x="423" y="534"/>
      <point x="423" y="524"/>
      <point x="426" y="524" type="curve" smooth="yes"/>
      <point x="464" y="524"/>
      <point x="470" y="496"/>
      <point x="447" y="435" type="curve" smooth="yes"/>
      <point x="403" y="313" type="line"/>
      <point x="423" y="290" type="line"/>
    </contour>
    <contour>
      <point x="382" y="534" type="move" name="top"/>
    </contour>
  </outline>
</glyph>
<glyph name="X" format="1">
  <advance width="536"/>
  <unicode hex="0058"/>
  <outline>
    <contour>
      <point x="346" y="0"/>
      <point x="401" y="2"/>
      <point x="443" y="2" type="curve" smooth="yes"/>
      <point x="476" y="2"/>
      <point x="506" y="0"/>
      <point x="531" y="0" type="curve" smooth="yes"/>
      <point x="535" y="0"/>
      <point x="535" y="10"/>
      <point x="531" y="10" type="curve" smooth="yes"/>
      <point x="491" y="10"/>
      <point x="468" y="27"/>
      <point x="442" y="71" type="curve" smooth="yes"/>
      <point x="184" y="490" type="line" smooth="yes"/>
      <point x="170" y="513"/>
      <point x="189" y="524"/>
      <point x="208" y="524" type="curve" smooth="yes"/>
      <point x="213" y="524"/>
      <point x="213" y="534"/>
      <point x="208" y="534" type="curve" smooth="yes"/>
      <point x="181" y="534"/>
      <point x="133" y="532"/>
      <point x="88" y="532" type="curve" smooth="yes"/>
      <point x="66" y="532"/>
      <point x="41" y="534"/>
      <point x="19" y="534" type="curve" smooth="yes"/>
      <point x="15" y="534"/>
      <point x="15" y="524"/>
      <point x="19" y="524" type="curve" smooth="yes"/>
      <point x="51" y="524"/>
      <point x="73" y="506"/>
      <point x="98" y="463" type="curve" smooth="yes"/>
      <point x="356" y="44" type="line" smooth="yes"/>
      <point x="371" y="20"/>
      <point x="340" y="10"/>
      <point x="320" y="10" type="curve" smooth="yes"/>
      <point x="315" y="10"/>
      <point x="314" y="0"/>
      <point x="320" y="0" type="curve" smooth="yes"/>
    </contour>
    <contour>
      <point x="18" y="0"/>
      <point x="43" y="2"/>
      <point x="68" y="2" type="curve" smooth="yes"/>
      <point x="110" y="2"/>
      <point x="162" y="0"/>
      <point x="190" y="0" type="curve" smooth="yes"/>
      <point x="194" y="0"/>
      <point x="194" y="10"/>
      <point x="190" y="10" type="curve" smooth="yes"/>
      <point x="140" y="10"/>
      <point x="109" y="29"/>
      <point x="148" y="88" type="curve" smooth="yes"/>
      <point x="254" y="249" type="line"/>
      <point x="233" y="265" type="line"/>
      <point x="126" y="105" type="line" smooth="yes"/>
      <point x="80" y="38"/>
      <point x="32" y="10"/>
      <point x="-5" y="10" type="curve" smooth="yes"/>
      <point x="-11" y="10"/>
      <point x="-10" y="0"/>
      <point x="-5" y="0" type="curve" smooth="yes"/>
    </contour>
    <contour>
      <point x="384" y="429" type="line" smooth="yes"/>
      <point x="431" y="496"/>
      <point x="478" y="524"/>
      <point x="515" y="524" type="curve" smooth="yes"/>
      <point x="521" y="524"/>
      <point x="521" y="534"/>
      <point x="515" y="534" type="curve" smooth="yes"/>
      <point x="492" y="534"/>
      <point x="468" y="532"/>
      <point x="443" y="532" type="curve" smooth="yes"/>
      <point x="401" y="532"/>
      <point x="348" y="534"/>
      <point x="320" y="534" type="curve" smooth="yes"/>
      <point x="316" y="534"/>
      <point x="316" y="524"/>
      <point x="321" y="524" type="curve" smooth="yes"/>
      <point x="370" y="524"/>
      <point x="401" y="505"/>
      <point x="362" y="446" type="curve" smooth="yes"/>
      <point x="257" y="285" type="line"/>
      <point x="278" y="269" type="line"/>
    </contour>
  </outline>
</glyph>
<glyph name="Y" format="1">
  <advance width="493"/>
  <unicode hex="0059"/>
  <outline>
    <contour>
      <point x="384" y="431" type="line" smooth="yes"/>
      <point x="420" y="495"/>
      <point x="455" y="524"/>
      <point x="494" y="524" type="curve" smooth="yes"/>
      <point x="499" y="524"/>
      <point x="499" y="534"/>
      <point x="494" y="534" type="curve" smooth="yes"/>
      <point x="471" y="534"/>
      <point x="458" y="532"/>
      <point x="432" y="532" type="curve" smooth="yes"/>
      <point x="391" y="532"/>
      <point x="349" y="534"/>
      <point x="320" y="534" type="curve" smooth="yes"/>
      <point x="316" y="534"/>
      <point x="316" y="524"/>
      <point x="321" y="524" type="curve" smooth="yes"/>
      <point x="366" y="524"/>
      <point x="384" y="490"/>
      <point x="364" y="450" type="curve" smooth="yes"/>
      <point x="257" y="241" type="line"/>
      <point x="276" y="227" type="line"/>
    </contour>
    <contour>
      <point x="166" y="0"/>
      <point x="205" y="2"/>
      <point x="252" y="2" type="curve" smooth="yes"/>
      <point x="297" y="2"/>
      <point x="335" y="0"/>
      <point x="366" y="0" type="curve" smooth="yes"/>
      <point x="370" y="0"/>
      <point x="370" y="10"/>
      <point x="366" y="10" type="curve" smooth="yes"/>
      <point x="306" y="10"/>
      <point x="298" y="20"/>
      <point x="298" y="69" type="curve" smooth="yes"/>
      <point x="298" y="273" type="line"/>
      <point x="204" y="265" type="line"/>
      <point x="205" y="69" type="line" smooth="yes"/>
      <point x="206" y="20"/>
      <point x="194" y="10"/>
      <point x="135" y="10" type="curve" smooth="yes"/>
      <point x="130" y="10"/>
      <point x="131" y="0"/>
      <point x="135" y="0" type="curve" smooth="yes"/>
    </contour>
    <contour>
      <point x="298" y="271" type="line"/>
      <point x="156" y="490" type="line" smooth="yes"/>
      <point x="138" y="516"/>
      <point x="147" y="524"/>
      <point x="189" y="524" type="curve" smooth="yes"/>
      <point x="193" y="524"/>
      <point x="195" y="534"/>
      <point x="191" y="534" type="curve" smooth="yes"/>
      <point x="168" y="534"/>
      <point x="118" y="532"/>
      <point x="83" y="532" type="curve" smooth="yes"/>
      <point x="53" y="532"/>
      <point x="19" y="534"/>
      <point x="-9" y="534" type="curve" smooth="yes"/>
      <point x="-13" y="534"/>
      <point x="-13" y="524"/>
      <point x="-8" y="524" type="curve" smooth="yes"/>
      <point x="17" y="524"/>
      <point x="41" y="505"/>
      <point x="68" y="463" type="curve" smooth="yes"/>
      <point x="221" y="232" type="line"/>
    </contour>
    <contour>
      <point x="251" y="534" type="move" name="top"/>
    </contour>
    <contour>
      <point x="253" y="0" type="move" name="bottom"/>
    </contour>
  </outline>
</glyph>
<glyph name="Z" format="1">
  <advance width="514"/>
  <unicode hex="005A"/>
  <outline>
    <contour>
      <point x="477" y="-2"/>
      <point x="480" y="2"/>
      <point x="480" y="7" type="curve" smooth="yes"/>
      <point x="492" y="130" type="line" smooth="yes"/>
      <point x="492" y="134"/>
      <point x="483" y="136"/>
      <point x="481" y="132" type="curve" smooth="yes"/>
      <point x="434" y="44"/>
      <point x="368" y="16"/>
      <point x="243" y="16" type="curve" smooth="yes"/>
      <point x="222" y="16"/>
      <point x="189" y="16"/>
      <point x="147" y="16" type="curve" smooth="yes"/>
      <point x="140" y="16"/>
      <point x="139" y="17"/>
      <point x="144" y="23" type="curve" smooth="yes"/>
      <point x="481" y="523" type="line" smooth="yes"/>
      <point x="483" y="527"/>
      <point x="480" y="534"/>
      <point x="475" y="534" type="curve" smooth="yes"/>
      <point x="314" y="534"/>
      <point x="215" y="534"/>
      <point x="141" y="534" type="curve" smooth="yes"/>
      <point x="98" y="534"/>
      <point x="92" y="537"/>
      <point x="95" y="557" type="curve" smooth="yes"/>
      <point x="96" y="560"/>
      <point x="84" y="563"/>
      <point x="83" y="560" type="curve" smooth="yes"/>
      <point x="45" y="401" type="line" smooth="yes"/>
      <point x="44" y="397"/>
      <point x="54" y="394"/>
      <point x="56" y="398" type="curve" smooth="yes"/>
      <point x="112" y="499"/>
      <point x="164" y="520"/>
      <point x="365" y="520" type="curve" smooth="yes"/>
      <point x="372" y="520"/>
      <point x="373" y="519"/>
      <point x="369" y="513" type="curve" smooth="yes"/>
      <point x="27" y="11" type="line" smooth="yes"/>
      <point x="25" y="7"/>
      <point x="27" y="0"/>
      <point x="32" y="0" type="curve" smooth="yes"/>
      <point x="166" y="0"/>
      <point x="339" y="0"/>
      <point x="472" y="-2" type="curve" smooth="yes"/>
    </contour>
    <contour>
      <point x="259" y="534" type="move" name="top"/>
    </contour>
    <contour>
      <point x="279" y="0" type="move" name="bottom"/>
    </contour>
  </outline>
</glyph>
<glyph name="backslash" format="1">
  <advance width="300"/>
  <unicode hex="005C"/>
  <outline>
    <contour>
      <point x="239" y="-146"/>
      <point x="279" y="-134"/>
      <point x="278" y="-130" type="curve" smooth="yes"/>
      <point x="62" y="624" type="line" smooth="yes"/>
      <point x="60" y="629"/>
      <point x="21" y="617"/>
      <point x="22" y="612" type="curve" smooth="yes"/>
      <point x="237" y="-141" type="line" smooth="yes"/>
    </contour>
  </outline>
</glyph>
<glyph name="grave" format="1">
  <advance width="142"/>
  <unicode hex="0060"/>
  <outline>
    <contour>
      <point x="105" y="403"/>
      <point x="113" y="404"/>
      <point x="112" y="407" type="curve" smooth="yes"/>
      <point x="96" y="612" type="line" smooth="yes"/>
      <point x="95" y="623"/>
      <point x="9" y="635"/>
      <point x="14" y="622" type="curve" smooth="yes"/>
      <point x="105" y="406" type="line" smooth="yes"/>
    </contour>
    <contour>
      <point x="103" y="330" type="move" name="_top"/>
    </contour>
  </outline>
</glyph>
<glyph name="b" format="1">
  <advance width="415"/>
  <unicode hex="0062"/>
  <outline>
    <contour>
      <point x="263" y="-11"/>
      <point x="391" y="67"/>
      <point x="391" y="215" type="curve" smooth="yes"/>
      <point x="390" y="289"/>
      <point x="351" y="341"/>
      <point x="292" y="341" type="curve" smooth="yes"/>
      <point x="192" y="341"/>
      <point x="118" y="230"/>
      <point x="122" y="99" type="curve"/>
      <point x="135" y="82" type="line"/>
      <point x="134" y="202"/>
      <point x="181" y="284"/>
      <point x="249" y="284" type="curve" smooth="yes"/>
      <point x="288" y="284"/>
      <point x="306" y="241"/>
      <point x="304" y="188" type="curve" smooth="yes"/>
      <point x="307" y="77"/>
      <point x="260" y="13"/>
      <point x="204" y="13" type="curve" smooth="yes"/>
      <point x="167" y="13"/>
      <point x="135" y="42"/>
      <point x="135" y="82" type="curve" smooth="yes"/>
      <point x="135" y="613" type="line" smooth="yes"/>
      <point x="135" y="616"/>
      <point x="127" y="622"/>
      <point x="123" y="620" type="curve" smooth="yes"/>
      <point x="-12" y="555" type="line" smooth="yes"/>
      <point x="-16" y="553"/>
      <point x="-13" y="543"/>
      <point x="-7" y="545" type="curve" smooth="yes"/>
      <point x="40" y="567"/>
      <point x="58" y="558"/>
      <point x="57" y="504" type="curve" smooth="yes"/>
      <point x="54" y="74" type="line" smooth="yes"/>
      <point x="53" y="22"/>
      <point x="100" y="-11"/>
      <point x="174" y="-11" type="curve" smooth="yes"/>
    </contour>
  </outline>
</glyph>
<glyph name="c" format="1">
  <advance width="318"/>
  <unicode hex="0063"/>
  <outline>
    <contour>
      <point x="227" y="-11"/>
      <point x="270" y="1"/>
      <point x="308" y="43" type="curve" smooth="yes"/>
      <point x="310" y="46"/>
      <point x="303" y="53"/>
      <point x="300" y="51" type="curve" smooth="yes"/>
      <point x="283" y="38"/>
      <point x="257" y="31"/>
      <point x="230" y="31" type="curve" smooth="yes"/>
      <point x="146" y="31"/>
      <point x="105" y="108"/>
      <point x="104" y="203" type="curve" smooth="yes"/>
      <point x="103" y="271"/>
      <point x="125" y="317"/>
      <point x="163" y="317" type="curve" smooth="yes"/>
      <point x="186" y="317"/>
      <point x="196" y="301"/>
      <point x="204" y="284" type="curve" smooth="yes"/>
      <point x="213" y="265"/>
      <point x="224" y="245"/>
      <point x="258" y="245" type="curve" smooth="yes"/>
      <point x="288" y="245"/>
      <point x="302" y="261"/>
      <point x="300" y="284" type="curve" smooth="yes"/>
      <point x="295" y="325"/>
      <point x="243" y="341"/>
      <point x="200" y="341" type="curve" smooth="yes"/>
      <point x="114" y="341"/>
      <point x="25" y="267"/>
      <point x="23" y="173" type="curve" smooth="yes"/>
      <point x="19" y="85"/>
      <point x="68" y="-11"/>
      <point x="181" y="-11" type="curve" smooth="yes"/>
    </contour>
    <contour>
      <point x="180" y="330" type="move" name="top"/>
    </contour>
    <contour>
      <point x="174" y="0" type="move" name="bottom"/>
    </contour>
  </outline>
</glyph>
<glyph name="e" format="1">
  <advance width="326"/>
  <unicode hex="0065"/>
  <outline>
    <contour>
      <point x="226" y="-10"/>
      <point x="276" y="5"/>
      <point x="315" y="47" type="curve" smooth="yes"/>
      <point x="317" y="50"/>
      <point x="310" y="56"/>
      <point x="307" y="54" type="curve" smooth="yes"/>
      <point x="283" y="34"/>
      <point x="251" y="27"/>
      <point x="227" y="27" type="curve" smooth="yes"/>
      <point x="149" y="27"/>
      <point x="109" y="99"/>
      <point x="107" y="186" type="curve" smooth="yes"/>
      <point x="106" y="260"/>
      <point x="127" y="318"/>
      <point x="170" y="318" type="curve" smooth="yes"/>
      <point x="193" y="318"/>
      <point x="207" y="302"/>
      <point x="207" y="277" type="curve" smooth="yes"/>
      <point x="210" y="222"/>
      <point x="149" y="196"/>
      <point x="62" y="183" type="curve"/>
      <point x="62" y="172" type="line"/>
      <point x="186" y="184"/>
      <point x="304" y="235"/>
      <point x="299" y="295" type="curve" smooth="yes"/>
      <point x="296" y="324"/>
      <point x="266" y="341"/>
      <point x="215" y="341" type="curve" smooth="yes"/>
      <point x="96" y="341"/>
      <point x="23" y="248"/>
      <point x="21" y="158" type="curve" smooth="yes"/>
      <point x="20" y="74"/>
      <point x="71" y="-10"/>
      <point x="180" y="-10" type="curve" smooth="yes"/>
    </contour>
    <contour>
      <point x="274" y="10" type="move" name="ogonek"/>
    </contour>
    <contour>
      <point x="208" y="0" type="move" name="bottom"/>
    </contour>
    <contour>
      <point x="183" y="330" type="move" name="top"/>
    </contour>
  </outline>
</glyph>
<glyph name="f" format="1">
  <advance width="242"/>
  <unicode hex="0066"/>
  <outline>
    <contour>
      <point x="120" y="-235"/>
      <point x="155" y="-182"/>
      <point x="150" y="-18" type="curve" smooth="yes"/>
      <point x="138" y="375" type="line" smooth="yes"/>
      <point x="134" y="525"/>
      <point x="144" y="603"/>
      <point x="185" y="603" type="curve" smooth="yes"/>
      <point x="222" y="603"/>
      <point x="200" y="536"/>
      <point x="266" y="536" type="curve" smooth="yes"/>
      <point x="289" y="536"/>
      <point x="304" y="548"/>
      <point x="304" y="572" type="curve" smooth="yes"/>
      <point x="304" y="599"/>
      <point x="268" y="621"/>
      <point x="212" y="621" type="curve" smooth="yes"/>
      <point x="93" y="621"/>
      <point x="53" y="565"/>
      <point x="58" y="357" type="curve" smooth="yes"/>
      <point x="58" y="328"/>
      <point x="43" y="321"/>
      <point x="3" y="321" type="curve" smooth="yes"/>
      <point x="-1" y="321"/>
      <point x="0" y="307"/>
      <point x="4" y="307" type="curve" smooth="yes"/>
      <point x="53" y="307"/>
      <point x="59" y="304"/>
      <point x="61" y="262" type="curve" smooth="yes"/>
      <point x="71" y="-40" type="line" smooth="yes"/>
      <point x="76" y="-190"/>
      <point x="76" y="-218"/>
      <point x="58" y="-218" type="curve" smooth="yes"/>
      <point x="25" y="-218"/>
      <point x="43" y="-152"/>
      <point x="-17" y="-152" type="curve" smooth="yes"/>
      <point x="-37" y="-152"/>
      <point x="-53" y="-163"/>
      <point x="-53" y="-186" type="curve" smooth="yes"/>
      <point x="-53" y="-213"/>
      <point x="-22" y="-235"/>
      <point x="34" y="-235" type="curve" smooth="yes"/>
    </contour>
    <contour>
      <point x="223" y="288"/>
      <point x="235" y="310"/>
      <point x="236" y="320" type="curve" smooth="yes"/>
      <point x="236" y="324"/>
      <point x="233" y="330"/>
      <point x="227" y="330" type="curve" smooth="yes"/>
      <point x="195" y="328"/>
      <point x="137" y="323"/>
      <point x="94" y="323" type="curve"/>
      <point x="96" y="300" type="line"/>
      <point x="140" y="300"/>
      <point x="179" y="294"/>
      <point x="210" y="290" type="curve" smooth="yes"/>
    </contour>
  </outline>
</glyph>
<glyph name="g" format="1">
  <advance width="389"/>
  <unicode hex="0067"/>
  <outline>
    <contour>
      <point x="273" y="-240"/>
      <point x="342" y="-163"/>
      <point x="343" y="-28" type="curve" smooth="yes"/>
      <point x="344" y="345" type="line" smooth="yes"/>
      <point x="344" y="350"/>
      <point x="335" y="351"/>
      <point x="333" y="348" type="curve" smooth="yes"/>
      <point x="321" y="325"/>
      <point x="298" y="308"/>
      <point x="277" y="305" type="curve"/>
      <point x="339" y="277" type="line"/>
      <point x="326" y="322"/>
      <point x="274" y="341"/>
      <point x="237" y="341" type="curve" smooth="yes"/>
      <point x="131" y="341"/>
      <point x="24" y="193"/>
      <point x="28" y="78" type="curve" smooth="yes"/>
      <point x="30" y="15"/>
      <point x="64" y="-11"/>
      <point x="107" y="-11" type="curve" smooth="yes"/>
      <point x="183" y="-11"/>
      <point x="260" y="70"/>
      <point x="278" y="210" type="curve"/>
      <point x="261" y="196" type="line" smooth="yes"/>
      <point x="261" y="-48" type="line" smooth="yes"/>
      <point x="259" y="-194"/>
      <point x="226" y="-223"/>
      <point x="185" y="-223" type="curve" smooth="yes"/>
      <point x="111" y="-223"/>
      <point x="137" y="-132"/>
      <point x="74" y="-132" type="curve" smooth="yes"/>
      <point x="54" y="-132"/>
      <point x="34" y="-143"/>
      <point x="35" y="-167" type="curve" smooth="yes"/>
      <point x="36" y="-210"/>
      <point x="86" y="-240"/>
      <point x="160" y="-240" type="curve" smooth="yes"/>
    </contour>
    <contour>
      <point x="127" y="51"/>
      <point x="104" y="75"/>
      <point x="103" y="147" type="curve" smooth="yes"/>
      <point x="103" y="235"/>
      <point x="137" y="299"/>
      <point x="196" y="299" type="curve" smooth="yes"/>
      <point x="237" y="299"/>
      <point x="262" y="268"/>
      <point x="261" y="216" type="curve" smooth="yes"/>
      <point x="260" y="152"/>
      <point x="215" y="51"/>
      <point x="156" y="51" type="curve" smooth="yes"/>
    </contour>
    <contour>
      <point x="219" y="330" type="move" name="top"/>
    </contour>
    <contour>
      <point x="92" y="0" type="move" name="bottom"/>
    </contour>
  </outline>
</glyph>
<glyph name="h" format="1">
  <advance width="418"/>
  <unicode hex="0068"/>
  <outline>
    <contour>
      <point x="367" y="-8"/>
      <point x="392" y="16"/>
      <point x="424" y="59" type="curve" smooth="yes"/>
      <point x="427" y="63"/>
      <point x="419" y="71"/>
      <point x="415" y="67" type="curve" smooth="yes"/>
      <point x="399" y="50"/>
      <point x="384" y="36"/>
      <point x="371" y="36" type="curve" smooth="yes"/>
      <point x="360" y="36"/>
      <point x="350" y="44"/>
      <point x="351" y="76" type="curve" smooth="yes"/>
      <point x="353" y="228" type="line" smooth="yes"/>
      <point x="353" y="305"/>
      <point x="323" y="341"/>
      <point x="270" y="341" type="curve" smooth="yes"/>
      <point x="173" y="341"/>
      <point x="114" y="214"/>
      <point x="117" y="11" type="curve"/>
      <point x="134" y="10" type="line"/>
      <point x="133" y="193"/>
      <point x="179" y="292"/>
      <point x="233" y="292" type="curve" smooth="yes"/>
      <point x="259" y="292"/>
      <point x="273" y="267"/>
      <point x="273" y="212" type="curve" smooth="yes"/>
      <point x="272" y="76" type="line" smooth="yes"/>
      <point x="271" y="21"/>
      <point x="288" y="-8"/>
      <point x="329" y="-8" type="curve" smooth="yes"/>
    </contour>
    <contour>
      <point x="117" y="-7"/>
      <point x="134" y="0"/>
      <point x="134" y="10" type="curve" smooth="yes"/>
      <point x="135" y="613" type="line" smooth="yes"/>
      <point x="135" y="616"/>
      <point x="127" y="622"/>
      <point x="123" y="620" type="curve" smooth="yes"/>
      <point x="-12" y="555" type="line" smooth="yes"/>
      <point x="-16" y="553"/>
      <point x="-12" y="543"/>
      <point x="-7" y="545" type="curve" smooth="yes"/>
      <point x="40" y="568"/>
      <point x="58" y="558"/>
      <point x="57" y="504" type="curve" smooth="yes"/>
      <point x="54" y="63" type="line" smooth="yes"/>
      <point x="54" y="33"/>
      <point x="51" y="4"/>
      <point x="52" y="0" type="curve" smooth="yes"/>
      <point x="53" y="-3"/>
      <point x="60" y="-7"/>
      <point x="84" y="-7" type="curve" smooth="yes"/>
    </contour>
    <contour>
      <point x="214" y="165" type="move" name="center"/>
    </contour>
    <contour>
      <point x="232" y="0" type="move" name="bottom"/>
    </contour>
    <contour>
      <point x="210" y="330" type="move" name="top"/>
    </contour>
  </outline>
</glyph>
<glyph name="m" format="1">
  <advance width="635"/>
  <unicode hex="006D"/>
  <outline>
    <contour>
      <point x="584" y="-8"/>
      <point x="609" y="16"/>
      <point x="641" y="59" type="curve" smooth="yes"/>
      <point x="644" y="63"/>
      <point x="636" y="70"/>
      <point x="632" y="66" type="curve" smooth="yes"/>
      <point x="615" y="49"/>
      <point x="601" y="36"/>
      <point x="588" y="36" type="curve" smooth="yes"/>
      <point x="577" y="36"/>
      <point x="567" y="44"/>
      <point x="568" y="76" type="curve" smooth="yes"/>
      <point x="569" y="228" type="line" smooth="yes"/>
      <point x="569" y="305"/>
      <point x="541" y="341"/>
      <point x="491" y="341" type="curve" smooth="yes"/>
      <point x="401" y="341"/>
      <point x="340" y="220"/>
      <point x="345" y="11" type="curve"/>
      <point x="361" y="10" type="line"/>
      <point x="359" y="199"/>
      <point x="406" y="292"/>
      <point x="453" y="292" type="curve" smooth="yes"/>
      <point x="477" y="292"/>
      <point x="490" y="267"/>
      <point x="490" y="212" type="curve" smooth="yes"/>
      <point x="489" y="76" type="line" smooth="yes"/>
      <point x="488" y="21"/>
      <point x="504" y="-8"/>
      <point x="546" y="-8" type="curve" smooth="yes"/>
    </contour>
    <contour>
      <point x="136" y="-7"/>
      <point x="152" y="0"/>
      <point x="152" y="10" type="curve" smooth="yes"/>
      <point x="153" y="264" type="line" smooth="yes"/>
      <point x="152" y="311"/>
      <point x="137" y="338"/>
      <point x="96" y="338" type="curve" smooth="yes"/>
      <point x="61" y="338"/>
      <point x="31" y="318"/>
      <point x="-4" y="269" type="curve" smooth="yes"/>
      <point x="-7" y="264"/>
      <point x="1" y="257"/>
      <point x="5" y="262" type="curve" smooth="yes"/>
      <point x="24" y="285"/>
      <point x="40" y="296"/>
      <point x="52" y="296" type="curve" smooth="yes"/>
      <point x="67" y="296"/>
      <point x="74" y="282"/>
      <point x="74" y="254" type="curve" smooth="yes"/>
      <point x="73" y="63" type="line" smooth="yes"/>
      <point x="73" y="33"/>
      <point x="70" y="4"/>
      <point x="71" y="0" type="curve" smooth="yes"/>
      <point x="72" y="-3"/>
      <point x="79" y="-7"/>
      <point x="103" y="-7" type="curve" smooth="yes"/>
    </contour>
    <contour>
      <point x="345" y="-7"/>
      <point x="361" y="0"/>
      <point x="361" y="10" type="curve" smooth="yes"/>
      <point x="362" y="230" type="line" smooth="yes"/>
      <point x="362" y="307"/>
      <point x="332" y="341"/>
      <point x="283" y="341" type="curve" smooth="yes"/>
      <point x="189" y="341"/>
      <point x="131" y="214"/>
      <point x="136" y="11" type="curve"/>
      <point x="152" y="10" type="line"/>
      <point x="150" y="189"/>
      <point x="194" y="292"/>
      <point x="244" y="292" type="curve" smooth="yes"/>
      <point x="268" y="292"/>
      <point x="284" y="269"/>
      <point x="283" y="214" type="curve" smooth="yes"/>
      <point x="282" y="63" type="line" smooth="yes"/>
      <point x="282" y="33"/>
      <point x="279" y="4"/>
      <point x="280" y="0" type="curve" smooth="yes"/>
      <point x="281" y="-3"/>
      <point x="288" y="-7"/>
      <point x="312" y="-7" type="curve" smooth="yes"/>
    </contour>
    <contour>
      <point x="317" y="330" type="move" name="top"/>
    </contour>
    <contour>
      <point x="323" y="0" type="move" name="bottom"/>
    </contour>
  </outline>
</glyph>
<glyph name="n" format="1">
  <advance width="437"/>
  <unicode hex="006E"/>
  <outline>
    <contour>
      <point x="386" y="-8"/>
      <point x="411" y="16"/>
      <point x="443" y="59" type="curve" smooth="yes"/>
      <point x="446" y="63"/>
      <point x="437" y="70"/>
      <point x="433" y="66" type="curve" smooth="yes"/>
      <point x="416" y="48"/>
      <point x="403" y="36"/>
      <point x="390" y="36" type="curve" smooth="yes"/>
      <point x="379" y="36"/>
      <point x="369" y="44"/>
      <point x="370" y="76" type="curve" smooth="yes"/>
      <point x="371" y="228" type="line" smooth="yes"/>
      <point x="371" y="305"/>
      <point x="342" y="341"/>
      <point x="289" y="341" type="curve" smooth="yes"/>
      <point x="192" y="341"/>
      <point x="133" y="214"/>
      <point x="136" y="11" type="curve"/>
      <point x="152" y="10" type="line"/>
      <point x="151" y="193"/>
      <point x="197" y="292"/>
      <point x="251" y="292" type="curve" smooth="yes"/>
      <point x="278" y="292"/>
      <point x="292" y="267"/>
      <point x="292" y="212" type="curve" smooth="yes"/>
      <point x="291" y="76" type="line" smooth="yes"/>
      <point x="290" y="21"/>
      <point x="306" y="-8"/>
      <point x="348" y="-8" type="curve" smooth="yes"/>
    </contour>
    <contour>
      <point x="136" y="-7"/>
      <point x="152" y="0"/>
      <point x="152" y="10" type="curve" smooth="yes"/>
      <point x="153" y="264" type="line" smooth="yes"/>
      <point x="152" y="311"/>
      <point x="137" y="338"/>
      <point x="96" y="338" type="curve" smooth="yes"/>
      <point x="61" y="338"/>
      <point x="31" y="318"/>
      <point x="-4" y="269" type="curve" smooth="yes"/>
      <point x="-8" y="265"/>
      <point x="2" y="257"/>
      <point x="5" y="262" type="curve" smooth="yes"/>
      <point x="24" y="285"/>
      <point x="40" y="296"/>
      <point x="52" y="296" type="curve" smooth="yes"/>
      <point x="67" y="296"/>
      <point x="74" y="282"/>
      <point x="74" y="254" type="curve" smooth="yes"/>
      <point x="73" y="63" type="line" smooth="yes"/>
      <point x="73" y="33"/>
      <point x="70" y="4"/>
      <point x="71" y="0" type="curve" smooth="yes"/>
      <point x="72" y="-3"/>
      <point x="79" y="-7"/>
      <point x="103" y="-7" type="curve" smooth="yes"/>
    </contour>
    <contour>
      <point x="213" y="330" type="move" name="top"/>
    </contour>
    <contour>
      <point x="240" y="0" type="move" name="bottom"/>
    </contour>
  </outline>
</glyph>
<glyph name="o" format="1">
  <advance width="374"/>
  <unicode hex="006F"/>
  <outline>
    <contour>
      <point x="266" y="-12"/>
      <point x="351" y="48"/>
      <point x="354" y="165" type="curve" smooth="yes"/>
      <point x="356" y="264"/>
      <point x="300" y="341"/>
      <point x="195" y="341" type="curve" smooth="yes"/>
      <point x="95" y="341"/>
      <point x="24" y="269"/>
      <point x="21" y="165" type="curve" smooth="yes"/>
      <point x="20" y="71"/>
      <point x="73" y="-12"/>
      <point x="178" y="-12" type="curve" smooth="yes"/>
    </contour>
    <contour>
      <point x="151" y="9"/>
      <point x="108" y="98"/>
      <point x="107" y="202" type="curve" smooth="yes"/>
      <point x="107" y="283"/>
      <point x="131" y="321"/>
      <point x="168" y="321" type="curve" smooth="yes"/>
      <point x="224" y="321"/>
      <point x="269" y="230"/>
      <point x="268" y="127" type="curve" smooth="yes"/>
      <point x="267" y="56"/>
      <point x="247" y="9"/>
      <point x="206" y="9" type="curve" smooth="yes"/>
    </contour>
    <contour>
      <point x="196" y="0" type="move" name="bottom"/>
    </contour>
    <contour>
      <point x="185" y="330" type="move" name="top"/>
    </contour>
    <contour>
      <point x="283" y="330" type="move" name="topright"/>
    </contour>
    <contour>
      <point x="188" y="165" type="move" name="center"/>
    </contour>
  </outline>
</glyph>
<glyph name="p" format="1">
  <advance width="377"/>
  <unicode hex="0070"/>
  <outline>
    <contour>
      <point x="181" y="-209" type="line" smooth="yes"/>
      <point x="187" y="-208"/>
      <point x="184" y="-198"/>
      <point x="179" y="-199" type="curve" smooth="yes"/>
      <point x="135" y="-205"/>
      <point x="125" y="-197"/>
      <point x="125" y="-152" type="curve" smooth="yes"/>
      <point x="125" y="395" type="line" smooth="yes"/>
      <point x="125" y="401"/>
      <point x="115" y="401"/>
      <point x="115" y="397" type="curve" smooth="yes"/>
      <point x="112" y="362"/>
      <point x="45" y="336"/>
      <point x="45" y="330" type="curve" smooth="yes"/>
      <point x="43" y="-158" type="line" smooth="yes"/>
      <point x="43" y="-209"/>
      <point x="40" y="-219"/>
      <point x="6" y="-225" type="curve" smooth="yes"/>
      <point x="2" y="-226"/>
      <point x="4" y="-236"/>
      <point x="9" y="-235" type="curve" smooth="yes"/>
    </contour>
    <contour>
      <point x="270" y="-1"/>
      <point x="349" y="94"/>
      <point x="349" y="207" type="curve" smooth="yes"/>
      <point x="349" y="291"/>
      <point x="306" y="336"/>
      <point x="228" y="336" type="curve" smooth="yes"/>
      <point x="149" y="336"/>
      <point x="63" y="291"/>
      <point x="-6" y="231" type="curve" smooth="yes"/>
      <point x="-11" y="227"/>
      <point x="-3" y="218"/>
      <point x="2" y="222" type="curve" smooth="yes"/>
      <point x="66" y="269"/>
      <point x="118" y="294"/>
      <point x="171" y="294" type="curve" smooth="yes"/>
      <point x="250" y="294"/>
      <point x="270" y="237"/>
      <point x="270" y="154" type="curve" smooth="yes"/>
      <point x="270" y="76"/>
      <point x="252" y="25"/>
      <point x="187" y="25" type="curve" smooth="yes"/>
      <point x="152" y="25"/>
      <point x="110" y="40"/>
      <point x="79" y="60" type="curve"/>
      <point x="80" y="7" type="line"/>
      <point x="98" y="3"/>
      <point x="134" y="-1"/>
      <point x="157" y="-1" type="curve" smooth="yes"/>
    </contour>
  </outline>
</glyph>
<glyph name="q" format="1">
  <advance width="386"/>
  <unicode hex="0071"/>
  <outline>
    <contour>
      <point x="411" y="-214" type="line" smooth="yes"/>
      <point x="417" y="-213"/>
      <point x="413" y="-203"/>
      <point x="409" y="-204" type="curve" smooth="yes"/>
      <point x="356" y="-211"/>
      <point x="343" y="-195"/>
      <point x="343" y="-152" type="curve" smooth="yes"/>
      <point x="346" y="345" type="line" smooth="yes"/>
      <point x="347" y="348"/>
      <point x="336" y="351"/>
      <point x="335" y="348" type="curve" smooth="yes"/>
      <point x="323" y="325"/>
      <point x="300" y="308"/>
      <point x="279" y="305" type="curve"/>
      <point x="342" y="277" type="line"/>
      <point x="328" y="322"/>
      <point x="277" y="341"/>
      <point x="239" y="341" type="curve" smooth="yes"/>
      <point x="125" y="341"/>
      <point x="29" y="225"/>
      <point x="29" y="88" type="curve" smooth="yes"/>
      <point x="29" y="18"/>
      <point x="70" y="-11"/>
      <point x="120" y="-11" type="curve" smooth="yes"/>
      <point x="189" y="-11"/>
      <point x="260" y="53"/>
      <point x="280" y="163" type="curve"/>
      <point x="263" y="149" type="line" smooth="yes"/>
      <point x="263" y="-158" type="line" smooth="yes"/>
      <point x="263" y="-211"/>
      <point x="259" y="-220"/>
      <point x="217" y="-225" type="curve" smooth="yes"/>
      <point x="213" y="-225"/>
      <point x="214" y="-236"/>
      <point x="219" y="-235" type="curve" smooth="yes"/>
    </contour>
    <contour>
      <point x="122" y="51"/>
      <point x="100" y="104"/>
      <point x="100" y="161" type="curve" smooth="yes"/>
      <point x="100" y="227"/>
      <point x="129" y="299"/>
      <point x="186" y="299" type="curve" smooth="yes"/>
      <point x="238" y="299"/>
      <point x="263" y="267"/>
      <point x="263" y="198" type="curve" smooth="yes"/>
      <point x="263" y="126"/>
      <point x="232" y="51"/>
      <point x="167" y="51" type="curve" smooth="yes"/>
    </contour>
  </outline>
</glyph>
<glyph name="r" format="1">
  <advance width="324"/>
  <unicode hex="0072"/>
  <outline>
    <contour>
      <point x="150" y="102"/>
      <point x="176" y="267"/>
      <point x="211" y="267" type="curve" smooth="yes"/>
      <point x="228" y="267"/>
      <point x="240" y="247"/>
      <point x="264" y="247" type="curve" smooth="yes"/>
      <point x="288" y="247"/>
      <point x="309" y="279"/>
      <point x="308" y="296" type="curve" smooth="yes"/>
      <point x="307" y="320"/>
      <point x="268" y="339"/>
      <point x="242" y="339" type="curve" smooth="yes"/>
      <point x="163" y="339"/>
      <point x="141" y="163"/>
      <point x="140" y="11" type="curve"/>
      <point x="150" y="10" type="line"/>
    </contour>
    <contour>
      <point x="134" y="-7"/>
      <point x="150" y="0"/>
      <point x="150" y="10" type="curve" smooth="yes"/>
      <point x="151" y="264" type="line" smooth="yes"/>
      <point x="150" y="311"/>
      <point x="135" y="338"/>
      <point x="94" y="338" type="curve" smooth="yes"/>
      <point x="59" y="338"/>
      <point x="29" y="318"/>
      <point x="-6" y="269" type="curve" smooth="yes"/>
      <point x="-10" y="264"/>
      <point x="-1" y="257"/>
      <point x="3" y="262" type="curve" smooth="yes"/>
      <point x="21" y="285"/>
      <point x="38" y="296"/>
      <point x="50" y="296" type="curve" smooth="yes"/>
      <point x="64" y="296"/>
      <point x="72" y="282"/>
      <point x="72" y="254" type="curve" smooth="yes"/>
      <point x="71" y="63" type="line" smooth="yes"/>
      <point x="71" y="33"/>
      <point x="68" y="4"/>
      <point x="69" y="0" type="curve" smooth="yes"/>
      <point x="70" y="-3"/>
      <point x="76" y="-7"/>
      <point x="101" y="-7" type="curve" smooth="yes"/>
    </contour>
    <contour>
      <point x="157" y="330" type="move" name="top"/>
    </contour>
    <contour>
      <point x="118" y="0" type="move" name="bottom"/>
    </contour>
  </outline>
</glyph>
<glyph name="s" format="1">
  <advance width="287"/>
  <unicode hex="0073"/>
  <outline>
    <contour>
      <point x="214" y="-9"/>
      <point x="258" y="49"/>
      <point x="259" y="92" type="curve" smooth="yes"/>
      <point x="259" y="185"/>
      <point x="90" y="207"/>
      <point x="89" y="288" type="curve" smooth="yes"/>
      <point x="89" y="300"/>
      <point x="95" y="315"/>
      <point x="118" y="315" type="curve" smooth="yes"/>
      <point x="174" y="315"/>
      <point x="161" y="252"/>
      <point x="221" y="252" type="curve" smooth="yes"/>
      <point x="238" y="252"/>
      <point x="257" y="264"/>
      <point x="255" y="287" type="curve" smooth="yes"/>
      <point x="254" y="319"/>
      <point x="212" y="339"/>
      <point x="152" y="339" type="curve" smooth="yes"/>
      <point x="78" y="339"/>
      <point x="30" y="293"/>
      <point x="30" y="252" type="curve" smooth="yes"/>
      <point x="28" y="158"/>
      <point x="194" y="144"/>
      <point x="199" y="54" type="curve" smooth="yes"/>
      <point x="200" y="31"/>
      <point x="193" y="20"/>
      <point x="170" y="20" type="curve" smooth="yes"/>
      <point x="116" y="20"/>
      <point x="106" y="87"/>
      <point x="58" y="87" type="curve" smooth="yes"/>
      <point x="37" y="87"/>
      <point x="21" y="75"/>
      <point x="21" y="52" type="curve" smooth="yes"/>
      <point x="23" y="18"/>
      <point x="74" y="-9"/>
      <point x="130" y="-9" type="curve" smooth="yes"/>
    </contour>
    <contour>
      <point x="141" y="330" type="move" name="top"/>
    </contour>
    <contour>
      <point x="140" y="0" type="move" name="bottom"/>
    </contour>
  </outline>
</glyph>
<glyph name="t" format="1">
  <advance width="273"/>
  <unicode hex="0074"/>
  <outline>
    <contour>
      <point x="191" y="-10"/>
      <point x="228" y="10"/>
      <point x="277" y="61" type="curve" smooth="yes"/>
      <point x="280" y="64"/>
      <point x="272" y="71"/>
      <point x="270" y="69" type="curve" smooth="yes"/>
      <point x="245" y="48"/>
      <point x="219" y="37"/>
      <point x="195" y="37" type="curve" smooth="yes"/>
      <point x="156" y="37"/>
      <point x="137" y="55"/>
      <point x="137" y="95" type="curve" smooth="yes"/>
      <point x="138" y="393" type="line" smooth="yes"/>
      <point x="138" y="398"/>
      <point x="121" y="401"/>
      <point x="119" y="396" type="curve" smooth="yes"/>
      <point x="104" y="357"/>
      <point x="74" y="321"/>
      <point x="14" y="321" type="curve" smooth="yes"/>
      <point x="10" y="321"/>
      <point x="11" y="307"/>
      <point x="15" y="307" type="curve" smooth="yes"/>
      <point x="50" y="307"/>
      <point x="59" y="299"/>
      <point x="58" y="262" type="curve" smooth="yes"/>
      <point x="57" y="80" type="line" smooth="yes"/>
      <point x="56" y="5"/>
      <point x="103" y="-10"/>
      <point x="148" y="-10" type="curve" smooth="yes"/>
    </contour>
    <contour>
      <point x="246" y="286"/>
      <point x="257" y="310"/>
      <point x="258" y="320" type="curve" smooth="yes"/>
      <point x="258" y="324"/>
      <point x="255" y="330"/>
      <point x="249" y="330" type="curve" smooth="yes"/>
      <point x="219" y="328"/>
      <point x="156" y="323"/>
      <point x="116" y="323" type="curve"/>
      <point x="119" y="298" type="line"/>
      <point x="159" y="298"/>
      <point x="205" y="292"/>
      <point x="232" y="288" type="curve" smooth="yes"/>
    </contour>
    <contour>
      <point x="116" y="165" type="move" name="center"/>
    </contour>
    <contour>
      <point x="146" y="0" type="move" name="bottom"/>
    </contour>
    <contour>
      <point x="160" y="310" type="move" name="topright"/>
    </contour>
  </outline>
</glyph>
<glyph name="u" format="1">
  <advance width="438"/>
  <unicode hex="0075"/>
  <outline>
    <contour>
      <point x="246" y="-11"/>
      <point x="305" y="116"/>
      <point x="302" y="319" type="curve"/>
      <point x="285" y="320" type="line"/>
      <point x="287" y="137"/>
      <point x="240" y="38"/>
      <point x="186" y="38" type="curve" smooth="yes"/>
      <point x="160" y="38"/>
      <point x="145" y="63"/>
      <point x="146" y="118" type="curve" smooth="yes"/>
      <point x="149" y="254" type="line" smooth="yes"/>
      <point x="151" y="313"/>
      <point x="128" y="338"/>
      <point x="91" y="338" type="curve" smooth="yes"/>
      <point x="54" y="338"/>
      <point x="29" y="314"/>
      <point x="-3" y="271" type="curve" smooth="yes"/>
      <point x="-6" y="267"/>
      <point x="3" y="260"/>
      <point x="7" y="264" type="curve" smooth="yes"/>
      <point x="24" y="281"/>
      <point x="37" y="294"/>
      <point x="50" y="294" type="curve" smooth="yes"/>
      <point x="61" y="294"/>
      <point x="71" y="286"/>
      <point x="70" y="254" type="curve" smooth="yes"/>
      <point x="67" y="102" type="line" smooth="yes"/>
      <point x="65" y="25"/>
      <point x="96" y="-11"/>
      <point x="149" y="-11" type="curve" smooth="yes"/>
    </contour>
    <contour>
      <point x="377" y="-8"/>
      <point x="406" y="12"/>
      <point x="442" y="61" type="curve" smooth="yes"/>
      <point x="446" y="65"/>
      <point x="436" y="73"/>
      <point x="433" y="68" type="curve" smooth="yes"/>
      <point x="414" y="45"/>
      <point x="398" y="34"/>
      <point x="386" y="34" type="curve" smooth="yes"/>
      <point x="371" y="34"/>
      <point x="364" y="48"/>
      <point x="364" y="76" type="curve" smooth="yes"/>
      <point x="365" y="267" type="line" smooth="yes"/>
      <point x="365" y="297"/>
      <point x="368" y="326"/>
      <point x="367" y="330" type="curve" smooth="yes"/>
      <point x="366" y="333"/>
      <point x="359" y="337"/>
      <point x="335" y="337" type="curve" smooth="yes"/>
      <point x="302" y="337"/>
      <point x="285" y="330"/>
      <point x="285" y="320" type="curve" smooth="yes"/>
      <point x="284" y="66" type="line" smooth="yes"/>
      <point x="285" y="19"/>
      <point x="301" y="-8"/>
      <point x="342" y="-8" type="curve" smooth="yes"/>
    </contour>
    <contour>
      <point x="272" y="10" type="move" name="ogonek"/>
    </contour>
    <contour>
      <point x="216" y="330" type="move" name="top"/>
    </contour>
    <contour>
      <point x="405" y="330" type="move" name="topright"/>
    </contour>
    <contour>
      <point x="232" y="0" type="move" name="bottom"/>
    </contour>
  </outline>
</glyph>
<glyph name="v" format="1">
  <advance width="407"/>
  <unicode hex="0076"/>
  <outline>
    <contour>
      <point x="291" y="-11"/>
      <point x="371" y="79"/>
      <point x="371" y="219" type="curve" smooth="yes"/>
      <point x="371" y="277"/>
      <point x="357" y="339"/>
      <point x="298" y="339" type="curve" smooth="yes"/>
      <point x="275" y="339"/>
      <point x="257" y="329"/>
      <point x="257" y="306" type="curve" smooth="yes"/>
      <point x="257" y="283"/>
      <point x="275" y="266"/>
      <point x="290" y="253" type="curve" smooth="yes"/>
      <point x="320" y="227"/>
      <point x="337" y="210"/>
      <point x="337" y="169" type="curve" smooth="yes"/>
      <point x="337" y="101"/>
      <point x="292" y="55"/>
      <point x="240" y="55" type="curve" smooth="yes"/>
      <point x="192" y="55"/>
      <point x="152" y="96"/>
      <point x="152" y="162" type="curve" smooth="yes"/>
      <point x="152" y="203"/>
      <point x="164" y="269"/>
      <point x="178" y="321" type="curve" smooth="yes"/>
      <point x="181" y="329"/>
      <point x="180" y="331"/>
      <point x="169" y="331" type="curve" smooth="yes"/>
      <point x="82" y="331" type="line" smooth="yes"/>
      <point x="26" y="331"/>
      <point x="15" y="304"/>
      <point x="2" y="231" type="curve" smooth="yes"/>
      <point x="1" y="224"/>
      <point x="13" y="224"/>
      <point x="14" y="229" type="curve" smooth="yes"/>
      <point x="18" y="254"/>
      <point x="31" y="265"/>
      <point x="76" y="265" type="curve" smooth="yes"/>
      <point x="122" y="265" type="line" smooth="yes"/>
      <point x="136" y="265"/>
      <point x="136" y="257"/>
      <point x="130" y="241" type="curve" smooth="yes"/>
      <point x="114" y="191"/>
      <point x="89" y="147"/>
      <point x="89" y="104" type="curve" smooth="yes"/>
      <point x="89" y="43"/>
      <point x="145" y="-11"/>
      <point x="207" y="-11" type="curve" smooth="yes"/>
    </contour>
  </outline>
</glyph>
<glyph name="w" format="1">
  <advance width="581"/>
  <unicode hex="0077"/>
  <outline>
    <contour>
      <point x="302" y="-11"/>
      <point x="369" y="110"/>
      <point x="369" y="243" type="curve" smooth="yes"/>
      <point x="369" y="309"/>
      <point x="352" y="335"/>
      <point x="317" y="335" type="curve" smooth="yes"/>
      <point x="278" y="335"/>
      <point x="259" y="301"/>
      <point x="259" y="220" type="curve" smooth="yes"/>
      <point x="259" y="84"/>
      <point x="312" y="-11"/>
      <point x="392" y="-11" type="curve" smooth="yes"/>
      <point x="469" y="-11"/>
      <point x="540" y="75"/>
      <point x="540" y="212" type="curve" smooth="yes"/>
      <point x="540" y="270"/>
      <point x="527" y="339"/>
      <point x="469" y="339" type="curve" smooth="yes"/>
      <point x="444" y="339"/>
      <point x="425" y="329"/>
      <point x="425" y="306" type="curve" smooth="yes"/>
      <point x="425" y="285"/>
      <point x="441" y="268"/>
      <point x="458" y="253" type="curve" smooth="yes"/>
      <point x="493" y="223"/>
      <point x="505" y="203"/>
      <point x="505" y="162" type="curve" smooth="yes"/>
      <point x="505" y="95"/>
      <point x="473" y="55"/>
      <point x="421" y="55" type="curve" smooth="yes"/>
      <point x="337" y="55"/>
      <point x="280" y="162"/>
      <point x="280" y="224" type="curve" smooth="yes"/>
      <point x="280" y="252"/>
      <point x="292" y="259"/>
      <point x="307" y="259" type="curve" smooth="yes"/>
      <point x="327" y="259"/>
      <point x="344" y="248"/>
      <point x="344" y="211" type="curve" smooth="yes"/>
      <point x="344" y="151"/>
      <point x="303" y="55"/>
      <point x="236" y="55" type="curve" smooth="yes"/>
      <point x="194" y="55"/>
      <point x="154" y="94"/>
      <point x="152" y="162" type="curve" smooth="yes"/>
      <point x="151" y="204"/>
      <point x="161" y="258"/>
      <point x="178" y="321" type="curve" smooth="yes"/>
      <point x="181" y="329"/>
      <point x="180" y="331"/>
      <point x="169" y="331" type="curve" smooth="yes"/>
      <point x="82" y="331" type="line" smooth="yes"/>
      <point x="26" y="331"/>
      <point x="15" y="305"/>
      <point x="2" y="231" type="curve" smooth="yes"/>
      <point x="1" y="224"/>
      <point x="13" y="224"/>
      <point x="14" y="229" type="curve" smooth="yes"/>
      <point x="18" y="254"/>
      <point x="31" y="265"/>
      <point x="76" y="265" type="curve" smooth="yes"/>
      <point x="122" y="265" type="line" smooth="yes"/>
      <point x="136" y="265"/>
      <point x="138" y="258"/>
      <point x="130" y="241" type="curve" smooth="yes"/>
      <point x="108" y="194"/>
      <point x="92" y="144"/>
      <point x="93" y="96" type="curve" smooth="yes"/>
      <point x="94" y="32"/>
      <point x="139" y="-11"/>
      <point x="204" y="-11" type="curve" smooth="yes"/>
    </contour>
    <contour>
      <point x="315" y="330" type="move" name="top"/>
    </contour>
  </outline>
</glyph>
<glyph name="x" format="1">
  <advance width="395"/>
  <unicode hex="0078"/>
  <outline>
    <contour>
      <point x="326" y="-9"/>
      <point x="357" y="13"/>
      <point x="394" y="56" type="curve" smooth="yes"/>
      <point x="399" y="60"/>
      <point x="389" y="67"/>
      <point x="386" y="63" type="curve" smooth="yes"/>
      <point x="372" y="49"/>
      <point x="360" y="40"/>
      <point x="342" y="40" type="curve" smooth="yes"/>
      <point x="326" y="40"/>
      <point x="309" y="44"/>
      <point x="290" y="79" type="curve" smooth="yes"/>
      <point x="180" y="278" type="line" smooth="yes"/>
      <point x="155" y="323"/>
      <point x="136" y="338"/>
      <point x="103" y="338" type="curve" smooth="yes"/>
      <point x="69" y="338"/>
      <point x="38" y="316"/>
      <point x="1" y="273" type="curve" smooth="yes"/>
      <point x="-3" y="269"/>
      <point x="6" y="262"/>
      <point x="9" y="266" type="curve" smooth="yes"/>
      <point x="23" y="280"/>
      <point x="35" y="289"/>
      <point x="53" y="289" type="curve" smooth="yes"/>
      <point x="69" y="289"/>
      <point x="86" y="285"/>
      <point x="105" y="250" type="curve" smooth="yes"/>
      <point x="215" y="51" type="line" smooth="yes"/>
      <point x="240" y="6"/>
      <point x="259" y="-9"/>
      <point x="292" y="-9" type="curve" smooth="yes"/>
    </contour>
    <contour>
      <point x="107" y="-9"/>
      <point x="117" y="1"/>
      <point x="144" y="53" type="curve" smooth="yes"/>
      <point x="197" y="160" type="line"/>
      <point x="185" y="172" type="line"/>
      <point x="130" y="71" type="line" smooth="yes"/>
      <point x="123" y="57"/>
      <point x="116" y="54"/>
      <point x="111" y="54" type="curve" smooth="yes"/>
      <point x="87" y="54"/>
      <point x="80" y="79"/>
      <point x="45" y="79" type="curve" smooth="yes"/>
      <point x="21" y="79"/>
      <point x="8" y="63"/>
      <point x="9" y="47" type="curve" smooth="yes"/>
      <point x="10" y="17"/>
      <point x="49" y="-9"/>
      <point x="80" y="-9" type="curve" smooth="yes"/>
    </contour>
    <contour>
      <point x="258" y="258" type="line" smooth="yes"/>
      <point x="265" y="272"/>
      <point x="272" y="275"/>
      <point x="278" y="275" type="curve" smooth="yes"/>
      <point x="301" y="275"/>
      <point x="307" y="250"/>
      <point x="343" y="250" type="curve" smooth="yes"/>
      <point x="366" y="250"/>
      <point x="379" y="266"/>
      <point x="378" y="282" type="curve" smooth="yes"/>
      <point x="377" y="312"/>
      <point x="338" y="338"/>
      <point x="307" y="338" type="curve" smooth="yes"/>
      <point x="280" y="338"/>
      <point x="270" y="328"/>
      <point x="244" y="276" type="curve" smooth="yes"/>
      <point x="190" y="169" type="line"/>
      <point x="202" y="157" type="line"/>
    </contour>
  </outline>
</glyph>
<glyph name="y" format="1">
  <advance width="414"/>
  <unicode hex="0079"/>
  <outline>
    <contour>
      <point x="299" y="-240"/>
      <point x="362" y="-165"/>
      <point x="364" y="-60" type="curve" smooth="yes"/>
      <point x="366" y="267" type="line" smooth="yes"/>
      <point x="368" y="297"/>
      <point x="368" y="328"/>
      <point x="368" y="332" type="curve" smooth="yes"/>
      <point x="367" y="335"/>
      <point x="362" y="337"/>
      <point x="327" y="337" type="curve" smooth="yes"/>
      <point x="300" y="337"/>
      <point x="285" y="332"/>
      <point x="285" y="325" type="curve" smooth="yes"/>
      <point x="284" y="254" type="line"/>
      <point x="283" y="-80" type="line" smooth="yes"/>
      <point x="283" y="-196"/>
      <point x="257" y="-222"/>
      <point x="224" y="-222" type="curve" smooth="yes"/>
      <point x="141" y="-222"/>
      <point x="171" y="-132"/>
      <point x="107" y="-132" type="curve" smooth="yes"/>
      <point x="87" y="-132"/>
      <point x="68" y="-143"/>
      <point x="68" y="-175" type="curve" smooth="yes"/>
      <point x="65" y="-211"/>
      <point x="118" y="-240"/>
      <point x="190" y="-240" type="curve" smooth="yes"/>
    </contour>
    <contour>
      <point x="246" y="-11"/>
      <point x="305" y="116"/>
      <point x="302" y="319" type="curve"/>
      <point x="285" y="325" type="line"/>
      <point x="287" y="142"/>
      <point x="240" y="38"/>
      <point x="186" y="38" type="curve" smooth="yes"/>
      <point x="160" y="38"/>
      <point x="145" y="63"/>
      <point x="146" y="118" type="curve" smooth="yes"/>
      <point x="149" y="254" type="line" smooth="yes"/>
      <point x="151" y="313"/>
      <point x="128" y="338"/>
      <point x="91" y="338" type="curve" smooth="yes"/>
      <point x="54" y="338"/>
      <point x="29" y="314"/>
      <point x="-3" y="271" type="curve" smooth="yes"/>
      <point x="-6" y="267"/>
      <point x="2" y="260"/>
      <point x="6" y="264" type="curve" smooth="yes"/>
      <point x="23" y="282"/>
      <point x="37" y="294"/>
      <point x="50" y="294" type="curve" smooth="yes"/>
      <point x="61" y="294"/>
      <point x="71" y="286"/>
      <point x="70" y="254" type="curve" smooth="yes"/>
      <point x="67" y="102" type="line" smooth="yes"/>
      <point x="65" y="25"/>
      <point x="96" y="-11"/>
      <point x="149" y="-11" type="curve" smooth="yes"/>
    </contour>
    <contour>
      <point x="217" y="330" type="move" name="top"/>
    </contour>
    <contour>
      <point x="191" y="35" type="move" name="bottom"/>
    </contour>
  </outline>
</glyph>
<glyph name="z" format="1">
  <advance width="318"/>
  <unicode hex="007A"/>
  <outline>
    <contour>
      <point x="41" y="14"/>
      <point x="53" y="19"/>
      <point x="72" y="19" type="curve" smooth="yes"/>
      <point x="129" y="17"/>
      <point x="206" y="-3"/>
      <point x="258" y="-4" type="curve" smooth="yes"/>
      <point x="295" y="-5"/>
      <point x="306" y="8"/>
      <point x="316" y="99" type="curve" smooth="yes"/>
      <point x="317" y="103"/>
      <point x="306" y="104"/>
      <point x="306" y="101" type="curve" smooth="yes"/>
      <point x="300" y="78"/>
      <point x="290" y="68"/>
      <point x="269" y="68" type="curve" smooth="yes"/>
      <point x="234" y="68"/>
      <point x="153" y="88"/>
      <point x="105" y="88" type="curve" smooth="yes"/>
      <point x="79" y="88"/>
      <point x="58" y="72"/>
      <point x="49" y="33" type="curve"/>
      <point x="56" y="25" type="line"/>
      <point x="307" y="329" type="line" smooth="yes"/>
      <point x="309" y="332"/>
      <point x="296" y="343"/>
      <point x="293" y="339" type="curve" smooth="yes"/>
      <point x="278" y="319"/>
      <point x="266" y="314"/>
      <point x="246" y="314" type="curve" smooth="yes"/>
      <point x="196" y="316"/>
      <point x="129" y="334"/>
      <point x="86" y="337" type="curve" smooth="yes"/>
      <point x="41" y="338"/>
      <point x="34" y="328"/>
      <point x="21" y="237" type="curve" smooth="yes"/>
      <point x="19" y="231"/>
      <point x="30" y="230"/>
      <point x="31" y="235" type="curve" smooth="yes"/>
      <point x="34" y="257"/>
      <point x="49" y="265"/>
      <point x="71" y="265" type="curve" smooth="yes"/>
      <point x="105" y="265"/>
      <point x="172" y="245"/>
      <point x="213" y="245" type="curve" smooth="yes"/>
      <point x="240" y="245"/>
      <point x="251" y="258"/>
      <point x="260" y="298" type="curve"/>
      <point x="263" y="308" type="line"/>
      <point x="11" y="5" type="line" smooth="yes"/>
      <point x="8" y="1"/>
      <point x="22" y="-10"/>
      <point x="25" y="-6" type="curve" smooth="yes"/>
    </contour>
    <contour>
      <point x="161" y="323" type="move" name="top"/>
    </contour>
    <contour>
      <point x="167" y="0" type="move" name="bottom"/>
    </contour>
  </outline>
</glyph>
<glyph name="braceleft" format="1">
  <advance width="247"/>
  <unicode hex="007B"/>
  <outline>
    <contour>
      <point x="72" y="247"/>
      <point x="77" y="156"/>
      <point x="77" y="68" type="curve" smooth="yes"/>
      <point x="77" y="-74"/>
      <point x="100" y="-100"/>
      <point x="214" y="-100" type="curve" smooth="yes"/>
      <point x="218" y="-100"/>
      <point x="218" y="-90"/>
      <point x="214" y="-90" type="curve" smooth="yes"/>
      <point x="184" y="-90"/>
      <point x="168" y="-57"/>
      <point x="167" y="1" type="curve" smooth="yes"/>
      <point x="163" y="180"/>
      <point x="162" y="221"/>
      <point x="67" y="261" type="curve" smooth="yes"/>
      <point x="162" y="300"/>
      <point x="163" y="336"/>
      <point x="167" y="519" type="curve" smooth="yes"/>
      <point x="168" y="577"/>
      <point x="184" y="610"/>
      <point x="214" y="610" type="curve" smooth="yes"/>
      <point x="218" y="610"/>
      <point x="218" y="620"/>
      <point x="214" y="620" type="curve" smooth="yes"/>
      <point x="102" y="620"/>
      <point x="77" y="596"/>
      <point x="77" y="452" type="curve" smooth="yes"/>
      <point x="77" y="367"/>
      <point x="72" y="274"/>
      <point x="27" y="266" type="curve" smooth="yes"/>
      <point x="24" y="266"/>
      <point x="24" y="255"/>
      <point x="27" y="255" type="curve" smooth="yes"/>
    </contour>
  </outline>
</glyph>
<glyph name="cent" format="1">
  <advance width="453"/>
  <unicode hex="00A2"/>
  <outline>
    <contour>
      <point x="233" y="-95"/>
      <point x="258" y="-95"/>
      <point x="258" y="-87" type="curve" smooth="yes"/>
      <point x="258" y="480" type="line" smooth="yes"/>
      <point x="258" y="488"/>
      <point x="233" y="488"/>
      <point x="233" y="480" type="curve" smooth="yes"/>
      <point x="233" y="-87" type="line" smooth="yes"/>
    </contour>
    <contour>
      <point x="128" y="410"/>
      <point x="26" y="321"/>
      <point x="26" y="202" type="curve" smooth="yes"/>
      <point x="26" y="113"/>
      <point x="84" y="-10"/>
      <point x="259" y="-10" type="curve" smooth="yes"/>
      <point x="298" y="-10"/>
      <point x="347" y="-4"/>
      <point x="396" y="13" type="curve" smooth="yes"/>
      <point x="406" y="17"/>
      <point x="407" y="19"/>
      <point x="408" y="28" type="curve" smooth="yes"/>
      <point x="415" y="119" type="line" smooth="yes"/>
      <point x="415" y="122"/>
      <point x="407" y="124"/>
      <point x="405" y="120" type="curve" smooth="yes"/>
      <point x="368" y="43"/>
      <point x="332" y="8"/>
      <point x="272" y="8" type="curve" smooth="yes"/>
      <point x="168" y="8"/>
      <point x="127" y="115"/>
      <point x="127" y="215" type="curve" smooth="yes"/>
      <point x="127" y="318"/>
      <point x="170" y="392"/>
      <point x="253" y="392" type="curve" smooth="yes"/>
      <point x="312" y="392"/>
      <point x="355" y="355"/>
      <point x="397" y="282" type="curve" smooth="yes"/>
      <point x="399" y="278"/>
      <point x="407" y="280"/>
      <point x="407" y="283" type="curve" smooth="yes"/>
      <point x="403" y="371" type="line" smooth="yes"/>
      <point x="403" y="380"/>
      <point x="401" y="382"/>
      <point x="393" y="386" type="curve" smooth="yes"/>
      <point x="360" y="402"/>
      <point x="303" y="410"/>
      <point x="263" y="410" type="curve" smooth="yes"/>
    </contour>
    <contour>
      <point x="251" y="400" type="move" name="top"/>
    </contour>
    <contour>
      <point x="263" y="0" type="move" name="bottom"/>
    </contour>
  </outline>
</glyph>
<glyph name="sterling" format="1">
  <advance width="369"/>
  <unicode hex="00A3"/>
  <outline>
    <contour>
      <point x="110" y="26" type="line"/>
      <point x="139" y="46"/>
      <point x="169" y="68"/>
      <point x="169" y="127" type="curve" smooth="yes"/>
      <point x="169" y="193"/>
      <point x="133" y="244"/>
      <point x="133" y="310" type="curve" smooth="yes"/>
      <point x="133" y="351"/>
      <point x="146" y="393"/>
      <point x="193" y="393" type="curve" smooth="yes"/>
      <point x="241" y="393"/>
      <point x="266" y="350"/>
      <point x="297" y="294" type="curve" smooth="yes"/>
      <point x="299" y="289"/>
      <point x="307" y="289"/>
      <point x="307" y="294" type="curve" smooth="yes"/>
      <point x="301" y="383" type="line" smooth="yes"/>
      <point x="300" y="391"/>
      <point x="296" y="396"/>
      <point x="287" y="399" type="curve" smooth="yes"/>
      <point x="259" y="408"/>
      <point x="231" y="410"/>
      <point x="211" y="410" type="curve" smooth="yes"/>
      <point x="127" y="410"/>
      <point x="49" y="376"/>
      <point x="49" y="280" type="curve" smooth="yes"/>
      <point x="49" y="220"/>
      <point x="82" y="191"/>
      <point x="86" y="101" type="curve" smooth="yes"/>
      <point x="88" y="65"/>
      <point x="80" y="26"/>
      <point x="11" y="10" type="curve" smooth="yes"/>
      <point x="8" y="9"/>
      <point x="8" y="0"/>
      <point x="11" y="0" type="curve" smooth="yes"/>
      <point x="304" y="0" type="line" smooth="yes"/>
      <point x="314" y="0"/>
      <point x="317" y="3"/>
      <point x="317" y="13" type="curve" smooth="yes"/>
      <point x="317" y="44"/>
      <point x="321" y="84"/>
      <point x="325" y="109" type="curve" smooth="yes"/>
      <point x="325" y="112"/>
      <point x="315" y="113"/>
      <point x="315" y="110" type="curve" smooth="yes"/>
      <point x="302" y="52"/>
      <point x="287" y="41"/>
      <point x="215" y="41" type="curve" smooth="yes"/>
      <point x="85" y="41" type="line"/>
    </contour>
    <contour>
      <point x="29" y="209"/>
      <point x="29" y="184"/>
      <point x="37" y="184" type="curve" smooth="yes"/>
      <point x="234" y="184" type="line" smooth="yes"/>
      <point x="242" y="184"/>
      <point x="242" y="209"/>
      <point x="234" y="209" type="curve" smooth="yes"/>
      <point x="37" y="209" type="line" smooth="yes"/>
    </contour>
    <contour>
      <point x="124" y="534" type="move" name="top"/>
    </contour>
    <contour>
      <point x="237" y="0" type="move" name="bottom"/>
    </contour>
    <contour>
      <point x="413" y="534" type="move" name="topright"/>
    </contour>
  </outline>
</glyph>
<glyph name="currency" format="1">
  <advance width="354"/>
  <unicode hex="00A4"/>
  <outline>
    <contour>
      <point x="88" y="102" type="line"/>
      <point x="43" y="55" type="line"/>
      <point x="71" y="27" type="line"/>
      <point x="114" y="75" type="line"/>
    </contour>
    <contour>
      <point x="115" y="271" type="line"/>
      <point x="71" y="319" type="line"/>
      <point x="39" y="289" type="line"/>
      <point x="85" y="243" type="line"/>
    </contour>
    <contour>
      <point x="237" y="77" type="line"/>
      <point x="281" y="27" type="line"/>
      <point x="314" y="58" type="line"/>
      <point x="267" y="105" type="line"/>
    </contour>
    <contour>
      <point x="262" y="238" type="line"/>
      <point x="313" y="289" type="line"/>
      <point x="286" y="316" type="line"/>
      <point x="236" y="263" type="line"/>
    </contour>
    <contour>
      <point x="231" y="56"/>
      <point x="298" y="98"/>
      <point x="298" y="172" type="curve" smooth="yes"/>
      <point x="298" y="237"/>
      <point x="246" y="286"/>
      <point x="180" y="286" type="curve" smooth="yes"/>
      <point x="124" y="286"/>
      <point x="52" y="250"/>
      <point x="52" y="173" type="curve" smooth="yes"/>
      <point x="52" y="115"/>
      <point x="94" y="56"/>
      <point x="168" y="56" type="curve" smooth="yes"/>
    </contour>
    <contour>
      <point x="135" y="76"/>
      <point x="114" y="138"/>
      <point x="114" y="191" type="curve" smooth="yes"/>
      <point x="114" y="241"/>
      <point x="133" y="266"/>
      <point x="161" y="266" type="curve" smooth="yes"/>
      <point x="208" y="266"/>
      <point x="234" y="210"/>
      <point x="234" y="154" type="curve" smooth="yes"/>
      <point x="234" y="104"/>
      <point x="214" y="76"/>
      <point x="184" y="76" type="curve" smooth="yes"/>
    </contour>
  </outline>
</glyph>
<glyph name="dieresis" format="1">
  <advance width="235"/>
  <unicode hex="00A8"/>
  <outline>
    <contour>
      <point x="72" y="397"/>
      <point x="89" y="414"/>
      <point x="89" y="444" type="curve" smooth="yes"/>
      <point x="89" y="471"/>
      <point x="72" y="488"/>
      <point x="44" y="488" type="curve" smooth="yes"/>
      <point x="15" y="488"/>
      <point x="-3" y="471"/>
      <point x="-3" y="444" type="curve" smooth="yes"/>
      <point x="-3" y="414"/>
      <point x="15" y="397"/>
      <point x="44" y="397" type="curve" smooth="yes"/>
    </contour>
    <contour>
      <point x="221" y="397"/>
      <point x="237" y="414"/>
      <point x="237" y="444" type="curve" smooth="yes"/>
      <point x="237" y="471"/>
      <point x="221" y="487"/>
      <point x="193" y="487" type="curve" smooth="yes"/>
      <point x="164" y="487"/>
      <point x="147" y="471"/>
      <point x="147" y="444" type="curve" smooth="yes"/>
      <point x="147" y="414"/>
      <point x="164" y="397"/>
      <point x="193" y="397" type="curve" smooth="yes"/>
    </contour>
    <contour>
      <point x="119" y="330" type="move" name="_top"/>
    </contour>
  </outline>
</glyph>
<glyph name="copyright" format="1">
  <advance width="622"/>
  <unicode hex="00A9"/>
  <outline>
    <contour>
      <point x="386" y="-91"/>
      <point x="451" y="-79"/>
      <point x="520" y="-24" type="curve" smooth="yes"/>
      <point x="523" y="-22"/>
      <point x="518" y="-15"/>
      <point x="515" y="-17" type="curve" smooth="yes"/>
      <point x="460" y="-51"/>
      <point x="412" y="-61"/>
      <point x="357" y="-61" type="curve" smooth="yes"/>
      <point x="211" y="-61"/>
      <point x="118" y="34"/>
      <point x="118" y="182" type="curve" smooth="yes"/>
      <point x="118" y="305"/>
      <point x="191" y="410"/>
      <point x="322" y="410" type="curve" smooth="yes"/>
      <point x="436" y="410"/>
      <point x="520" y="317"/>
      <point x="520" y="202" type="curve" smooth="yes"/>
      <point x="520" y="113"/>
      <point x="460" y="57"/>
      <point x="397" y="57" type="curve" smooth="yes"/>
      <point x="308" y="57"/>
      <point x="272" y="122"/>
      <point x="272" y="197" type="curve" smooth="yes"/>
      <point x="272" y="258"/>
      <point x="280" y="291"/>
      <point x="317" y="291" type="curve" smooth="yes"/>
      <point x="343" y="291"/>
      <point x="353" y="272"/>
      <point x="363" y="254" type="curve" smooth="yes"/>
      <point x="371" y="238"/>
      <point x="381" y="223"/>
      <point x="400" y="223" type="curve" smooth="yes"/>
      <point x="426" y="223"/>
      <point x="437" y="237"/>
      <point x="437" y="259" type="curve" smooth="yes"/>
      <point x="437" y="296"/>
      <point x="388" y="311"/>
      <point x="345" y="311" type="curve" smooth="yes"/>
      <point x="271" y="311"/>
      <point x="194" y="259"/>
      <point x="194" y="167" type="curve" smooth="yes"/>
      <point x="194" y="103"/>
      <point x="236" y="33"/>
      <point x="351" y="33" type="curve" smooth="yes"/>
      <point x="485" y="33"/>
      <point x="577" y="129"/>
      <point x="577" y="229" type="curve" smooth="yes"/>
      <point x="577" y="335"/>
      <point x="490" y="430"/>
      <point x="352" y="430" type="curve" smooth="yes"/>
      <point x="201" y="430"/>
      <point x="55" y="321"/>
      <point x="55" y="160" type="curve" smooth="yes"/>
      <point x="55" y="1"/>
      <point x="180" y="-91"/>
      <point x="326" y="-91" type="curve" smooth="yes"/>
    </contour>
    <contour>
      <point x="299" y="264" type="move" name="top"/>
    </contour>
    <contour>
      <point x="306" y="0" type="move" name="bottom"/>
    </contour>
  </outline>
</glyph>
<glyph name="ordfeminine" format="1">
  <advance width="250"/>
  <unicode hex="00AA"/>
  <outline>
    <contour>
      <point x="104" y="309"/>
      <point x="157" y="352"/>
      <point x="167" y="459" type="curve"/>
      <point x="150" y="449" type="line" smooth="yes"/>
      <point x="151" y="364" type="line" smooth="yes"/>
      <point x="151" y="328"/>
      <point x="163" y="311"/>
      <point x="189" y="311" type="curve" smooth="yes"/>
      <point x="212" y="311"/>
      <point x="234" y="328"/>
      <point x="256" y="359" type="curve" smooth="yes"/>
      <point x="257" y="361"/>
      <point x="250" y="366"/>
      <point x="248" y="364" type="curve" smooth="yes"/>
      <point x="234" y="348"/>
      <point x="222" y="339"/>
      <point x="213" y="339" type="curve" smooth="yes"/>
      <point x="205" y="339"/>
      <point x="201" y="347"/>
      <point x="201" y="364" type="curve" smooth="yes"/>
      <point x="203" y="543" type="line" smooth="yes"/>
      <point x="203" y="545"/>
      <point x="197" y="547"/>
      <point x="195" y="545" type="curve" smooth="yes"/>
      <point x="188" y="531"/>
      <point x="173" y="520"/>
      <point x="161" y="518" type="curve"/>
      <point x="201" y="501" type="line"/>
      <point x="192" y="529"/>
      <point x="160" y="541"/>
      <point x="136" y="541" type="curve" smooth="yes"/>
      <point x="70" y="541"/>
      <point x="4" y="448"/>
      <point x="6" y="376" type="curve" smooth="yes"/>
      <point x="7" y="328"/>
      <point x="29" y="309"/>
      <point x="56" y="309" type="curve" smooth="yes"/>
    </contour>
    <contour>
      <point x="229" y="242" type="line" smooth="yes"/>
      <point x="234" y="242"/>
      <point x="234" y="268"/>
      <point x="228" y="268" type="curve" smooth="yes"/>
      <point x="16" y="268" type="line" smooth="yes"/>
      <point x="12" y="268"/>
      <point x="12" y="242"/>
      <point x="17" y="242" type="curve" smooth="yes"/>
    </contour>
    <contour>
      <point x="68" y="347"/>
      <point x="52" y="365"/>
      <point x="52" y="419" type="curve" smooth="yes"/>
      <point x="53" y="474"/>
      <point x="73" y="514"/>
      <point x="111" y="514" type="curve" smooth="yes"/>
      <point x="136" y="514"/>
      <point x="152" y="495"/>
      <point x="151" y="462" type="curve" smooth="yes"/>
      <point x="152" y="417"/>
      <point x="124" y="347"/>
      <point x="85" y="347" type="curve" smooth="yes"/>
    </contour>
    <contour>
      <point x="196" y="323" type="move" name="ogonek"/>
    </contour>
    <contour>
      <point x="52" y="316" type="move" name="bottom"/>
    </contour>
    <contour>
      <point x="53" y="534" type="move" name="top"/>
    </contour>
  </outline>
</glyph>
<glyph name="macron" format="1">
  <advance width="285"/>
  <unicode hex="00AF"/>
  <outline>
    <contour>
      <point x="241" y="404" type="line" smooth="yes"/>
      <point x="253" y="404"/>
      <point x="253" y="439"/>
      <point x="241" y="439" type="curve" smooth="yes"/>
      <point x="46" y="439" type="line" smooth="yes"/>
      <point x="35" y="439"/>
      <point x="35" y="404"/>
      <point x="46" y="404" type="curve" smooth="yes"/>
    </contour>
    <contour>
      <point x="147" y="330" type="move" name="_top"/>
    </contour>
  </outline>
</glyph>
<glyph name="plusminus" format="1">
  <advance width="340"/>
  <unicode hex="00B1"/>
  <outline>
    <contour>
      <point x="311" y="1" type="line" smooth="yes"/>
      <point x="316" y="1"/>
      <point x="316" y="38"/>
      <point x="311" y="38" type="curve" smooth="yes"/>
      <point x="28" y="38" type="line" smooth="yes"/>
      <point x="24" y="38"/>
      <point x="24" y="1"/>
      <point x="29" y="1" type="curve" smooth="yes"/>
    </contour>
    <component base="endash" yOffset="54"/>
    <component base="endash" xOffset="332" yOffset="46" xScale="0" yScale="0" xyScale="1" yxScale="-1"/>
  </outline>
</glyph>
<glyph name="twosuperior" format="1">
  <advance width="216"/>
  <unicode hex="00B2"/>
  <outline>
    <contour>
      <point x="16" y="347"/>
      <point x="17" y="345"/>
      <point x="20" y="345" type="curve" smooth="yes"/>
      <point x="73" y="345"/>
      <point x="140" y="345"/>
      <point x="187" y="345" type="curve" smooth="yes"/>
      <point x="189" y="345"/>
      <point x="191" y="347"/>
      <point x="191" y="349" type="curve" smooth="yes"/>
      <point x="192" y="431" type="line" smooth="yes"/>
      <point x="192" y="433"/>
      <point x="182" y="433"/>
      <point x="182" y="431" type="curve" smooth="yes"/>
      <point x="182" y="403"/>
      <point x="157" y="397"/>
      <point x="56" y="397" type="curve" smooth="yes"/>
      <point x="54" y="397"/>
      <point x="53" y="398"/>
      <point x="54" y="400" type="curve" smooth="yes"/>
      <point x="75" y="464"/>
      <point x="184" y="484"/>
      <point x="184" y="561" type="curve" smooth="yes"/>
      <point x="184" y="596"/>
      <point x="161" y="624"/>
      <point x="109" y="624" type="curve" smooth="yes"/>
      <point x="55" y="624"/>
      <point x="33" y="594"/>
      <point x="22" y="559" type="curve" smooth="yes"/>
      <point x="21" y="555"/>
      <point x="31" y="553"/>
      <point x="32" y="557" type="curve" smooth="yes"/>
      <point x="39" y="581"/>
      <point x="59" y="600"/>
      <point x="85" y="600" type="curve" smooth="yes"/>
      <point x="105" y="600"/>
      <point x="120" y="588"/>
      <point x="120" y="551" type="curve" smooth="yes"/>
      <point x="120" y="470"/>
      <point x="47" y="474"/>
      <point x="17" y="350" type="curve" smooth="yes"/>
    </contour>
  </outline>
</glyph>
<glyph name="cedilla" format="1">
  <advance width="168"/>
  <unicode hex="00B8"/>
  <outline>
    <contour>
      <point x="140" y="-235"/>
      <point x="164" y="-190"/>
      <point x="163" y="-160" type="curve" smooth="yes"/>
      <point x="163" y="-138"/>
      <point x="150" y="-117"/>
      <point x="123" y="-89" type="curve" smooth="yes"/>
      <point x="97" y="-62"/>
      <point x="73" y="-42"/>
      <point x="85" y="0" type="curve"/>
      <point x="71" y="0" type="line"/>
      <point x="55" y="-51" type="line" smooth="yes"/>
      <point x="47" y="-77"/>
      <point x="40" y="-99"/>
      <point x="58" y="-118" type="curve" smooth="yes"/>
      <point x="86" y="-147"/>
      <point x="113" y="-177"/>
      <point x="115" y="-198" type="curve" smooth="yes"/>
      <point x="116" y="-210"/>
      <point x="110" y="-219"/>
      <point x="97" y="-219" type="curve" smooth="yes"/>
      <point x="64" y="-219"/>
      <point x="71" y="-161"/>
      <point x="28" y="-161" type="curve" smooth="yes"/>
      <point x="12" y="-161"/>
      <point x="-3" y="-169"/>
      <point x="-2" y="-190" type="curve" smooth="yes"/>
      <point x="-2" y="-217"/>
      <point x="34" y="-235"/>
      <point x="74" y="-235" type="curve" smooth="yes"/>
    </contour>
    <contour>
      <point x="69" y="0" type="move" name="_bottom"/>
    </contour>
  </outline>
</glyph>
<glyph name="onesuperior" format="1">
  <advance width="224"/>
  <unicode hex="00B9"/>
  <outline>
    <contour>
      <point x="55" y="345"/>
      <point x="86" y="347"/>
      <point x="118" y="347" type="curve" smooth="yes"/>
      <point x="149" y="347"/>
      <point x="176" y="345"/>
      <point x="199" y="345" type="curve" smooth="yes"/>
      <point x="202" y="345"/>
      <point x="202" y="355"/>
      <point x="199" y="355" type="curve" smooth="yes"/>
      <point x="152" y="355"/>
      <point x="148" y="360"/>
      <point x="148" y="414" type="curve" smooth="yes"/>
      <point x="148" y="617" type="line" smooth="yes"/>
      <point x="148" y="620"/>
      <point x="144" y="625"/>
      <point x="139" y="623" type="curve" smooth="yes"/>
      <point x="23" y="572" type="line" smooth="yes"/>
      <point x="20" y="571"/>
      <point x="24" y="561"/>
      <point x="28" y="563" type="curve" smooth="yes"/>
      <point x="80" y="586"/>
      <point x="86" y="581"/>
      <point x="86" y="515" type="curve" smooth="yes"/>
      <point x="86" y="414" type="line" smooth="yes"/>
      <point x="86" y="360"/>
      <point x="81" y="355"/>
      <point x="32" y="355" type="curve" smooth="yes"/>
      <point x="29" y="355"/>
      <point x="29" y="345"/>
      <point x="32" y="345" type="curve" smooth="yes"/>
    </contour>
  </outline>
</glyph>
<glyph name="ordmasculine" format="1">
  <advance width="243"/>
  <unicode hex="00BA"/>
  <outline>
    <contour>
      <point x="168" y="306"/>
      <point x="223" y="346"/>
      <point x="224" y="423" type="curve" smooth="yes"/>
      <point x="225" y="488"/>
      <point x="188" y="539"/>
      <point x="119" y="539" type="curve" smooth="yes"/>
      <point x="54" y="539"/>
      <point x="7" y="492"/>
      <point x="7" y="425" type="curve" smooth="yes"/>
      <point x="5" y="362"/>
      <point x="42" y="306"/>
      <point x="111" y="306" type="curve" smooth="yes"/>
    </contour>
    <contour>
      <point x="228" y="242" type="line" smooth="yes"/>
      <point x="233" y="242"/>
      <point x="234" y="268"/>
      <point x="228" y="268" type="curve" smooth="yes"/>
      <point x="20" y="268" type="line" smooth="yes"/>
      <point x="16" y="268"/>
      <point x="15" y="242"/>
      <point x="21" y="242" type="curve" smooth="yes"/>
    </contour>
    <contour>
      <point x="89" y="322"/>
      <point x="61" y="379"/>
      <point x="61" y="448" type="curve" smooth="yes"/>
      <point x="62" y="502"/>
      <point x="79" y="523"/>
      <point x="103" y="523" type="curve" smooth="yes"/>
      <point x="142" y="523"/>
      <point x="171" y="466"/>
      <point x="170" y="399" type="curve" smooth="yes"/>
      <point x="169" y="351"/>
      <point x="155" y="322"/>
      <point x="127" y="322" type="curve" smooth="yes"/>
    </contour>
    <contour>
      <point x="112" y="532" type="move" name="top"/>
    </contour>
  </outline>
</glyph>
<glyph name="AE" format="1">
  <advance width="716"/>
  <unicode hex="00C6"/>
  <outline>
    <contour>
      <point x="5" y="0"/>
      <point x="23" y="3"/>
      <point x="62" y="3" type="curve" smooth="yes"/>
      <point x="105" y="3"/>
      <point x="171" y="0"/>
      <point x="205" y="0" type="curve" smooth="yes"/>
      <point x="210" y="0"/>
      <point x="211" y="10"/>
      <point x="205" y="10" type="curve" smooth="yes"/>
      <point x="137" y="10"/>
      <point x="105" y="53"/>
      <point x="135" y="105" type="curve" smooth="yes"/>
      <point x="366" y="515" type="line"/>
      <point x="339" y="524" type="line"/>
      <point x="362" y="69" type="line" smooth="yes"/>
      <point x="366" y="20"/>
      <point x="356" y="10"/>
      <point x="310" y="10" type="curve" smooth="yes"/>
      <point x="304" y="10"/>
      <point x="304" y="0"/>
      <point x="310" y="0" type="curve" smooth="yes"/>
      <point x="663" y="0" type="line"/>
      <point x="673" y="0"/>
      <point x="676" y="3"/>
      <point x="676" y="13" type="curve" smooth="yes"/>
      <point x="676" y="51"/>
      <point x="678" y="101"/>
      <point x="684" y="134" type="curve" smooth="yes"/>
      <point x="685" y="137"/>
      <point x="675" y="139"/>
      <point x="673" y="136" type="curve" smooth="yes"/>
      <point x="646" y="62"/>
      <point x="589" y="15"/>
      <point x="524" y="15" type="curve" smooth="yes"/>
      <point x="512" y="15" type="line" smooth="yes"/>
      <point x="466" y="15"/>
      <point x="459" y="25"/>
      <point x="456" y="73" type="curve" smooth="yes"/>
      <point x="434" y="464" type="line" smooth="yes"/>
      <point x="432" y="504"/>
      <point x="445" y="522"/>
      <point x="477" y="522" type="curve" smooth="yes"/>
      <point x="493" y="522" type="line" smooth="yes"/>
      <point x="563" y="522"/>
      <point x="618" y="480"/>
      <point x="636" y="413" type="curve" smooth="yes"/>
      <point x="637" y="410"/>
      <point x="647" y="408"/>
      <point x="647" y="412" type="curve" smooth="yes"/>
      <point x="647" y="438"/>
      <point x="646" y="493"/>
      <point x="645" y="527" type="curve" smooth="yes"/>
      <point x="645" y="532"/>
      <point x="644" y="534"/>
      <point x="639" y="534" type="curve" smooth="yes"/>
      <point x="257" y="534" type="line" smooth="yes"/>
      <point x="251" y="534"/>
      <point x="251" y="524"/>
      <point x="257" y="524" type="curve" smooth="yes"/>
      <point x="327" y="524"/>
      <point x="336" y="525"/>
      <point x="317" y="493" type="curve" smooth="yes"/>
      <point x="108" y="115" type="line" smooth="yes"/>
      <point x="61" y="29"/>
      <point x="19" y="10"/>
      <point x="-28" y="10" type="curve" smooth="yes"/>
      <point x="-34" y="10"/>
      <point x="-33" y="0"/>
      <point x="-28" y="0" type="curve" smooth="yes"/>
    </contour>
    <contour>
      <point x="416" y="266" type="line"/>
      <point x="410" y="290" type="line"/>
      <point x="236" y="290" type="line"/>
      <point x="223" y="266" type="line"/>
    </contour>
    <contour>
      <point x="624" y="223"/>
      <point x="623" y="249"/>
      <point x="623" y="278" type="curve" smooth="yes"/>
      <point x="623" y="301"/>
      <point x="623" y="317"/>
      <point x="624" y="354" type="curve" smooth="yes"/>
      <point x="624" y="359"/>
      <point x="612" y="360"/>
      <point x="612" y="355" type="curve" smooth="yes"/>
      <point x="610" y="308"/>
      <point x="584" y="290"/>
      <point x="527" y="290" type="curve" smooth="yes"/>
      <point x="377" y="290" type="line"/>
      <point x="378" y="266" type="line" smooth="yes"/>
      <point x="525" y="266" type="line" smooth="yes"/>
      <point x="579" y="266"/>
      <point x="612" y="240"/>
      <point x="613" y="191" type="curve" smooth="yes"/>
      <point x="613" y="186"/>
      <point x="625" y="185"/>
      <point x="625" y="190" type="curve" smooth="yes"/>
    </contour>
    <contour>
      <point x="191" y="10" type="move" name="ogonek"/>
    </contour>
    <contour>
      <point x="452" y="534" type="move" name="top"/>
    </contour>
  </outline>
</glyph>
<glyph name="Eth" format="1">
  <advance width="588"/>
  <unicode hex="00D0"/>
  <outline>
    <contour>
      <point x="263" y="254" type="line" smooth="yes"/>
      <point x="268" y="254"/>
      <point x="268" y="278"/>
      <point x="263" y="278" type="curve" smooth="yes"/>
      <point x="39" y="278" type="line" smooth="yes"/>
      <point x="34" y="278"/>
      <point x="34" y="254"/>
      <point x="39" y="254" type="curve" smooth="yes"/>
    </contour>
    <component base="D"/>
  </outline>
</glyph>
<glyph name="Oslash" format="1">
  <advance width="628"/>
  <unicode hex="00D8"/>
  <outline>
    <contour>
      <point x="532" y="527" type="line" smooth="yes"/>
      <point x="535" y="531"/>
      <point x="514" y="546"/>
      <point x="511" y="543" type="curve" smooth="yes"/>
      <point x="66" y="6" type="line" smooth="yes"/>
      <point x="63" y="2"/>
      <point x="84" y="-15"/>
      <point x="86" y="-12" type="curve" smooth="yes"/>
    </contour>
    <component base="O"/>
    <contour>
      <point x="313" y="534" type="move" name="top"/>
    </contour>
  </outline>
</glyph>
<glyph name="Thorn" format="1">
  <advance width="506"/>
  <unicode hex="00DE"/>
  <outline>
    <contour>
      <point x="69" y="0"/>
      <point x="107" y="2"/>
      <point x="146" y="2" type="curve" smooth="yes"/>
      <point x="196" y="2"/>
      <point x="238" y="0"/>
      <point x="272" y="0" type="curve" smooth="yes"/>
      <point x="276" y="0"/>
      <point x="275" y="10"/>
      <point x="272" y="10" type="curve" smooth="yes"/>
      <point x="201" y="10"/>
      <point x="193" y="19"/>
      <point x="193" y="69" type="curve" smooth="yes"/>
      <point x="192" y="463" type="line" smooth="yes"/>
      <point x="193" y="518"/>
      <point x="201" y="524"/>
      <point x="274" y="524" type="curve" smooth="yes"/>
      <point x="278" y="524"/>
      <point x="277" y="534"/>
      <point x="274" y="534" type="curve" smooth="yes"/>
      <point x="241" y="534"/>
      <point x="196" y="532"/>
      <point x="143" y="532" type="curve" smooth="yes"/>
      <point x="104" y="532"/>
      <point x="71" y="534"/>
      <point x="43" y="534" type="curve" smooth="yes"/>
      <point x="40" y="534"/>
      <point x="40" y="524"/>
      <point x="43" y="524" type="curve" smooth="yes"/>
      <point x="91" y="524"/>
      <point x="100" y="514"/>
      <point x="100" y="465" type="curve" smooth="yes"/>
      <point x="100" y="69" type="line" smooth="yes"/>
      <point x="100" y="20"/>
      <point x="92" y="10"/>
      <point x="41" y="10" type="curve" smooth="yes"/>
      <point x="38" y="10"/>
      <point x="38" y="0"/>
      <point x="41" y="0" type="curve" smooth="yes"/>
    </contour>
    <contour>
      <point x="360" y="116"/>
      <point x="483" y="159"/>
      <point x="483" y="274" type="curve" smooth="yes"/>
      <point x="483" y="369"/>
      <point x="399" y="429"/>
      <point x="272" y="429" type="curve" smooth="yes"/>
      <point x="229" y="429"/>
      <point x="172" y="422"/>
      <point x="132" y="405" type="curve"/>
      <point x="141" y="388" type="line"/>
      <point x="167" y="400"/>
      <point x="206" y="411"/>
      <point x="242" y="411" type="curve" smooth="yes"/>
      <point x="337" y="411"/>
      <point x="382" y="333"/>
      <point x="382" y="255" type="curve" smooth="yes"/>
      <point x="382" y="159"/>
      <point x="315" y="133"/>
      <point x="261" y="133" type="curve" smooth="yes"/>
      <point x="252" y="133"/>
      <point x="242" y="134"/>
      <point x="232" y="136" type="curve" smooth="yes"/>
      <point x="228" y="137"/>
      <point x="227" y="121"/>
      <point x="230" y="120" type="curve" smooth="yes"/>
      <point x="243" y="117"/>
      <point x="256" y="116"/>
      <point x="270" y="116" type="curve" smooth="yes"/>
    </contour>
  </outline>
</glyph>
<glyph name="germandbls" format="1">
  <advance width="437"/>
  <unicode hex="00DF"/>
  <outline>
    <contour>
      <point x="125" y="-235"/>
      <point x="155" y="-182"/>
      <point x="149" y="-18" type="curve" smooth="yes"/>
      <point x="137" y="375" type="line" smooth="yes"/>
      <point x="135" y="524"/>
      <point x="153" y="601"/>
      <point x="214" y="601" type="curve" smooth="yes"/>
      <point x="249" y="601"/>
      <point x="272" y="576"/>
      <point x="278" y="530" type="curve" smooth="yes"/>
      <point x="289" y="438"/>
      <point x="216" y="390"/>
      <point x="219" y="313" type="curve" smooth="yes"/>
      <point x="223" y="216"/>
      <point x="362" y="143"/>
      <point x="366" y="60" type="curve" smooth="yes"/>
      <point x="366" y="41"/>
      <point x="364" y="18"/>
      <point x="334" y="18" type="curve" smooth="yes"/>
      <point x="288" y="18"/>
      <point x="303" y="84"/>
      <point x="241" y="84" type="curve" smooth="yes"/>
      <point x="214" y="84"/>
      <point x="203" y="65"/>
      <point x="207" y="42" type="curve" smooth="yes"/>
      <point x="212" y="19"/>
      <point x="245" y="-9"/>
      <point x="299" y="-9" type="curve" smooth="yes"/>
      <point x="377" y="-9"/>
      <point x="417" y="48"/>
      <point x="416" y="115" type="curve" smooth="yes"/>
      <point x="415" y="223"/>
      <point x="271" y="295"/>
      <point x="270" y="366" type="curve" smooth="yes"/>
      <point x="268" y="432"/>
      <point x="369" y="462"/>
      <point x="364" y="542" type="curve" smooth="yes"/>
      <point x="359" y="595"/>
      <point x="312" y="621"/>
      <point x="247" y="621" type="curve" smooth="yes"/>
      <point x="109" y="621"/>
      <point x="54" y="507"/>
      <point x="59" y="357" type="curve" smooth="yes"/>
      <point x="71" y="-40" type="line" smooth="yes"/>
      <point x="75" y="-175"/>
      <point x="72" y="-218"/>
      <point x="57" y="-218" type="curve" smooth="yes"/>
      <point x="25" y="-218"/>
      <point x="40" y="-152"/>
      <point x="-16" y="-152" type="curve" smooth="yes"/>
      <point x="-41" y="-152"/>
      <point x="-57" y="-166"/>
      <point x="-55" y="-186" type="curve" smooth="yes"/>
      <point x="-52" y="-214"/>
      <point x="-17" y="-235"/>
      <point x="39" y="-235" type="curve" smooth="yes"/>
    </contour>
  </outline>
</glyph>
<glyph name="ae" format="1">
  <advance width="544"/>
  <unicode hex="00E6"/>
  <outline>
    <contour>
      <point x="191" y="-11"/>
      <point x="255" y="83"/>
      <point x="283" y="210" type="curve"/>
      <point x="296" y="240"/>
      <point x="313" y="269"/>
      <point x="325" y="299" type="curve"/>
      <point x="314" y="329"/>
      <point x="276" y="341"/>
      <point x="240" y="341" type="curve" smooth="yes"/>
      <point x="113" y="341"/>
      <point x="24" y="187"/>
      <point x="28" y="78" type="curve" smooth="yes"/>
      <point x="30" y="22"/>
      <point x="65" y="-11"/>
      <point x="112" y="-11" type="curve" smooth="yes"/>
    </contour>
    <contour>
      <point x="139" y="56"/>
      <point x="109" y="69"/>
      <point x="108" y="146" type="curve" smooth="yes"/>
      <point x="108" y="241"/>
      <point x="151" y="312"/>
      <point x="199" y="314" type="curve" smooth="yes"/>
      <point x="237" y="315"/>
      <point x="266" y="271"/>
      <point x="265" y="217" type="curve" smooth="yes"/>
      <point x="263" y="150"/>
      <point x="200" y="56"/>
      <point x="159" y="56" type="curve" smooth="yes"/>
    </contour>
    <contour>
      <point x="445" y="-10"/>
      <point x="485" y="6"/>
      <point x="526" y="48" type="curve" smooth="yes"/>
      <point x="529" y="51"/>
      <point x="520" y="58"/>
      <point x="516" y="55" type="curve" smooth="yes"/>
      <point x="497" y="38"/>
      <point x="475" y="30"/>
      <point x="453" y="30" type="curve" smooth="yes"/>
      <point x="398" y="30"/>
      <point x="351" y="82"/>
      <point x="346" y="184" type="curve" smooth="yes"/>
      <point x="342" y="263"/>
      <point x="366" y="319"/>
      <point x="408" y="319" type="curve" smooth="yes"/>
      <point x="434" y="319"/>
      <point x="444" y="295"/>
      <point x="444" y="276" type="curve" smooth="yes"/>
      <point x="446" y="221"/>
      <point x="367" y="189"/>
      <point x="312" y="168" type="curve"/>
      <point x="313" y="158" type="line"/>
      <point x="494" y="212"/>
      <point x="535" y="251"/>
      <point x="534" y="289" type="curve" smooth="yes"/>
      <point x="534" y="319"/>
      <point x="512" y="341"/>
      <point x="450" y="341" type="curve" smooth="yes"/>
      <point x="381" y="341"/>
      <point x="324" y="314"/>
      <point x="288" y="261" type="curve"/>
      <point x="270" y="180" type="line"/>
      <point x="263" y="66"/>
      <point x="309" y="-10"/>
      <point x="402" y="-10" type="curve" smooth="yes"/>
    </contour>
    <contour>
      <point x="311" y="330" type="move" name="top"/>
    </contour>
  </outline>
</glyph>
<glyph name="eth" format="1">
  <advance width="367"/>
  <unicode hex="00F0"/>
  <outline>
    <contour>
      <point x="269" y="-11"/>
      <point x="353" y="54"/>
      <point x="353" y="185" type="curve" smooth="yes"/>
      <point x="355" y="355"/>
      <point x="234" y="547"/>
      <point x="81" y="620" type="curve" smooth="yes"/>
      <point x="76" y="622"/>
      <point x="66" y="612"/>
      <point x="71" y="609" type="curve" smooth="yes"/>
      <point x="166" y="540"/>
      <point x="256" y="343"/>
      <point x="263" y="174" type="curve"/>
      <point x="300" y="285" type="line"/>
      <point x="274" y="321"/>
      <point x="230" y="341"/>
      <point x="189" y="341" type="curve" smooth="yes"/>
      <point x="114" y="341"/>
      <point x="16" y="284"/>
      <point x="15" y="159" type="curve" smooth="yes"/>
      <point x="13" y="68"/>
      <point x="73" y="-11"/>
      <point x="174" y="-11" type="curve" smooth="yes"/>
    </contour>
    <contour>
      <point x="148" y="9"/>
      <point x="109" y="90"/>
      <point x="104" y="184" type="curve" smooth="yes"/>
      <point x="100" y="273"/>
      <point x="135" y="323"/>
      <point x="179" y="323" type="curve" smooth="yes"/>
      <point x="235" y="323"/>
      <point x="258" y="268"/>
      <point x="263" y="174" type="curve" smooth="yes"/>
      <point x="269" y="57"/>
      <point x="241" y="9"/>
      <point x="196" y="9" type="curve" smooth="yes"/>
    </contour>
    <contour>
      <point x="314" y="534" type="line" smooth="yes"/>
      <point x="321" y="537"/>
      <point x="311" y="557"/>
      <point x="305" y="554" type="curve" smooth="yes"/>
      <point x="68" y="443" type="line" smooth="yes"/>
      <point x="61" y="440"/>
      <point x="71" y="419"/>
      <point x="79" y="423" type="curve" smooth="yes"/>
    </contour>
    <contour>
      <point x="181" y="330" type="move" name="top"/>
    </contour>
  </outline>
</glyph>
<glyph name="divide" format="1">
  <advance width="340"/>
  <unicode hex="00F7"/>
  <outline>
    <contour>
      <point x="311" y="141" type="line" smooth="yes"/>
      <point x="316" y="141"/>
      <point x="316" y="183"/>
      <point x="311" y="183" type="curve" smooth="yes"/>
      <point x="28" y="183" type="line" smooth="yes"/>
      <point x="24" y="183"/>
      <point x="24" y="141"/>
      <point x="29" y="141" type="curve" smooth="yes"/>
    </contour>
    <contour>
      <point x="204" y="-9"/>
      <point x="222" y="10"/>
      <point x="222" y="43" type="curve" smooth="yes"/>
      <point x="222" y="73"/>
      <point x="204" y="92"/>
      <point x="172" y="92" type="curve" smooth="yes"/>
      <point x="140" y="92"/>
      <point x="120" y="73"/>
      <point x="120" y="43" type="curve" smooth="yes"/>
      <point x="120" y="10"/>
      <point x="140" y="-9"/>
      <point x="172" y="-9" type="curve" smooth="yes"/>
    </contour>
    <contour>
      <point x="204" y="234"/>
      <point x="222" y="253"/>
      <point x="222" y="286" type="curve" smooth="yes"/>
      <point x="222" y="316"/>
      <point x="204" y="335"/>
      <point x="172" y="335" type="curve" smooth="yes"/>
      <point x="140" y="335"/>
      <point x="120" y="316"/>
      <point x="120" y="286" type="curve" smooth="yes"/>
      <point x="120" y="253"/>
      <point x="140" y="234"/>
      <point x="172" y="234" type="curve" smooth="yes"/>
    </contour>
  </outline>
</glyph>
<glyph name="oslash" format="1">
  <advance width="374"/>
  <unicode hex="00F8"/>
  <outline>
    <contour>
      <point x="326" y="331" type="line" smooth="yes"/>
      <point x="329" y="335"/>
      <point x="311" y="347"/>
      <point x="308" y="344" type="curve" smooth="yes"/>
      <point x="35" y="0" type="line" smooth="yes"/>
      <point x="32" y="-4"/>
      <point x="49" y="-18"/>
      <point x="52" y="-15" type="curve" smooth="yes"/>
    </contour>
    <component base="o"/>
    <contour>
      <point x="175" y="330" type="move" name="top"/>
    </contour>
  </outline>
</glyph>
<glyph name="thorn" format="1">
  <advance width="377"/>
  <unicode hex="00FE"/>
  <outline>
    <contour>
      <point x="181" y="-209" type="line" smooth="yes"/>
      <point x="186" y="-208"/>
      <point x="184" y="-198"/>
      <point x="179" y="-199" type="curve" smooth="yes"/>
      <point x="135" y="-204"/>
      <point x="125" y="-197"/>
      <point x="125" y="-152" type="curve" smooth="yes"/>
      <point x="126" y="613" type="line" smooth="yes"/>
      <point x="126" y="616"/>
      <point x="118" y="622"/>
      <point x="114" y="620" type="curve" smooth="yes"/>
      <point x="-20" y="555" type="line" smooth="yes"/>
      <point x="-25" y="553"/>
      <point x="-21" y="543"/>
      <point x="-16" y="545" type="curve" smooth="yes"/>
      <point x="32" y="567"/>
      <point x="47" y="558"/>
      <point x="46" y="504" type="curve" smooth="yes"/>
      <point x="43" y="-158" type="line" smooth="yes"/>
      <point x="43" y="-209"/>
      <point x="40" y="-219"/>
      <point x="6" y="-225" type="curve" smooth="yes"/>
      <point x="2" y="-226"/>
      <point x="4" y="-236"/>
      <point x="8" y="-235" type="curve" smooth="yes"/>
    </contour>
    <contour>
      <point x="270" y="-1"/>
      <point x="349" y="94"/>
      <point x="349" y="207" type="curve" smooth="yes"/>
      <point x="349" y="291"/>
      <point x="306" y="336"/>
      <point x="228" y="336" type="curve" smooth="yes"/>
      <point x="149" y="336"/>
      <point x="63" y="291"/>
      <point x="-6" y="231" type="curve" smooth="yes"/>
      <point x="-11" y="227"/>
      <point x="-3" y="218"/>
      <point x="2" y="222" type="curve" smooth="yes"/>
      <point x="66" y="269"/>
      <point x="118" y="294"/>
      <point x="171" y="294" type="curve" smooth="yes"/>
      <point x="250" y="294"/>
      <point x="270" y="237"/>
      <point x="270" y="154" type="curve" smooth="yes"/>
      <point x="270" y="76"/>
      <point x="252" y="25"/>
      <point x="187" y="25" type="curve" smooth="yes"/>
      <point x="152" y="25"/>
      <point x="110" y="40"/>
      <point x="79" y="60" type="curve"/>
      <point x="80" y="7" type="line"/>
      <point x="98" y="3"/>
      <point x="134" y="-1"/>
      <point x="157" y="-1" type="curve" smooth="yes"/>
    </contour>
  </outline>
</glyph>
<glyph name="aogonek" format="1">
  <advance width="410"/>
  <unicode hex="0105"/>
  <outline>
    <contour>
      <point x="349" y="-235"/>
      <point x="391" y="-217"/>
      <point x="415" y="-177" type="curve" smooth="yes"/>
      <point x="419" y="-174"/>
      <point x="411" y="-167"/>
      <point x="408" y="-169" type="curve" smooth="yes"/>
      <point x="399" y="-179"/>
      <point x="388" y="-190"/>
      <point x="367" y="-190" type="curve" smooth="yes"/>
      <point x="331" y="-190"/>
      <point x="310" y="-163"/>
      <point x="310" y="-123" type="curve" smooth="yes"/>
      <point x="310" y="-63"/>
      <point x="330" y="-28"/>
      <point x="414" y="59" type="curve" smooth="yes"/>
      <point x="416" y="62"/>
      <point x="408" y="69"/>
      <point x="404" y="66" type="curve" smooth="yes"/>
      <point x="389" y="48"/>
      <point x="372" y="36"/>
      <point x="360" y="36" type="curve" smooth="yes"/>
      <point x="348" y="36"/>
      <point x="340" y="49"/>
      <point x="342" y="76" type="curve" smooth="yes"/>
      <point x="344" y="345" type="line" smooth="yes"/>
      <point x="345" y="348"/>
      <point x="334" y="351"/>
      <point x="333" y="348" type="curve" smooth="yes"/>
      <point x="327" y="337"/>
      <point x="317" y="327"/>
      <point x="309" y="320" type="curve"/>
      <point x="293" y="330"/>
      <point x="266" y="341"/>
      <point x="237" y="341" type="curve" smooth="yes"/>
      <point x="131" y="341"/>
      <point x="24" y="193"/>
      <point x="28" y="78" type="curve" smooth="yes"/>
      <point x="30" y="15"/>
      <point x="64" y="-11"/>
      <point x="107" y="-11" type="curve" smooth="yes"/>
      <point x="168" y="-11"/>
      <point x="228" y="39"/>
      <point x="260" y="130" type="curve"/>
      <point x="261" y="76" type="line" smooth="yes"/>
      <point x="261" y="18"/>
      <point x="281" y="-8"/>
      <point x="322" y="-8" type="curve" smooth="yes"/>
      <point x="333" y="-8"/>
      <point x="339" y="-5"/>
      <point x="347" y="-1" type="curve"/>
      <point x="359" y="18" type="line"/>
      <point x="281" y="-36"/>
      <point x="232" y="-110"/>
      <point x="232" y="-164" type="curve" smooth="yes"/>
      <point x="232" y="-211"/>
      <point x="269" y="-235"/>
      <point x="312" y="-235" type="curve" smooth="yes"/>
    </contour>
    <contour>
      <point x="127" y="51"/>
      <point x="104" y="75"/>
      <point x="103" y="147" type="curve" smooth="yes"/>
      <point x="103" y="235"/>
      <point x="137" y="299"/>
      <point x="196" y="299" type="curve" smooth="yes"/>
      <point x="237" y="299"/>
      <point x="262" y="268"/>
      <point x="261" y="216" type="curve" smooth="yes"/>
      <point x="260" y="152"/>
      <point x="215" y="51"/>
      <point x="156" y="51" type="curve" smooth="yes"/>
    </contour>
    <contour>
      <point x="380" y="10" type="move" name="ogonek"/>
    </contour>
    <contour>
      <point x="155" y="0" type="move" name="bottom"/>
    </contour>
    <contour>
      <point x="226" y="330" type="move" name="top"/>
    </contour>
  </outline>
</glyph>
<glyph name="dcroat" format="1">
  <advance width="414"/>
  <unicode hex="0111"/>
  <outline>
    <contour>
      <point x="410" y="426" type="line" smooth="yes"/>
      <point x="415" y="426"/>
      <point x="415" y="446"/>
      <point x="410" y="446" type="curve" smooth="yes"/>
      <point x="165" y="446" type="line" smooth="yes"/>
      <point x="160" y="446"/>
      <point x="160" y="426"/>
      <point x="165" y="426" type="curve" smooth="yes"/>
    </contour>
    <component base="d"/>
  </outline>
</glyph>
<glyph name="eogonek" format="1">
  <advance width="326"/>
  <unicode hex="0119"/>
  <outline>
    <contour>
      <point x="272" y="-235"/>
      <point x="302" y="-203"/>
      <point x="313" y="-175" type="curve" smooth="yes"/>
      <point x="314" y="-172"/>
      <point x="308" y="-167"/>
      <point x="305" y="-170" type="curve" smooth="yes"/>
      <point x="298" y="-179"/>
      <point x="283" y="-189"/>
      <point x="264" y="-189" type="curve" smooth="yes"/>
      <point x="229" y="-189"/>
      <point x="217" y="-156"/>
      <point x="217" y="-122" type="curve" smooth="yes"/>
      <point x="217" y="-77"/>
      <point x="241" y="-28"/>
      <point x="315" y="47" type="curve"/>
      <point x="308" y="54" type="line"/>
      <point x="189" y="-56"/>
      <point x="148" y="-103"/>
      <point x="146" y="-153" type="curve" smooth="yes"/>
      <point x="144" y="-208"/>
      <point x="190" y="-235"/>
      <point x="229" y="-235" type="curve" smooth="yes"/>
    </contour>
    <component base="e"/>
  </outline>
</glyph>
<glyph name="Hbar" format="1">
  <advance width="625"/>
  <unicode hex="0126"/>
  <outline>
    <contour>
      <point x="67" y="0"/>
      <point x="103" y="2"/>
      <point x="141" y="2" type="curve" smooth="yes"/>
      <point x="183" y="2"/>
      <point x="219" y="0"/>
      <point x="248" y="0" type="curve" smooth="yes"/>
      <point x="251" y="0"/>
      <point x="251" y="10"/>
      <point x="248" y="10" type="curve" smooth="yes"/>
      <point x="199" y="10"/>
      <point x="189" y="20"/>
      <point x="189" y="69" type="curve" smooth="yes"/>
      <point x="189" y="463" type="line" smooth="yes"/>
      <point x="190" y="511"/>
      <point x="196" y="524"/>
      <point x="247" y="524" type="curve" smooth="yes"/>
      <point x="250" y="524"/>
      <point x="250" y="534"/>
      <point x="247" y="534" type="curve" smooth="yes"/>
      <point x="219" y="534"/>
      <point x="181" y="532"/>
      <point x="141" y="532" type="curve" smooth="yes"/>
      <point x="102" y="532"/>
      <point x="66" y="534"/>
      <point x="39" y="534" type="curve" smooth="yes"/>
      <point x="36" y="534"/>
      <point x="36" y="524"/>
      <point x="39" y="524" type="curve" smooth="yes"/>
      <point x="86" y="524"/>
      <point x="97" y="513"/>
      <point x="96" y="465" type="curve" smooth="yes"/>
      <point x="96" y="69" type="line" smooth="yes"/>
      <point x="96" y="20"/>
      <point x="89" y="10"/>
      <point x="39" y="10" type="curve" smooth="yes"/>
      <point x="36" y="10"/>
      <point x="36" y="0"/>
      <point x="39" y="0" type="curve" smooth="yes"/>
    </contour>
    <contour>
      <point x="505" y="186" type="line"/>
      <point x="503" y="210" type="line"/>
      <point x="144" y="210" type="line"/>
      <point x="145" y="186" type="line"/>
    </contour>
    <contour>
      <point x="475" y="346" type="line"/>
      <point x="472" y="370" type="line"/>
      <point x="113" y="370" type="line"/>
      <point x="114" y="346" type="line"/>
    </contour>
    <contour>
      <point x="408" y="0"/>
      <point x="445" y="2"/>
      <point x="485" y="2" type="curve" smooth="yes"/>
      <point x="524" y="2"/>
      <point x="564" y="0"/>
      <point x="588" y="0" type="curve" smooth="yes"/>
      <point x="591" y="0"/>
      <point x="591" y="10"/>
      <point x="588" y="10" type="curve" smooth="yes"/>
      <point x="540" y="10"/>
      <point x="527" y="20"/>
      <point x="527" y="69" type="curve" smooth="yes"/>
      <point x="527" y="465" type="line" smooth="yes"/>
      <point x="529" y="513"/>
      <point x="536" y="524"/>
      <point x="586" y="524" type="curve" smooth="yes"/>
      <point x="589" y="524"/>
      <point x="589" y="534"/>
      <point x="586" y="534" type="curve" smooth="yes"/>
      <point x="558" y="534"/>
      <point x="520" y="532"/>
      <point x="481" y="532" type="curve" smooth="yes"/>
      <point x="441" y="532"/>
      <point x="405" y="534"/>
      <point x="378" y="534" type="curve" smooth="yes"/>
      <point x="374" y="534"/>
      <point x="375" y="524"/>
      <point x="378" y="524" type="curve" smooth="yes"/>
      <point x="425" y="524"/>
      <point x="434" y="511"/>
      <point x="434" y="463" type="curve" smooth="yes"/>
      <point x="435" y="69" type="line" smooth="yes"/>
      <point x="435" y="20"/>
      <point x="430" y="10"/>
      <point x="379" y="10" type="curve" smooth="yes"/>
      <point x="375" y="10"/>
      <point x="376" y="0"/>
      <point x="379" y="0" type="curve" smooth="yes"/>
    </contour>
    <contour>
      <point x="332" y="267" type="move" name="center"/>
    </contour>
    <contour>
      <point x="311" y="0" type="move" name="bottom"/>
    </contour>
    <contour>
      <point x="280" y="534" type="move" name="top"/>
    </contour>
  </outline>
</glyph>
<glyph name="hbar" format="1">
  <advance width="418"/>
  <unicode hex="0127"/>
  <outline>
    <contour>
      <point x="238" y="426" type="line" smooth="yes"/>
      <point x="243" y="426"/>
      <point x="242" y="446"/>
      <point x="237" y="446" type="curve" smooth="yes"/>
      <point x="-8" y="446" type="line" smooth="yes"/>
      <point x="-13" y="446"/>
      <point x="-13" y="426"/>
      <point x="-8" y="426" type="curve" smooth="yes"/>
    </contour>
    <component base="h"/>
  </outline>
</glyph>
<glyph name="iogonek" format="1">
  <advance width="222"/>
  <unicode hex="012F"/>
  <outline>
    <contour>
      <point x="160" y="-235"/>
      <point x="202" y="-217"/>
      <point x="226" y="-177" type="curve" smooth="yes"/>
      <point x="229" y="-174"/>
      <point x="222" y="-167"/>
      <point x="218" y="-169" type="curve" smooth="yes"/>
      <point x="210" y="-179"/>
      <point x="199" y="-190"/>
      <point x="178" y="-190" type="curve" smooth="yes"/>
      <point x="141" y="-190"/>
      <point x="121" y="-158"/>
      <point x="120" y="-123" type="curve" smooth="yes"/>
      <point x="118" y="-64"/>
      <point x="136" y="-33"/>
      <point x="225" y="59" type="curve" smooth="yes"/>
      <point x="228" y="63"/>
      <point x="219" y="70"/>
      <point x="215" y="66" type="curve" smooth="yes"/>
      <point x="199" y="49"/>
      <point x="185" y="36"/>
      <point x="172" y="36" type="curve" smooth="yes"/>
      <point x="161" y="36"/>
      <point x="151" y="44"/>
      <point x="152" y="76" type="curve" smooth="yes"/>
      <point x="153" y="264" type="line" smooth="yes"/>
      <point x="152" y="311"/>
      <point x="137" y="338"/>
      <point x="96" y="338" type="curve" smooth="yes"/>
      <point x="61" y="338"/>
      <point x="31" y="318"/>
      <point x="-4" y="269" type="curve" smooth="yes"/>
      <point x="-8" y="265"/>
      <point x="2" y="257"/>
      <point x="5" y="262" type="curve" smooth="yes"/>
      <point x="24" y="285"/>
      <point x="40" y="296"/>
      <point x="52" y="296" type="curve" smooth="yes"/>
      <point x="67" y="296"/>
      <point x="74" y="282"/>
      <point x="74" y="254" type="curve" smooth="yes"/>
      <point x="73" y="76" type="line" smooth="yes"/>
      <point x="72" y="21"/>
      <point x="89" y="-8"/>
      <point x="130" y="-8" type="curve" smooth="yes"/>
      <point x="141" y="-8"/>
      <point x="150" y="-5"/>
      <point x="158" y="-1" type="curve"/>
      <point x="170" y="18" type="line"/>
      <point x="92" y="-36"/>
      <point x="42" y="-110"/>
      <point x="42" y="-164" type="curve" smooth="yes"/>
      <point x="42" y="-211"/>
      <point x="79" y="-235"/>
      <point x="122" y="-235" type="curve" smooth="yes"/>
    </contour>
    <contour>
      <point x="140" y="423"/>
      <point x="158" y="442"/>
      <point x="158" y="475" type="curve" smooth="yes"/>
      <point x="158" y="505"/>
      <point x="140" y="524"/>
      <point x="108" y="524" type="curve" smooth="yes"/>
      <point x="76" y="524"/>
      <point x="56" y="505"/>
      <point x="56" y="475" type="curve" smooth="yes"/>
      <point x="56" y="442"/>
      <point x="76" y="423"/>
      <point x="108" y="423" type="curve" smooth="yes"/>
    </contour>
  </outline>
</glyph>
<glyph name="idotless" format="1">
  <advance width="222"/>
  <unicode hex="0131"/>
  <outline>
    <contour>
      <point x="167" y="-8"/>
      <point x="192" y="16"/>
      <point x="224" y="59" type="curve" smooth="yes"/>
      <point x="227" y="63"/>
      <point x="218" y="70"/>
      <point x="214" y="66" type="curve" smooth="yes"/>
      <point x="197" y="49"/>
      <point x="184" y="36"/>
      <point x="171" y="36" type="curve" smooth="yes"/>
      <point x="160" y="36"/>
      <point x="150" y="44"/>
      <point x="151" y="76" type="curve" smooth="yes"/>
      <point x="155" y="264" type="line" smooth="yes"/>
      <point x="155" y="311"/>
      <point x="138" y="338"/>
      <point x="97" y="338" type="curve" smooth="yes"/>
      <point x="62" y="338"/>
      <point x="32" y="318"/>
      <point x="-3" y="269" type="curve" smooth="yes"/>
      <point x="-7" y="265"/>
      <point x="3" y="257"/>
      <point x="6" y="262" type="curve" smooth="yes"/>
      <point x="25" y="285"/>
      <point x="41" y="296"/>
      <point x="53" y="296" type="curve" smooth="yes"/>
      <point x="68" y="296"/>
      <point x="76" y="282"/>
      <point x="75" y="254" type="curve" smooth="yes"/>
      <point x="72" y="76" type="line" smooth="yes"/>
      <point x="70" y="21"/>
      <point x="87" y="-8"/>
      <point x="129" y="-8" type="curve" smooth="yes"/>
    </contour>
    <contour>
      <point x="134" y="10" type="move" name="ogonek"/>
    </contour>
    <contour>
      <point x="123" y="0" type="move" name="bottom"/>
    </contour>
    <contour>
      <point x="105" y="330" type="move" name="top"/>
    </contour>
  </outline>
</glyph>
<glyph name="IJ" format="1">
  <advance width="572"/>
  <unicode hex="0132"/>
  <outline>
    <contour>
      <point x="412" y="-12"/>
      <point x="508" y="69"/>
      <point x="507" y="221" type="curve" smooth="yes"/>
      <point x="505" y="463" type="line" smooth="yes"/>
      <point x="505" y="512"/>
      <point x="512" y="524"/>
      <point x="559" y="524" type="curve" smooth="yes"/>
      <point x="564" y="524"/>
      <point x="564" y="534"/>
      <point x="559" y="534" type="curve" smooth="yes"/>
      <point x="533" y="534"/>
      <point x="496" y="532"/>
      <point x="456" y="532" type="curve" smooth="yes"/>
      <point x="412" y="532"/>
      <point x="374" y="534"/>
      <point x="339" y="534" type="curve" smooth="yes"/>
      <point x="335" y="534"/>
      <point x="335" y="524"/>
      <point x="339" y="524" type="curve" smooth="yes"/>
      <point x="400" y="524"/>
      <point x="410" y="514"/>
      <point x="410" y="465" type="curve" smooth="yes"/>
      <point x="410" y="171" type="line" smooth="yes"/>
      <point x="410" y="72"/>
      <point x="373" y="6"/>
      <point x="281" y="6" type="curve" smooth="yes"/>
      <point x="137" y="6"/>
      <point x="229" y="163"/>
      <point x="126" y="163" type="curve" smooth="yes"/>
      <point x="90" y="163"/>
      <point x="76" y="143"/>
      <point x="79" y="116" type="curve" smooth="yes"/>
      <point x="82" y="52"/>
      <point x="168" y="-12"/>
      <point x="282" y="-12" type="curve" smooth="yes"/>
    </contour>
    <contour>
      <point x="51" y="230"/>
      <point x="89" y="232"/>
      <point x="129" y="232" type="curve" smooth="yes"/>
      <point x="172" y="232"/>
      <point x="211" y="230"/>
      <point x="241" y="230" type="curve" smooth="yes"/>
      <point x="245" y="230"/>
      <point x="245" y="240"/>
      <point x="240" y="240" type="curve" smooth="yes"/>
      <point x="189" y="240"/>
      <point x="179" y="250"/>
      <point x="179" y="299" type="curve" smooth="yes"/>
      <point x="179" y="463" type="line" smooth="yes"/>
      <point x="180" y="512"/>
      <point x="186" y="524"/>
      <point x="241" y="524" type="curve" smooth="yes"/>
      <point x="247" y="524"/>
      <point x="247" y="534"/>
      <point x="241" y="534" type="curve" smooth="yes"/>
      <point x="213" y="534"/>
      <point x="175" y="532"/>
      <point x="131" y="532" type="curve" smooth="yes"/>
      <point x="91" y="532"/>
      <point x="52" y="534"/>
      <point x="21" y="534" type="curve" smooth="yes"/>
      <point x="16" y="534"/>
      <point x="16" y="524"/>
      <point x="21" y="524" type="curve" smooth="yes"/>
      <point x="72" y="524"/>
      <point x="82" y="514"/>
      <point x="82" y="465" type="curve" smooth="yes"/>
      <point x="82" y="299" type="line" smooth="yes"/>
      <point x="82" y="250"/>
      <point x="75" y="240"/>
      <point x="21" y="240" type="curve" smooth="yes"/>
      <point x="16" y="240"/>
      <point x="16" y="230"/>
      <point x="22" y="230" type="curve" smooth="yes"/>
    </contour>
    <contour>
      <point x="135" y="10" type="move" name="ogonek"/>
    </contour>
    <contour>
      <point x="419" y="534" type="move" name="top"/>
    </contour>
  </outline>
</glyph>
<glyph name="ij" format="1">
  <advance width="377"/>
  <unicode hex="0133"/>
  <outline>
    <contour>
      <point x="271" y="-240"/>
      <point x="329" y="-165"/>
      <point x="330" y="-60" type="curve" smooth="yes"/>
      <point x="332" y="267" type="line" smooth="yes"/>
      <point x="334" y="297"/>
      <point x="334" y="328"/>
      <point x="334" y="332" type="curve" smooth="yes"/>
      <point x="333" y="335"/>
      <point x="329" y="337"/>
      <point x="297" y="337" type="curve" smooth="yes"/>
      <point x="272" y="337"/>
      <point x="259" y="332"/>
      <point x="259" y="325" type="curve" smooth="yes"/>
      <point x="258" y="254" type="line"/>
      <point x="257" y="-80" type="line" smooth="yes"/>
      <point x="257" y="-196"/>
      <point x="233" y="-222"/>
      <point x="203" y="-222" type="curve" smooth="yes"/>
      <point x="128" y="-222"/>
      <point x="155" y="-132"/>
      <point x="97" y="-132" type="curve" smooth="yes"/>
      <point x="79" y="-132"/>
      <point x="61" y="-143"/>
      <point x="61" y="-175" type="curve" smooth="yes"/>
      <point x="59" y="-211"/>
      <point x="107" y="-240"/>
      <point x="172" y="-240" type="curve" smooth="yes"/>
    </contour>
    <contour>
      <point x="223" y="-11"/>
      <point x="277" y="116"/>
      <point x="274" y="319" type="curve"/>
      <point x="259" y="325" type="line"/>
      <point x="260" y="142"/>
      <point x="218" y="38"/>
      <point x="169" y="38" type="curve" smooth="yes"/>
      <point x="145" y="38"/>
      <point x="131" y="63"/>
      <point x="132" y="118" type="curve" smooth="yes"/>
      <point x="135" y="254" type="line" smooth="yes"/>
      <point x="137" y="313"/>
      <point x="116" y="338"/>
      <point x="82" y="338" type="curve" smooth="yes"/>
      <point x="49" y="338"/>
      <point x="26" y="314"/>
      <point x="-3" y="271" type="curve" smooth="yes"/>
      <point x="-6" y="267"/>
      <point x="2" y="260"/>
      <point x="6" y="264" type="curve" smooth="yes"/>
      <point x="21" y="281"/>
      <point x="33" y="294"/>
      <point x="45" y="294" type="curve" smooth="yes"/>
      <point x="55" y="294"/>
      <point x="64" y="286"/>
      <point x="63" y="254" type="curve" smooth="yes"/>
      <point x="60" y="102" type="line" smooth="yes"/>
      <point x="59" y="25"/>
      <point x="87" y="-11"/>
      <point x="135" y="-11" type="curve" smooth="yes"/>
    </contour>
    <component base="dotaccent" xOffset="28"/>
    <component base="dotaccent" xOffset="230"/>
  </outline>
</glyph>
<glyph name="kgreenlandic" format="1">
  <advance width="396"/>
  <unicode hex="0138"/>
  <outline>
    <contour>
      <point x="371" y="-8"/>
      <point x="399" y="14"/>
      <point x="432" y="57" type="curve" smooth="yes"/>
      <point x="435" y="61"/>
      <point x="427" y="67"/>
      <point x="423" y="64" type="curve" smooth="yes"/>
      <point x="407" y="49"/>
      <point x="389" y="42"/>
      <point x="377" y="42" type="curve" smooth="yes"/>
      <point x="359" y="42"/>
      <point x="343" y="49"/>
      <point x="310" y="87" type="curve" smooth="yes"/>
      <point x="225" y="183" type="line"/>
      <point x="133" y="148" type="line"/>
      <point x="157" y="155"/>
      <point x="162" y="152"/>
      <point x="180" y="132" type="curve" smooth="yes"/>
      <point x="250" y="50" type="line" smooth="yes"/>
      <point x="289" y="6"/>
      <point x="313" y="-8"/>
      <point x="346" y="-8" type="curve" smooth="yes"/>
    </contour>
    <contour>
      <point x="136" y="-7"/>
      <point x="152" y="0"/>
      <point x="152" y="10" type="curve" smooth="yes"/>
      <point x="152" y="175" type="line"/>
      <point x="153" y="264" type="line" smooth="yes"/>
      <point x="152" y="311"/>
      <point x="137" y="338"/>
      <point x="96" y="338" type="curve" smooth="yes"/>
      <point x="61" y="338"/>
      <point x="31" y="318"/>
      <point x="-4" y="269" type="curve" smooth="yes"/>
      <point x="-8" y="265"/>
      <point x="2" y="257"/>
      <point x="5" y="262" type="curve" smooth="yes"/>
      <point x="24" y="285"/>
      <point x="40" y="296"/>
      <point x="52" y="296" type="curve" smooth="yes"/>
      <point x="67" y="296"/>
      <point x="74" y="282"/>
      <point x="74" y="254" type="curve" smooth="yes"/>
      <point x="73" y="63" type="line" smooth="yes"/>
      <point x="73" y="33"/>
      <point x="70" y="4"/>
      <point x="71" y="0" type="curve" smooth="yes"/>
      <point x="72" y="-3"/>
      <point x="79" y="-7"/>
      <point x="103" y="-7" type="curve" smooth="yes"/>
    </contour>
    <contour>
      <point x="282" y="175"/>
      <point x="365" y="234"/>
      <point x="364" y="290" type="curve" smooth="yes"/>
      <point x="362" y="310"/>
      <point x="350" y="341"/>
      <point x="291" y="341" type="curve" smooth="yes"/>
      <point x="210" y="341"/>
      <point x="134" y="282"/>
      <point x="103" y="208" type="curve"/>
      <point x="152" y="175" type="line"/>
      <point x="155" y="252"/>
      <point x="186" y="304"/>
      <point x="237" y="304" type="curve" smooth="yes"/>
      <point x="258" y="304"/>
      <point x="269" y="290"/>
      <point x="271" y="266" type="curve" smooth="yes"/>
      <point x="278" y="215"/>
      <point x="235" y="183"/>
      <point x="129" y="163" type="curve"/>
      <point x="133" y="148" type="line"/>
    </contour>
  </outline>
</glyph>
<glyph name="Lslash" format="1">
  <advance width="465"/>
  <unicode hex="0141"/>
  <outline>
    <contour>
      <point x="248" y="323" type="line" smooth="yes"/>
      <point x="252" y="326"/>
      <point x="241" y="340"/>
      <point x="237" y="337" type="curve" smooth="yes"/>
      <point x="39" y="199" type="line" smooth="yes"/>
      <point x="36" y="197"/>
      <point x="46" y="182"/>
      <point x="50" y="185" type="curve" smooth="yes"/>
    </contour>
    <component base="L"/>
  </outline>
</glyph>
<glyph name="lslash" format="1">
  <advance width="232"/>
  <unicode hex="0142"/>
  <outline>
    <contour>
      <point x="205" y="358" type="line" smooth="yes"/>
      <point x="209" y="360"/>
      <point x="196" y="378"/>
      <point x="192" y="376" type="curve" smooth="yes"/>
      <point x="8" y="262" type="line" smooth="yes"/>
      <point x="4" y="260"/>
      <point x="17" y="242"/>
      <point x="21" y="244" type="curve" smooth="yes"/>
    </contour>
    <component base="l" xOffset="5"/>
  </outline>
</glyph>
